<svg xmlns="http://www.w3.org/2000/svg" width="121" height="121" viewBox="0 0 121 121">
  <g id="Grupo_10322" data-name="Grupo 10322" transform="translate(-145 -3500)">
    <g id="Grupo_10090" data-name="Grupo 10090" transform="translate(2406 7407)">
      <circle id="Elipse_497" data-name="Elipse 497" cx="60.5" cy="60.5" r="60.5" transform="translate(-2261 -3907)" fill="#7cb342"/>
      <path id="Trazado_1178" data-name="Trazado 1178" d="M53.993,0A53.993,53.993,0,1,1,0,53.993,53.993,53.993,0,0,1,53.993,0Z" transform="translate(-2254 -3900)" fill="#fff"/>
    </g>
    <g id="Grupo_10208" data-name="Grupo 10208" transform="translate(173 3533)">
      <g id="Grupo_10206" data-name="Grupo 10206" transform="translate(10.498 17.405)">
        <path id="Trazado_3955" data-name="Trazado 3955" d="M6955.9,2889.744h-48.772a.94.94,0,0,1,0-1.879H6955.9a.94.94,0,0,1,0,1.879Z" transform="translate(-6906.184 -2852.739)" fill="#002b45"/>
        <path id="Trazado_3956" data-name="Trazado 3956" d="M7002.985,2613.719c-3.845,0-6.428-3.024-6.428-7.526s2.583-7.526,6.428-7.526,6.428,3.024,6.428,7.526S7006.83,2613.719,7002.985,2613.719Zm0-13.172c-3.354,0-4.548,2.917-4.548,5.647s1.194,5.646,4.548,5.646,4.549-2.917,4.549-5.646S7006.339,2600.547,7002.985,2600.547Z" transform="translate(-6985.581 -2598.668)" fill="#002b45"/>
        <path id="Trazado_3957" data-name="Trazado 3957" d="M7155.128,2742.441h-6.678a.94.94,0,0,1,0-1.879h6.059l5.751-13.42-20.495-.068a.679.679,0,0,0-.635.431l-2.561,6.826a.94.94,0,0,1-1.76-.661l2.567-6.842a2.555,2.555,0,0,1,2.389-1.634h20.449a1.929,1.929,0,0,1,1.774,2.687l-6,13.99A.939.939,0,0,1,7155.128,2742.441Z" transform="translate(-7106.989 -2709.826)" fill="#002b45"/>
        <path id="Trazado_3958" data-name="Trazado 3958" d="M6955.406,2762.714a.94.94,0,0,1-.917-.736l-1.328-5.995a.94.94,0,0,1,1.835-.406l1.164,5.258,11.8,0V2760a1.677,1.677,0,0,0-1.675-1.676l-5.2,0a.94.94,0,0,1-.916-.735s-1.174-5.254-1.181-5.289a9.008,9.008,0,0,0-8.789-7.144h-5.328a8.985,8.985,0,0,0-8.976,8.976v7.647a.94.94,0,0,1-1.879,0v-7.647a10.867,10.867,0,0,1,10.855-10.854h5.328a10.894,10.894,0,0,1,10.628,8.638c.017.077.692,3.1,1.011,4.53l4.443,0a3.559,3.559,0,0,1,3.554,3.555v1.775a.939.939,0,0,1-.94.939Z" transform="translate(-6930.639 -2725.706)" fill="#002b45"/>
      </g>
      <g id="Grupo_10207" data-name="Grupo 10207">
        <path id="Trazado_3959" data-name="Trazado 3959" d="M6834.785,2485.434a15.033,15.033,0,1,1,14.995-16.115.939.939,0,1,1-1.874.133,13.142,13.142,0,1,0-9.209,13.512.94.94,0,1,1,.558,1.795A15.066,15.066,0,0,1,6834.785,2485.434Z" transform="translate(-6819.752 -2455.367)" fill="#7cb342"/>
        <path id="Trazado_3960" data-name="Trazado 3960" d="M6882.578,2532.287a.939.939,0,0,1-.665-1.6l6.3-6.3v-6.188a.94.94,0,0,1,1.879,0v6.577a.941.941,0,0,1-.275.664l-6.577,6.577A.936.936,0,0,1,6882.578,2532.287Z" transform="translate(-6874.122 -2509.737)" fill="#7cb342"/>
      </g>
    </g>
  </g>
</svg>
