<svg xmlns="http://www.w3.org/2000/svg" width="121" height="121" viewBox="0 0 121 121">
  <g id="Grupo_10326" data-name="Grupo 10326" transform="translate(-145 -4529)">
    <g id="Grupo_10090" data-name="Grupo 10090" transform="translate(2406 8436)">
      <circle id="Elipse_497" data-name="Elipse 497" cx="60.5" cy="60.5" r="60.5" transform="translate(-2261 -3907)" fill="#7cb342"/>
      <path id="Trazado_1178" data-name="Trazado 1178" d="M53.993,0A53.993,53.993,0,1,1,0,53.993,53.993,53.993,0,0,1,53.993,0Z" transform="translate(-2254 -3900)" fill="#fff"/>
    </g>
    <g id="Grupo_10243" data-name="Grupo 10243" transform="translate(166 4549)">
      <g id="Grupo_10238" data-name="Grupo 10238" transform="translate(29.921)">
        <path id="Trazado_4015" data-name="Trazado 4015" d="M-3326.964,1326.274h-17.816a1.081,1.081,0,0,1-1.081-1.082c0-4.833,2.94-7.954,7.489-7.954h5c4.549,0,7.489,3.122,7.489,7.954A1.081,1.081,0,0,1-3326.964,1326.274Zm-16.67-2.163h15.525a4.938,4.938,0,0,0-5.262-4.71h-5A4.938,4.938,0,0,0-3343.635,1324.111Z" transform="translate(3345.861 -1304.529)" fill="#002b45"/>
        <path id="Trazado_4016" data-name="Trazado 4016" d="M-3332.954,1308.459c-2.817,0-4.709-2.186-4.709-5.441s1.893-5.442,4.709-5.442,4.709,2.187,4.709,5.442S-3330.137,1308.459-3332.954,1308.459Zm0-8.72c-2.363,0-2.546,2.51-2.546,3.279s.183,3.279,2.546,3.279,2.546-2.51,2.546-3.279S-3330.591,1299.738-3332.954,1299.738Z" transform="translate(3342.962 -1297.575)" fill="#002b45"/>
      </g>
      <g id="Grupo_10239" data-name="Grupo 10239" transform="translate(60.023 29.2)">
        <path id="Trazado_4017" data-name="Trazado 4017" d="M-3280.392,1371.452h-17.814a1.08,1.08,0,0,1-1.081-1.081c0-4.833,2.939-7.955,7.487-7.955h5c4.548,0,7.487,3.122,7.487,7.955A1.081,1.081,0,0,1-3280.392,1371.452Zm-16.669-2.163h15.524a4.936,4.936,0,0,0-5.26-4.71h-5A4.937,4.937,0,0,0-3297.061,1369.289Z" transform="translate(3299.287 -1349.707)" fill="#002b45"/>
        <path id="Trazado_4018" data-name="Trazado 4018" d="M-3286.38,1353.637c-2.816,0-4.709-2.186-4.709-5.441s1.893-5.443,4.709-5.443,4.709,2.188,4.709,5.443S-3283.564,1353.637-3286.38,1353.637Zm0-8.72c-2.362,0-2.546,2.51-2.546,3.279s.184,3.278,2.546,3.278,2.546-2.51,2.546-3.278S-3284.018,1344.916-3286.38,1344.916Z" transform="translate(3296.388 -1342.753)" fill="#002b45"/>
      </g>
      <g id="Grupo_10240" data-name="Grupo 10240" transform="translate(0 29.2)">
        <path id="Trazado_4019" data-name="Trazado 4019" d="M-3373.259,1371.452h-17.813a1.081,1.081,0,0,1-1.082-1.081c0-4.833,2.94-7.955,7.487-7.955h5c4.547,0,7.487,3.122,7.487,7.955A1.081,1.081,0,0,1-3373.259,1371.452Zm-16.669-2.163h15.524a4.937,4.937,0,0,0-5.26-4.71h-5A4.937,4.937,0,0,0-3389.927,1369.289Z" transform="translate(3392.154 -1349.707)" fill="#002b45"/>
        <path id="Trazado_4020" data-name="Trazado 4020" d="M-3379.247,1353.637c-2.816,0-4.709-2.186-4.709-5.441s1.893-5.443,4.709-5.443,4.709,2.188,4.709,5.443S-3376.431,1353.637-3379.247,1353.637Zm0-8.72c-2.362,0-2.545,2.51-2.545,3.279s.184,3.278,2.545,3.278,2.546-2.51,2.546-3.278S-3376.885,1344.916-3379.247,1344.916Z" transform="translate(3389.255 -1342.753)" fill="#002b45"/>
      </g>
      <g id="Grupo_10241" data-name="Grupo 10241" transform="translate(29.921 58.401)">
        <path id="Trazado_4021" data-name="Trazado 4021" d="M-3326.964,1416.63h-17.816a1.081,1.081,0,0,1-1.081-1.081c0-4.833,2.94-7.955,7.489-7.955h5c4.549,0,7.489,3.122,7.489,7.955A1.081,1.081,0,0,1-3326.964,1416.63Zm-16.67-2.163h15.525a4.937,4.937,0,0,0-5.262-4.71h-5A4.938,4.938,0,0,0-3343.635,1414.468Z" transform="translate(3345.861 -1394.886)" fill="#002b45"/>
        <path id="Trazado_4022" data-name="Trazado 4022" d="M-3332.954,1398.816c-2.817,0-4.709-2.187-4.709-5.442s1.893-5.442,4.709-5.442,4.709,2.187,4.709,5.442S-3330.137,1398.816-3332.954,1398.816Zm0-8.721c-2.363,0-2.546,2.51-2.546,3.279s.183,3.278,2.546,3.278,2.546-2.509,2.546-3.278S-3330.591,1390.095-3332.954,1390.095Z" transform="translate(3342.962 -1387.932)" fill="#002b45"/>
      </g>
      <g id="Grupo_10242" data-name="Grupo 10242" transform="translate(23.706 23.861)">
        <path id="Trazado_4023" data-name="Trazado 4023" d="M-3339.254,1366.938a16.24,16.24,0,0,1-16.222-16.222,16.24,16.24,0,0,1,16.222-16.222,16.24,16.24,0,0,1,16.222,16.222A16.239,16.239,0,0,1-3339.254,1366.938Zm0-30.281a14.075,14.075,0,0,0-14.059,14.059,14.076,14.076,0,0,0,14.059,14.06,14.076,14.076,0,0,0,14.06-14.06A14.076,14.076,0,0,0-3339.254,1336.656Z" transform="translate(3355.476 -1334.493)" fill="#7cb342"/>
        <path id="Trazado_4024" data-name="Trazado 4024" d="M-3340.963,1366.429a1.081,1.081,0,0,1-1-.658,39.935,39.935,0,0,1-3.114-14.315,39.792,39.792,0,0,1,3.062-14.377,1.085,1.085,0,0,1,1.416-.578,1.083,1.083,0,0,1,.578,1.416,37.494,37.494,0,0,0-2.893,13.532,37.614,37.614,0,0,0,2.942,13.477,1.081,1.081,0,0,1-.573,1.418A1.084,1.084,0,0,1-3340.963,1366.429Z" transform="translate(3351.796 -1335.173)" fill="#7cb342"/>
        <path id="Trazado_4025" data-name="Trazado 4025" d="M-3322.577,1366.442a1.075,1.075,0,0,1-.417-.083,1.083,1.083,0,0,1-.581-1.416,38.043,38.043,0,0,0,2.928-13.611,38.081,38.081,0,0,0-2.985-13.576,1.08,1.08,0,0,1,.574-1.417,1.083,1.083,0,0,1,1.417.574,40.347,40.347,0,0,1,3.157,14.412,40.341,40.341,0,0,1-3.1,14.452A1.082,1.082,0,0,1-3322.577,1366.442Z" transform="translate(3344.244 -1335.116)" fill="#7cb342"/>
        <path id="Trazado_4026" data-name="Trazado 4026" d="M-3325.256,1371.485a1.077,1.077,0,0,1-.463-.1,30.539,30.539,0,0,0-12.091-2.932,30.623,30.623,0,0,0-12.041,2.908,1.081,1.081,0,0,1-1.44-.516,1.082,1.082,0,0,1,.516-1.439,32.9,32.9,0,0,1,12.964-3.116,32.809,32.809,0,0,1,13.018,3.141,1.081,1.081,0,0,1,.513,1.441A1.082,1.082,0,0,1-3325.256,1371.485Z" transform="translate(3354.032 -1345.737)" fill="#7cb342"/>
        <path id="Trazado_4027" data-name="Trazado 4027" d="M-3337.743,1350.09a32.832,32.832,0,0,1-12.833-3.057,1.081,1.081,0,0,1-.53-1.434,1.078,1.078,0,0,1,1.434-.531,31.2,31.2,0,0,0,11.929,2.859,31.112,31.112,0,0,0,11.952-2.871,1.081,1.081,0,0,1,1.436.529,1.082,1.082,0,0,1-.529,1.435A32.78,32.78,0,0,1-3337.743,1350.09Z" transform="translate(3353.966 -1338.194)" fill="#7cb342"/>
      </g>
      <path id="Trazado_4028" data-name="Trazado 4028" d="M-3317,1397.862a1.081,1.081,0,0,1-1.036-.771,1.082,1.082,0,0,1,.725-1.346,30.433,30.433,0,0,0,18.322-15.361,1.082,1.082,0,0,1,1.453-.477,1.081,1.081,0,0,1,.478,1.453,32.612,32.612,0,0,1-19.632,16.457A1.1,1.1,0,0,1-3317,1397.862Z" transform="translate(3365.958 -1326.652)" fill="#7cb342"/>
      <path id="Trazado_4029" data-name="Trazado 4029" d="M-3355.949,1397.568a1.11,1.11,0,0,1-.33-.052,32.65,32.65,0,0,1-19.151-16.494,1.081,1.081,0,0,1,.488-1.449,1.078,1.078,0,0,1,1.449.488,30.476,30.476,0,0,0,17.875,15.4,1.081,1.081,0,0,1,.7,1.36A1.083,1.083,0,0,1-3355.949,1397.568Z" transform="translate(3386.28 -1326.535)" fill="#7cb342"/>
      <path id="Trazado_4030" data-name="Trazado 4030" d="M-3374.667,1329.7a1.09,1.09,0,0,1-.47-.107,1.083,1.083,0,0,1-.5-1.445,32.29,32.29,0,0,1,21.941-17.5,1.079,1.079,0,0,1,1.3.812,1.081,1.081,0,0,1-.812,1.3,30.542,30.542,0,0,0-20.478,16.335A1.081,1.081,0,0,1-3374.667,1329.7Z" transform="translate(3386.352 -1302.188)" fill="#7cb342"/>
      <path id="Trazado_4031" data-name="Trazado 4031" d="M-3299.391,1328.77a1.08,1.08,0,0,1-.958-.578,30.242,30.242,0,0,0-20.12-15.468,1.083,1.083,0,0,1-.816-1.294,1.083,1.083,0,0,1,1.294-.816,32.4,32.4,0,0,1,21.556,16.572,1.079,1.079,0,0,1-.454,1.459A1.072,1.072,0,0,1-3299.391,1328.77Z" transform="translate(3367.099 -1302.177)" fill="#7cb342"/>
      <path id="Trazado_4032" data-name="Trazado 4032" d="M-3330.969,1367.011a1.081,1.081,0,0,1-1.082-1.081v-30.146a1.082,1.082,0,0,1,1.082-1.082,1.082,1.082,0,0,1,1.082,1.082v30.146A1.081,1.081,0,0,1-3330.969,1367.011Z" transform="translate(3370.897 -1310.706)" fill="#7cb342"/>
    </g>
  </g>
</svg>
