<svg xmlns="http://www.w3.org/2000/svg" width="121" height="121" viewBox="0 0 121 121">
  <g id="Grupo_10328" data-name="Grupo 10328" transform="translate(-145 -4889)">
    <g id="Grupo_10094" data-name="Grupo 10094" transform="translate(2406 8796)">
      <circle id="Elipse_497" data-name="Elipse 497" cx="60.5" cy="60.5" r="60.5" transform="translate(-2261 -3907)" fill="#7cb342"/>
      <path id="Trazado_1178" data-name="Trazado 1178" d="M53.993,0A53.993,53.993,0,1,1,0,53.993,53.993,53.993,0,0,1,53.993,0Z" transform="translate(-2254 -3900)" fill="#fff"/>
    </g>
    <g id="Grupo_10237" data-name="Grupo 10237" transform="translate(180 4917)">
      <g id="Grupo_10230" data-name="Grupo 10230" transform="translate(16.784 16.678)">
        <path id="Trazado_4006" data-name="Trazado 4006" d="M-3326.621,1898.259h-16.161a.982.982,0,0,1-.981-.981c0-4.383,2.667-7.216,6.793-7.216h4.538c4.125,0,6.792,2.832,6.792,7.216A.981.981,0,0,1-3326.621,1898.259Zm-15.122-1.962h14.082a4.477,4.477,0,0,0-4.772-4.272h-4.538A4.477,4.477,0,0,0-3341.742,1896.3Z" transform="translate(3343.763 -1878.533)" fill="#7cb342"/>
        <path id="Trazado_4007" data-name="Trazado 4007" d="M-3332.053,1882.1c-2.555,0-4.271-1.984-4.271-4.937s1.716-4.937,4.271-4.937,4.272,1.983,4.272,4.937S-3329.5,1882.1-3332.053,1882.1Zm0-7.911c-2.143,0-2.309,2.276-2.309,2.974s.166,2.974,2.309,2.974,2.309-2.276,2.309-2.974S-3329.911,1874.187-3332.053,1874.187Z" transform="translate(3341.132 -1872.225)" fill="#7cb342"/>
      </g>
      <g id="Grupo_10231" data-name="Grupo 10231" transform="translate(0 0)">
        <path id="Trazado_4008" data-name="Trazado 4008" d="M-3321.918,1912.708h-39.243a.981.981,0,0,1-.981-.98v-46.11a.981.981,0,0,1,.981-.981h3.924a.981.981,0,0,1,.981.981.981.981,0,0,1-.981.981h-2.943v44.148h37.28V1866.6h-2.943a.981.981,0,0,1-.981-.981.981.981,0,0,1,.981-.981h3.925a.981.981,0,0,1,.98.981v46.11A.98.98,0,0,1-3321.918,1912.708Z" transform="translate(3367.047 -1852.863)" fill="#002b45"/>
        <path id="Trazado_4009" data-name="Trazado 4009" d="M-3319.7,1914.929h-49.053a.981.981,0,0,1-.981-.981v-55.921a.981.981,0,0,1,.981-.981h13.735a.981.981,0,0,1,.981.981.981.981,0,0,1-.981.981h-12.754v53.958h47.091v-53.958h-12.754a.98.98,0,0,1-.981-.981.981.981,0,0,1,.981-.981h13.735a.981.981,0,0,1,.981.981v55.921A.981.981,0,0,1-3319.7,1914.929Z" transform="translate(3369.731 -1850.179)" fill="#002b45"/>
        <path id="Trazado_4010" data-name="Trazado 4010" d="M-3325.916,1860.156H-3347.5a.981.981,0,0,1-.981-.981v-8.829a.981.981,0,0,1,.981-.981h6.31a4.895,4.895,0,0,1,4.482-2.943,4.893,4.893,0,0,1,4.481,2.943h6.31a.981.981,0,0,1,.98.981v8.829A.981.981,0,0,1-3325.916,1860.156Zm-20.6-1.962h19.622v-6.867h-6.026a.981.981,0,0,1-.949-.736,2.935,2.935,0,0,0-2.835-2.208,2.934,2.934,0,0,0-2.835,2.208.982.982,0,0,1-.95.736h-6.025Z" transform="translate(3362.215 -1846.421)" fill="#002b45"/>
      </g>
      <g id="Grupo_10236" data-name="Grupo 10236" transform="translate(11.282 40.02)">
        <g id="Grupo_10233" data-name="Grupo 10233">
          <g id="Grupo_10232" data-name="Grupo 10232" transform="translate(9.075 1.675)">
            <path id="Trazado_4011" data-name="Trazado 4011" d="M-3320.576,1912.894h-16.678a.981.981,0,0,1-.981-.981.98.98,0,0,1,.981-.98h16.678a.981.981,0,0,1,.981.98A.981.981,0,0,1-3320.576,1912.894Z" transform="translate(3338.235 -1910.932)" fill="#002b45"/>
          </g>
          <path id="Trazado_4012" data-name="Trazado 4012" d="M-3349.64,1913.939a.982.982,0,0,1-.707-.3l-1.655-1.717a.981.981,0,0,1,.026-1.387.981.981,0,0,1,1.387.026l.848.879,1.989-2.7a.983.983,0,0,1,1.372-.208.981.981,0,0,1,.208,1.371l-2.679,3.638a.979.979,0,0,1-.725.4Z" transform="translate(3352.276 -1908.34)" fill="#7cb342"/>
        </g>
        <g id="Grupo_10235" data-name="Grupo 10235" transform="translate(0 8.338)">
          <g id="Grupo_10234" data-name="Grupo 10234" transform="translate(9.075 1.676)">
            <path id="Trazado_4013" data-name="Trazado 4013" d="M-3320.576,1925.8h-16.678a.981.981,0,0,1-.981-.981.98.98,0,0,1,.981-.98h16.678a.981.981,0,0,1,.981.98A.981.981,0,0,1-3320.576,1925.8Z" transform="translate(3338.235 -1923.834)" fill="#002b45"/>
          </g>
          <path id="Trazado_4014" data-name="Trazado 4014" d="M-3349.64,1926.841a.982.982,0,0,1-.707-.3l-1.655-1.717a.981.981,0,0,1,.026-1.387.982.982,0,0,1,1.387.026l.848.88,1.989-2.7a.982.982,0,0,1,1.372-.208.981.981,0,0,1,.208,1.372l-2.679,3.638a.978.978,0,0,1-.725.4Z" transform="translate(3352.276 -1921.241)" fill="#7cb342"/>
        </g>
      </g>
    </g>
  </g>
</svg>
