<svg xmlns="http://www.w3.org/2000/svg" width="324.633" height="258.437" viewBox="0 0 324.633 258.437">
  <g id="Grupo_10119" data-name="Grupo 10119" transform="translate(-1050.478 -1711.392)">
    <path id="Trazado_2843" data-name="Trazado 2843" d="M2341.8,2625.115a31.046,31.046,0,0,1-6.8-.134q0-.763-.1-2.361a16.755,16.755,0,0,1,.325-3.722q.078-.432.17-.9.608-3.01,1.67-7.578h1.578q-.062,1.392-.083,2.773-.031,1.887-.093,3.8-.025.905-.062,1.8-.041.921-.093,1.835a17.143,17.143,0,0,1-.371,2.505,26.018,26.018,0,0,0,9.4-1.062.631.631,0,0,1,.031.1.481.481,0,0,1,0,.2,15.837,15.837,0,0,0-.237,1.876A33.382,33.382,0,0,1,2341.8,2625.115Zm-3.763,15.794a29.907,29.907,0,0,1-.082,3.145q-.035.472-.052,1.036-.04,1.266.01,2.995a22.548,22.548,0,0,0,1.84,6.763q.15.384.314.784,2.082,5.052,7.155,4.021a2.954,2.954,0,0,0,1.031-.392l-.422.928q-.073.122-.149.242-.275.442-.583.871a.785.785,0,0,1-.32.278,8.339,8.339,0,0,1-2.578.763,36.4,36.4,0,0,1-3.959.34,14.654,14.654,0,0,1-3.041-2.9,12.793,12.793,0,0,1-2.17-4.279,14.516,14.516,0,0,1-.407-1.871,18.46,18.46,0,0,1,.01-5.536q.107-.716.186-1.433a36.367,36.367,0,0,0-.227-9.619,5.091,5.091,0,0,1-.052-.856l2.66.052A22.811,22.811,0,0,1,2338.035,2640.909Zm-16.733,8.5a35.07,35.07,0,0,0,7.377-.758q-.177.87-.345,1.738-.144.773-.32,1.557a16.943,16.943,0,0,0-.428,4.17q-4,.211-8.4.211a115.826,115.826,0,0,1-24.486-2.227q-10.135-2.227-10.135-5.392t10.135-5.382q2.777-.613,5.872-1.057A32.1,32.1,0,0,0,2321.3,2649.4Zm27.125,3.042q-.412-2.114-.887-4.217a35.928,35.928,0,0,1-.649-3.98c0-.042-.01-.085-.016-.129q6.933,1.974,6.934,4.583,0,2.292-5.315,4.093C2348.473,2652.679,2348.45,2652.563,2348.427,2652.446Z" transform="translate(-979.626 -713.654)" fill="#1d1d1b" fill-rule="evenodd" opacity="0.1"/>
    <path id="Trazado_2844" data-name="Trazado 2844" d="M1641.024,2235.025a34.8,34.8,0,0,0,.046-4.717q-.289-3.918-2.423-14.939-2.1-11.032-1.691-13.877a66.021,66.021,0,0,1,2.815-9.99,64.9,64.9,0,0,0,2.752-9.578,26.052,26.052,0,0,0,.217-5.5,40.638,40.638,0,0,0-2.062-10.124q-.227-.68-.484-1.361-.229-.642-.474-1.278a51.742,51.742,0,0,0-8.722-13.486,4.8,4.8,0,0,0,.665.026,54.567,54.567,0,0,0,15.15,11.8q8.608,3.681,10.794-.588,1.783-3.574-1.428-7.938l-.279-1.108,3.748,1.139v-.005l1.366.5,2.335.856q.485.289.938.608a26.923,26.923,0,0,1,7.217,7.279q.189.285.371.572.254.405.495.819.516.939,1,1.907a37.159,37.159,0,0,1,3.3,9.866q.138.826.258,1.655.274,1.9.453,3.809a65.236,65.236,0,0,1,.165,6.753q-.134,3.464-.32,7.083v.618a235.793,235.793,0,0,1-6.928,46.343l-.505.17-.01.005a41.332,41.332,0,0,0-18.857,2.134,48.217,48.217,0,0,1-10.671-2.371Q1640.825,2238.039,1641.024,2235.025Zm-13.321-58.6a29.337,29.337,0,0,0-.376-4.206,32.568,32.568,0,0,0-4.041-10.764,100.628,100.628,0,0,0-7.4-10.583l-.217-.278q.11-.105.217-.211a12.549,12.549,0,0,0,3.6-9.289q4.268,3.865,8.784,7.485a1.812,1.812,0,0,1,.32.392q6.856,8.732,7.66,18.042a10.881,10.881,0,0,1-3.68,9.413,19.217,19.217,0,0,1-3.588,2.588q-.649.289-1.33.516Q1627.737,2177.919,1627.7,2176.429Z" transform="translate(-448.649 -341.102)" fill="#8ec2ff" fill-rule="evenodd"/>
    <path id="Trazado_2845" data-name="Trazado 2845" d="M1617.995,2247.918q2.2-3.134,1.485-5.66a58.713,58.713,0,0,0-2.649-10.279q-.8-2.268-4.042-9.928-5.175-12.743-5.371-20.6,5.021,4.846,13.681,2.907.68-.227,1.33-.515a19.228,19.228,0,0,0,3.588-2.588,10.881,10.881,0,0,0,3.68-9.413q-.8-9.31-7.66-18.042a3.794,3.794,0,0,0,2.412,1.206,51.744,51.744,0,0,1,8.722,13.485q.245.637.474,1.279.258.68.484,1.361a40.635,40.635,0,0,1,2.062,10.124,26.033,26.033,0,0,1-.217,5.5,64.891,64.891,0,0,1-2.752,9.578,66.038,66.038,0,0,0-2.815,9.99q-.412,2.845,1.691,13.877,2.134,11.021,2.423,14.939a34.839,34.839,0,0,1-.046,4.717q-.2,3.013-.768,7.088-13.186-6.371-15.423-9.475-2.174-3-2.913-4.15l-.057-.088Q1615.407,2251.475,1617.995,2247.918Zm55.488-54.168q-.454,1.423-.866,2.753a.679.679,0,0,1-.031-.2q-.845,2.578-2.206,6.088-.12-.829-.258-1.655a37.15,37.15,0,0,0-3.3-9.866q-.485-.969-1-1.907-.241-.414-.495-.82l.856-1.541q.639-1.165,1.454-2.588,4.312-7.357,6.48-11.645a19.6,19.6,0,0,1,4.9,7.284A124.512,124.512,0,0,0,1673.482,2193.75Z" transform="translate(-442.1 -365.928)" fill="#367dd1" fill-rule="evenodd"/>
    <path id="Trazado_2846" data-name="Trazado 2846" d="M1359.391,1784.252q-1.031-2.237-2.041-4.526a5.417,5.417,0,0,0,.557-.057,6.669,6.669,0,0,0,.933-.217,26.075,26.075,0,0,1-.191-7.655,20.626,20.626,0,0,0,0-6.691,12.1,12.1,0,0,0-.835-2.722l-.041-.031a22.686,22.686,0,0,0-.577-5.33,11.3,11.3,0,0,1-.062-5.4q1.515-1.3,2.32.608a17.877,17.877,0,0,0,1.619,2.949q.1-.165.2-.33.258.619.546,1.361,1.784,3.846,4.114,3.66a4.533,4.533,0,0,0,.062,1.062q.32,4.784,1,14.393-.005.117-.016.232,6.075,6.974,12.439,13.965a117.491,117.491,0,0,1,13.032,17.145,105.041,105.041,0,0,0,13.64,17.228q2.136,2.172,4.341,4.273,1.776,1.7,3.6,3.346a12.549,12.549,0,0,1-3.6,9.289q-.107.106-.217.211-2.5-3.81-14.331-10.635t-30.687-33.976Q1362.194,1790.376,1359.391,1784.252ZM1475.9,1938.415a24.706,24.706,0,0,1,1.876,4.361,8.406,8.406,0,0,0-.835-.8q-10.774-9.455-43.982,1.876-.825.279-1.66.577a24.91,24.91,0,0,1,1.66-4.165q3.487-1.685,6.5-3.005.712-.312,1.4-.6.474-.186.948-.392a3.724,3.724,0,0,1,.639-.237q1.52-.615,3.021-1.124a41.334,41.334,0,0,1,18.857-2.134h.01l.433.052,3.629.423Q1474.222,1935.043,1475.9,1938.415Zm32.713-11.331q5.279-2.186,7.2-3.165a23.718,23.718,0,0,0,6.289-4.67,18.313,18.313,0,0,1,7.629-.382,10.329,10.329,0,0,1,5.65,2.629,36.282,36.282,0,0,0-12.815,4.567,115.706,115.706,0,0,0-16.712,11.743,26.19,26.19,0,0,0-5.206,6.083,54.973,54.973,0,0,1-14.526,15.393q-3.7,2.668-7.49,5.237-1.423.969-2.861,1.923-3.166,2.1-6.392,4.14a6.463,6.463,0,0,0-1.743-.9,4.112,4.112,0,0,0-.886-.175h-.062a3.009,3.009,0,0,0-1.34.175,3.064,3.064,0,0,0-.433.2l2.609-1.639,2.969-1.691a6.937,6.937,0,0,1,.773-.268q.143-.054.283-.113l.047-.021a.254.254,0,0,1,.113-.031.651.651,0,0,0,.155-.072q.443-.2.846-.33a11.681,11.681,0,0,0,2.907-1.727,7.689,7.689,0,0,0,2.278-3.088,54.043,54.043,0,0,0,9.64-12.073q5.217-8.939,8.176-13.176a14.888,14.888,0,0,1,2.093-2.289A37.11,37.11,0,0,1,1508.616,1927.084Zm-33.4-89.133,0,.01q-4.741-4.257-12.305-3.975a91.966,91.966,0,0,0,5.887-9.99q1.588-3.464,3.588-7.6a58.519,58.519,0,0,0,3.041-7.475q1.547-3.464,2.753-6.145,2.876-6.433,3.784-8.31,3.845-8.279,6.949-13.712-.165-9.639-.258-14.454a4.309,4.309,0,0,0,0-1.031q2.33-.041,3.783-4.01.227-.784.423-1.423a3.79,3.79,0,0,0,.217.32,19.933,19.933,0,0,0,1.33-3.1q.65-1.938,2.268-.814a11.542,11.542,0,0,1,.412,5.4,23.581,23.581,0,0,0-.124,5.371l-.031.031a12.731,12.731,0,0,0-.587,2.784,20.091,20.091,0,0,0,.587,6.66,26.877,26.877,0,0,1,.423,8.279.371.371,0,0,1-.041.289,2.3,2.3,0,0,0,.2.227q-.155,2.33-.32,4.629-.2,3.33-.33,6.691-.062,2.361-.351,4.691-.361,3.1-1,6.083Q1488.075,1815.888,1475.212,1837.951Zm-49.786-26.79q1.392-1.814,2.516-3.01,6.279-6.6,19.568-4.526a.637.637,0,0,1,.288.062,6.963,6.963,0,0,1,.784,1q4.041,5.145,4.33,13.454a44.4,44.4,0,0,1-.49,7.3c0,.024-.007.048-.01.072l-1.376,6.536-1.165-.031-5.011.412a61.326,61.326,0,0,1-6.464.588q-7.382.093-9.9-5.887a5.552,5.552,0,0,1-2.65.742,15.869,15.869,0,0,1-2.722-.031,13.634,13.634,0,0,1-2.031-2.4,5.132,5.132,0,0,1-.711-4.969,2.373,2.373,0,0,1,3,.907q1.227,1.515,2.361.608a29.751,29.751,0,0,0,.711-6.98,3.728,3.728,0,0,1-.031-.423,14.127,14.127,0,0,0-.577-2.526A4.395,4.395,0,0,0,1425.426,1811.161Zm-2.366,14.279q.374.31.84.629,1.862.412,1.948-.423a.338.338,0,0,0-.057-.206,8.011,8.011,0,0,0-1.273-1.443,5.237,5.237,0,0,0-2.815-1.815l-.031-.165a1.686,1.686,0,0,0-.2.711Q1421.29,1823.986,1423.06,1825.44Z" transform="translate(-243.191 -31.517)" fill="#ffaa83" fill-rule="evenodd"/>
    <path id="Trazado_2847" data-name="Trazado 2847" d="M1647.391,2598.524a65.93,65.93,0,0,0-16.248-7.536,7.738,7.738,0,0,1-4.176-3.052l2.49-6.83q8.294,10.959,24.434,14.413Q1650.878,2596.839,1647.391,2598.524Zm62.746-4.608q-2.959,4.237-8.176,13.176a54.035,54.035,0,0,1-9.64,12.073q-.773-4.031-.773-4.269a9.333,9.333,0,0,1,.268-4.309,14.981,14.981,0,0,0,.6-2.309,17.221,17.221,0,0,0-.206-7.238,24.7,24.7,0,0,0-1.877-4.361q-1.681-3.372-7.505-5.176a110.987,110.987,0,0,1,11.712-5.557,82.526,82.526,0,0,1,11.692-3.526q5.464-1.216,11.145-2.072-5.835,4.98-5.145,11.279A14.858,14.858,0,0,0,1710.136,2593.916Zm-31.342,34.569a12.994,12.994,0,0,1-1.145.639,2.81,2.81,0,0,0-.773-.165,27.36,27.36,0,0,1-4.815-1.454,34.244,34.244,0,0,0-3.319-1.114l-.031-.031a7.946,7.946,0,0,0-1.247-.33q.723-.946,1.547-1.928.435-.515.9-1.042a.35.35,0,0,0,.083-.093q1.734-1.938,3.3-3.67,2.326-2.56,4.294-4.67-.237.4-.639,1.144a6.067,6.067,0,0,0-.536,3.8c.011.094.023.187.036.278a6.987,6.987,0,0,0,1.531,3.547q.321.377.711.753a17.422,17.422,0,0,0,3.258,2.35l-2.609,1.639A3.437,3.437,0,0,0,1678.795,2628.485Zm-16.341,18.454-1.011-1.145a6.731,6.731,0,0,1-.6-2.144,37.686,37.686,0,0,0-.144-5.99v-.268a34.028,34.028,0,0,1-5.887,2.361,19.206,19.206,0,0,0,4.577-2.536,7,7,0,0,0,1.278-1.041v-1.949q.382-4.567,2.093-6.691l.062-.062a.67.67,0,0,1,.062-.1.477.477,0,0,1,.114-.072.359.359,0,0,1,.062-.093,4.16,4.16,0,0,1,3.866-1.32q-.1.237-.227.474-.268.536-.588,1.144-.3.6-.536,1.186a23.007,23.007,0,0,0-1.8,6.917q-.031.743-.082,1.516-.062,2.155.35,8.908,0,.757-.057,1.433c-.005.051-.01.1-.016.155a3.989,3.989,0,0,1-.619-.175A3.365,3.365,0,0,1,1662.454,2646.939Z" transform="translate(-457.619 -689.78)" fill="#061e5d" fill-rule="evenodd"/>
    <path id="Trazado_2848" data-name="Trazado 2848" d="M1719.458,2161.406a7.717,7.717,0,0,0-1.309-1.289q3.226-2.036,6.392-4.14,1.438-.954,2.861-1.923,3.789-2.569,7.49-5.237a54.973,54.973,0,0,0,14.526-15.393,26.194,26.194,0,0,1,5.207-6.083,115.708,115.708,0,0,1,16.712-11.743,36.28,36.28,0,0,1,12.815-4.567,8.154,8.154,0,0,1,.907,1.01,9.94,9.94,0,0,1,2.629,5.176,18.111,18.111,0,0,1-9.392,10.424,86.559,86.559,0,0,0-17.1,10.9,109.012,109.012,0,0,1-16.578,10.99,93.539,93.539,0,0,0-9.557,5.877q-1,.7-1.979,1.423-2.539,1.879-4.969,3.938a23.941,23.941,0,0,1-7.031,3.928A6.305,6.305,0,0,0,1719.458,2161.406Zm-18.908-123.79q.4,3.779-2.928,4.7-5.147.777-12.011-4.32l-.016-.016a19.151,19.151,0,0,1,2.438-7.315,14.242,14.242,0,0,1,1.33-1.227q1.907-1.392,7.918-2.361.309-.051.588-.108l1.345,5.351.279,1.108Zm-1.062-15.867-.845-.2,1.165.031Zm-18.238-30.208a22.673,22.673,0,0,1,6.722-1.619,9.906,9.906,0,0,1,7.99,2.619l.093.093a7.6,7.6,0,0,1,.516.588.637.637,0,0,0-.288-.062q-13.289-2.072-19.568,4.526-1.123,1.2-2.516,3.01a7.318,7.318,0,0,0-1.753-2.33A21.353,21.353,0,0,1,1681.25,1991.542Zm-10.8,20.011.031.165a5.236,5.236,0,0,1,2.815,1.815,8.009,8.009,0,0,1,1.273,1.443.338.338,0,0,1,.057.206q-.086.835-1.948.423-.466-.319-.84-.629-1.77-1.454-1.583-2.711A1.686,1.686,0,0,1,1670.445,2011.553Zm48.745,135.522V2146a27.889,27.889,0,0,1,.34-5.381,3.98,3.98,0,0,0-1.237-3.794,4.568,4.568,0,0,0-3.464-1.381,8.743,8.743,0,0,0-4.145,1.773q-2.278,1.65-9.815,8.516-1.8,1.643-3.4,3.041-1.867,1.63-3.464,2.928-1.959,1.588-3.516,2.67a16.554,16.554,0,0,1-8.753-5.835,21.894,21.894,0,0,1-1.258-2.758,18.415,18.415,0,0,1-.4-11.82q.835-.3,1.66-.578,33.208-11.33,43.981-1.876a8.393,8.393,0,0,1,.835.8,17.221,17.221,0,0,1,.206,7.238,14.988,14.988,0,0,1-.6,2.309,9.333,9.333,0,0,0-.268,4.309q0,.238.773,4.269Q1719.458,2154.014,1719.19,2147.076Z" transform="translate(-491.963 -221.053)" fill="#ed9870" fill-rule="evenodd"/>
    <path id="Trazado_2849" data-name="Trazado 2849" d="M1326.706,1737.163a5.05,5.05,0,0,0,.423-1.423.384.384,0,0,0,.062-.2q.32-1.907.516-2.907.711-3.371,3.206-3.34-.2,5.372.258,13.269-2.33.185-4.114-3.66-.288-.742-.546-1.361Q1326.613,1737.359,1326.706,1737.163Zm-6.207,22.372a7.8,7.8,0,0,1-2.237-4.65q-.093-1.557-2.712-1.753-2.587-.155-2.495-1.773.526-1.134,2.876-.938,2.237.2,3.072-.814a2.225,2.225,0,0,0,.712-2.134,5.774,5.774,0,0,0-1.32-1.938,7.869,7.869,0,0,1-1.484-1.907,1.623,1.623,0,0,1,.639-2q1.423-.484,2.876,1.289,1.722,2.134,2.629,2.33v-.165a12.117,12.117,0,0,1,.835,2.722,20.625,20.625,0,0,1,0,6.691,26.085,26.085,0,0,0,.191,7.655,6.646,6.646,0,0,1-.933.216Q1321.409,1760.579,1320.5,1759.536Zm35.693,61.065q-6.372-9.155-12.547-18.434a174.69,174.69,0,0,1-10.959-18.6q-1.141-2.228-2.253-4.469,18.853,27.151,30.687,33.976t14.331,10.635q-4.154,3.989-12.825,5.49Q1359.233,1824.992,1356.192,1820.6Zm86.705,137.491a36.288,36.288,0,0,1-6.227,2.99,3.307,3.307,0,0,0,.907-3.165.089.089,0,0,0-.031-.062,23.952,23.952,0,0,0,7.031-3.928q2.431-2.059,4.969-3.938.98-.725,1.98-1.423a93.537,93.537,0,0,1,9.557-5.877,109.013,109.013,0,0,0,16.578-10.99,86.58,86.58,0,0,1,17.1-10.9,18.11,18.11,0,0,0,9.392-10.423,12.9,12.9,0,0,1-.165,4.938,12.258,12.258,0,0,1-6.124,8.578,124.826,124.826,0,0,0-12.949,8.278q-.1.093-12.31,9.207-3.35,2.186-6.186,4.1l-3.052,1.918q-.835.474-1.629.938-1.289.753-2.443,1.474l-.176.093-2.314,1.186q-4.6,2.374-5.655,2.969l-2.01.866A49.855,49.855,0,0,0,1442.9,1958.092Zm26.249-53.456q5.887-.887,11.8-1.454,3.3-.608,6.392-1.237a23.709,23.709,0,0,1-6.289,4.67q-1.918.98-7.2,3.165a37.1,37.1,0,0,0-10.815,6.279q-.69-6.3,5.145-11.279Zm-6.6-136.883a.372.372,0,0,0,.041-.289,26.88,26.88,0,0,0-.423-8.279,20.091,20.091,0,0,1-.588-6.66,12.748,12.748,0,0,1,.588-2.784.524.524,0,0,1,.031.165q.876-.257,2.423-2.557,1.3-1.876,2.753-1.516a1.6,1.6,0,0,1,.773,1.907,8,8,0,0,1-1.258,2.031,6,6,0,0,0-1.165,2.072q-.2,1.031,1.258,1.65.546,1.361,2.753.969,2.33-.423,2.938.65.258,1.619-2.33,2-2.547.423-2.516,1.979a7.859,7.859,0,0,1-1.845,4.845q-1,1.361-3.237,4.042A2.261,2.261,0,0,1,1462.548,1767.752Zm-1.774,22.383q-2.2,12.578-7.959,20.661-.454,1.227-7.465,17.145a19.593,19.593,0,0,0-4.9-7.284l.005-.01q12.863-22.063,20.29-30.574Zm-7.794-55.436q2.485-.216,3.5,3.072.257.98.773,2.815a.348.348,0,0,0,.062.2,4.263,4.263,0,0,0,.557,1.392l.227.361q-.2.639-.423,1.423-1.454,3.97-3.783,4.011Q1453.63,1740.04,1452.98,1734.7Zm-60.8,88.52q2.515-.742-.093-5.371a12.911,12.911,0,0,1-1.815-3.722,10.725,10.725,0,0,0-1.907-3.588,15.88,15.88,0,0,0,2.722.031,5.555,5.555,0,0,0,2.65-.742q2.515,5.98,9.9,5.887a61.352,61.352,0,0,0,6.464-.588l5.011-.412.845.2q-.124.082-.258.165a3.366,3.366,0,0,0-1.479,4.588l.118.469q-.279.057-.588.108-6.01.969-7.918,2.361a14.3,14.3,0,0,0-1.33,1.227,19.154,19.154,0,0,0-2.438,7.315l-9.882-7.861Zm37.321,125.367q-.391-.376-.711-.753a6.987,6.987,0,0,1-1.531-3.547q-.02-.138-.036-.278a6.066,6.066,0,0,1,.536-3.8q.4-.742.639-1.144-1.968,2.11-4.294,4.67-1.57,1.733-3.3,3.671a.346.346,0,0,1-.083.093q-8,1.65-13.764.041,1.557-1.083,3.516-2.67,1.6-1.3,3.464-2.928,1.6-1.4,3.4-3.041,7.536-6.867,9.815-8.516a8.743,8.743,0,0,1,4.145-1.773,4.568,4.568,0,0,1,3.464,1.381,3.98,3.98,0,0,1,1.237,3.794,27.909,27.909,0,0,0-.34,5.381v1.073q.269,6.938,7.475,3.361a7.692,7.692,0,0,1-2.278,3.088,11.685,11.685,0,0,1-2.907,1.727q-.4.134-.846.33a.65.65,0,0,1-.155.072.253.253,0,0,0-.113.031l-.047.02q-.141.06-.284.113a6.937,6.937,0,0,0-.773.268l-2.969,1.691A17.418,17.418,0,0,1,1429.5,1948.587Z" transform="translate(-208.433 -14.213)" fill="#e1825f" fill-rule="evenodd"/>
    <path id="Trazado_2850" data-name="Trazado 2850" d="M1613.774,2704a9.752,9.752,0,0,0,.578,3.773.736.736,0,0,1,.093.2l.309.237a26.53,26.53,0,0,0,11.66,4.876,33.908,33.908,0,0,0,3.629.433q1.247.062,2.536.062a21.179,21.179,0,0,0,10.351-2.748q.794-.437,1.578-.943.546-.351,1.154-.773a16.554,16.554,0,0,1-8.753-5.835,21.894,21.894,0,0,1-1.258-2.758,18.415,18.415,0,0,1-.4-11.82q-4.392,1.536-9.165,3.433-3.464,1.382-7.165,2.959l-.681.6a13.07,13.07,0,0,0-4.448,8.2C1613.784,2703.925,1613.779,2703.961,1613.774,2704Z" transform="translate(-447.138 -775.789)" fill="#193c96" fill-rule="evenodd"/>
    <path id="Trazado_2851" data-name="Trazado 2851" d="M1606.855,2633.561a98.186,98.186,0,0,1,3.887-16.413,7.738,7.738,0,0,0,4.175,3.052,65.921,65.921,0,0,1,16.249,7.537,123.044,123.044,0,0,0-15.393,8.681q-1.33.887-2.6,1.876l-.681.6a13.069,13.069,0,0,0-4.448,8.2c-.005.035-.011.072-.016.108-.011-.033-.021-.066-.031-.1A29.178,29.178,0,0,1,1606.855,2633.561Zm46.827,18.712q-.462.526-.9,1.042-.824.982-1.546,1.928a2.059,2.059,0,0,0-.536-.144,4.16,4.16,0,0,0-3.866,1.32.349.349,0,0,0-.062.093.468.468,0,0,0-.113.072.7.7,0,0,0-.062.1l-.062.062q-1.711,2.124-2.093,6.691v1.948a6.974,6.974,0,0,1-1.278,1.041,19.179,19.179,0,0,1-4.577,2.536,34.046,34.046,0,0,0,5.887-2.361v.268a21.505,21.505,0,0,1-14.289,3.093,20.356,20.356,0,0,1-12.228-4.845,26.6,26.6,0,0,1-5.794-6.733,40.193,40.193,0,0,1-3.464-7.217l.309.238a28.75,28.75,0,0,0,3.495,2.186,28.456,28.456,0,0,0,8.165,2.691,33.973,33.973,0,0,0,3.629.433q1.247.062,2.536.062a21.177,21.177,0,0,0,10.351-2.748q.793-.437,1.578-.943.546-.35,1.154-.773Q1645.681,2653.923,1653.682,2652.273Z" transform="translate(-441.393 -718.992)" fill="#0d2a77" fill-rule="evenodd"/>
    <path id="Trazado_2852" data-name="Trazado 2852" d="M1863.837,2539.441l3.052-1.918q2.835-1.917,6.186-4.1,5.176,1.887,5.722,2.186a6.383,6.383,0,0,1,3.279,3.588,11.7,11.7,0,0,0-1.619.227q-.185.041-1.722.557a26.833,26.833,0,0,1-7.732.8,73.811,73.811,0,0,1-8.795-.4Q1863,2539.915,1863.837,2539.441Zm-30.971,11.835q-1.753,1.815-6.866,1.815-6.041,0-7.794-2.423a2.977,2.977,0,0,1-.578-2.588,9.786,9.786,0,0,1,.846-3.423,13.019,13.019,0,0,0,.711-2.062,4.236,4.236,0,0,1,.8.237l.031.031a34.2,34.2,0,0,1,3.32,1.114,27.356,27.356,0,0,0,4.815,1.453,2.82,2.82,0,0,1,.773.165,6.08,6.08,0,0,1,3.021,2.887,11.766,11.766,0,0,1,1.155,2.526A2.75,2.75,0,0,1,1832.867,2551.276Zm94.036-66.369a32.2,32.2,0,0,1,17.372-9.248,36,36,0,0,1,6.3-.536h.443q.7,0,1.412.031.526.021,1.052.083a31.96,31.96,0,0,1,13,3.794l3.505,2.237a.287.287,0,0,1,.062.051.233.233,0,0,0,.062.041.254.254,0,0,0,.093.072.323.323,0,0,1,.083.062.5.5,0,0,1,.072.062.707.707,0,0,1,.114.093l.124.083.072.052a.724.724,0,0,0,.1.083,34.441,34.441,0,0,1,3.444,3.041,32.127,32.127,0,0,1,9.753,21.939,38.221,38.221,0,0,1-9.258,3.516q-.7-1.536-1.423-3.072-1.175-2.485-2.33-4.969l.938-.485-.505-.443-.052-3.546v-.31a1.122,1.122,0,0,0-.4-.186,8.347,8.347,0,0,0-2.371-.423,12.225,12.225,0,0,0-4.99.516l-.031.268-.124,3.794-.382.319.866.526q-.124.278-.258.557-.846,1.815-1.7,3.66l-1.753,3.814q-.194.427-.387.851a39.539,39.539,0,0,1-24.2-11.769,40.75,40.75,0,0,1-9.279-13.959Q1926.614,2485.2,1926.9,2484.907Z" transform="translate(-608.897 -606.253)" fill="#ffdb59" fill-rule="evenodd"/>
    <path id="Trazado_2853" data-name="Trazado 2853" d="M1108.326,1940.188q4.32-.02,6.3,2.712a6.569,6.569,0,0,1,1.3,3.959,2.448,2.448,0,0,1-1.01,2.144,10.654,10.654,0,0,1-4.825,1.227h-57.3a3.17,3.17,0,0,1-1.773-1.773,4.142,4.142,0,0,1-.536-1.536,8.441,8.441,0,0,1,.68-2.227,20.36,20.36,0,0,1,2.3-4.248q4.237-5.969,10.877-5.969a12.9,12.9,0,0,1,1.753.247q1.526.3,2.031.392,1.021-1.866,2.247-4.041t5.2-4.65a10.779,10.779,0,0,1,9.114-.948q5.176,1.5,7.454,4.382a30.511,30.511,0,0,0,4.165,4.464,6.481,6.481,0,0,0,1.9-.412,9.047,9.047,0,0,1,2.918-.423q5.248,0,6.7,2.938a5.539,5.539,0,0,1,.526,2.258A12.291,12.291,0,0,1,1108.326,1940.188Z" transform="translate(0 -169.483)" fill="#fff" fill-rule="evenodd"/>
    <path id="Trazado_2854" data-name="Trazado 2854" d="M1159.092,2155.9q9.753,1.4,14.784,8.609a23.4,23.4,0,0,1,4.031,11.31q10.361.134,14.939,6.4a14.439,14.439,0,0,1,2.866,8.732,10.518,10.518,0,0,1-.309,3.1q-.876,2.413-3.99,2.846h-89.53a4.988,4.988,0,0,1-4.32-3.165,11.386,11.386,0,0,1-.526-3.928,8.69,8.69,0,0,1,.815-4.114q1.856-3.938,7.031-3.938a20.228,20.228,0,0,1,3.155.546,20.623,20.623,0,0,0,3.175.547q.783,0,1.227-1.856a17.666,17.666,0,0,1,3.567-6.763q2.732-3.361,5.5-3.794a8.442,8.442,0,0,1,5.031.639,13.718,13.718,0,0,1,2.846,1.6,3.325,3.325,0,0,0,1.206.629,40.139,40.139,0,0,0,3.794-5.228,42.849,42.849,0,0,1,4.928-6.392Q1146.73,2154.167,1159.092,2155.9Z" transform="translate(-36.95 -352.594)" fill="#fff" fill-rule="evenodd"/>
    <path id="Trazado_2855" data-name="Trazado 2855" d="M1583.23,1720.126a4.352,4.352,0,0,1,2.546-.557,5.671,5.671,0,0,1,3.526,1.907q.619.7,1.268,1.371a3.606,3.606,0,0,1,.65,4.639,6.068,6.068,0,0,1-4.237,3.124,59.823,59.823,0,0,1-10.6.526q-7.763-.062-14.723-.062-4.556,0-8.567-.124a18.884,18.884,0,0,1-6.474-1.134q-2.454-1-2.876-2.32a3.171,3.171,0,0,1-.01-2.268,4.042,4.042,0,0,1,1.742-1.979,11.352,11.352,0,0,1,4.021-1.134l.763-.083a13.1,13.1,0,0,1,3.5-5.021,22.936,22.936,0,0,1,10.1-5.32,9.552,9.552,0,0,1,8.578,1.959,39.217,39.217,0,0,1,5.743,5.609A3.581,3.581,0,0,0,1583.23,1720.126Z" transform="translate(-391.387)" fill="#fff" fill-rule="evenodd"/>
    <path id="Trazado_2856" data-name="Trazado 2856" d="M1890.058,2816.01a3.307,3.307,0,0,1-.907,3.165,26.378,26.378,0,0,0-4.506,3.227,5.137,5.137,0,0,0,.846-3.021,7.588,7.588,0,0,0-.371-2.289q2.691-1.506,2.691-2.186a3.451,3.451,0,0,0-1.691-2.825,9.766,9.766,0,0,0-1.681-.948,11.188,11.188,0,0,1-1.371-.66,3.014,3.014,0,0,1,1.34-.175h.062a4.111,4.111,0,0,1,.886.175,6.463,6.463,0,0,1,1.742.9,7.707,7.707,0,0,1,1.309,1.289,6.307,6.307,0,0,1,1.619,3.289A.089.089,0,0,1,1890.058,2816.01Z" transform="translate(-660.913 -872.306)" fill="#f0f0ff" fill-rule="evenodd"/>
    <path id="Trazado_2857" data-name="Trazado 2857" d="M2547.121,2607.023q1.154,2.484,2.33,4.969.72,1.536,1.423,3.073c.027.062.054.123.082.185q.712,1.567,1.433,3.062a4.89,4.89,0,0,1,.381,1.072,26.009,26.009,0,0,1-9.4,1.062,17.1,17.1,0,0,0,.371-2.5q.052-.914.093-1.835.036-.9.062-1.8.062-1.918.093-3.8.021-1.381.082-2.773A7.023,7.023,0,0,0,2547.121,2607.023Z" transform="translate(-1185.062 -710.956)" fill="#f0f0ff" fill-rule="evenodd"/>
    <path id="Trazado_2858" data-name="Trazado 2858" d="M2549.839,2755.465q-5.072,1.031-7.155-4.021-.164-.4-.314-.784a22.548,22.548,0,0,1-1.84-6.763q-.05-1.729-.01-3,.017-.564.052-1.036a29.9,29.9,0,0,0,.083-3.145,22.835,22.835,0,0,0-.835-4.67v-.01q6.835-.041,9.413-.918,0,1.216-.041,1.918-.015.249-.021.68-.006.762.021,2.093.052,2.082.155,2.876.092.7.149,1.242c.006.044.011.087.015.129a35.858,35.858,0,0,0,.65,3.979q.474,2.1.886,4.217.036.175.067.351.106.587.17,1.175.1.866.134,1.732a8.076,8.076,0,0,1-.134,1.763q-.1.608-.247,1.206-.072.289-.165.588A2.956,2.956,0,0,1,2549.839,2755.465Z" transform="translate(-1182.244 -809.466)" fill="#f0f0ff" fill-rule="evenodd"/>
    <path id="Trazado_2859" data-name="Trazado 2859" d="M2481.611,2853.955a2.616,2.616,0,0,0,.68.34,16.519,16.519,0,0,0,3.856.794q2.082.144,4.165.093,1.01-.021,2.021-.021a36.287,36.287,0,0,0,3.959-.34,8.331,8.331,0,0,0,2.577-.763.785.785,0,0,0,.32-.279q.307-.429.582-.871l.4.067q4.113.732,4.114,1.763t-4.124,1.753a58.564,58.564,0,0,1-9.939.722,57.731,57.731,0,0,1-9.939-.732q-4.114-.722-4.114-1.753t4.114-1.753l.448-.077A2.448,2.448,0,0,0,2481.611,2853.955Z" transform="translate(-1131.718 -906.132)" fill="#f0f0ff" fill-rule="evenodd"/>
    <path id="Trazado_2860" data-name="Trazado 2860" d="M1863.287,2635.483q-4.712.969-11.867-.608-10.124-2.32-11.743-2.495l2.01-.866q1.058-.6,5.655-2.969l2.314-1.186.176-.093q1.155-.722,2.443-1.474a73.86,73.86,0,0,0,8.794.4,26.833,26.833,0,0,0,7.732-.8q1.536-.516,1.722-.557a11.63,11.63,0,0,1,1.619-.227,4.666,4.666,0,0,1,.206.876.093.093,0,0,1,.01.042,7.913,7.913,0,0,1-.341,2.752,8.264,8.264,0,0,1-1.453,2.768,10.82,10.82,0,0,1-.9,1.005,12.144,12.144,0,0,1-3.954,2.7A12.677,12.677,0,0,1,1863.287,2635.483Zm-57.956,13.867q.057-.676.057-1.433-.412-6.753-.35-8.908.052-.773.082-1.515a23,23,0,0,1,1.8-6.918q.237-.588.536-1.185.32-.608.587-1.145.124-.237.227-.474a2.049,2.049,0,0,1,.536.145,4.316,4.316,0,0,1,.443.093,13,13,0,0,1-.711,2.062,9.786,9.786,0,0,0-.846,3.423,2.977,2.977,0,0,0,.578,2.588q1.753,2.423,7.794,2.423,5.113,0,6.866-1.814a2.794,2.794,0,0,0,.237-.268v.031a7.579,7.579,0,0,1,.371,2.288,5.138,5.138,0,0,1-.846,3.021,4.772,4.772,0,0,1-2.32,1.618q-1.65.567-5.711,2.186a16.328,16.328,0,0,0-4.248,2.66,6.561,6.561,0,0,1-1.928,1.206,3.063,3.063,0,0,1-1.423.2,10.477,10.477,0,0,0-1.618-.155.294.294,0,0,1-.134.031C1805.32,2649.453,1805.325,2649.4,1805.331,2649.35Zm160.58-34.11q.041-.7.041-1.918a1.107,1.107,0,0,0,.32-.237.656.656,0,0,0,.155-.392q.051-1.114.041-2.247-.015-1.28-.015-2.572a43.732,43.732,0,0,0,5.624-2.2,32.189,32.189,0,0,1-6.186,10.248Q1965.9,2615.49,1965.911,2615.24Zm-47.312-19.022a45.276,45.276,0,0,0,29.976,13.686q.005,1.338.026,2.665a.832.832,0,0,0,.536.773q0,1.2.01,2.4.01,1.485-.093,2.959-.093,1.34-.2,2.691a28.987,28.987,0,0,1-.557,3.928q-.144.669-.284,1.335a35.083,35.083,0,0,1-7.377.758,32.1,32.1,0,0,1-20.728-7.139,37.02,37.02,0,0,1-2.944-2.645,32.275,32.275,0,0,1-9.784-23.661,33.775,33.775,0,0,1,1.835-11.248A47.628,47.628,0,0,0,1918.6,2596.219Z" transform="translate(-598.965 -691.666)" fill="#ea7400" fill-rule="evenodd"/>
    <path id="Trazado_2861" data-name="Trazado 2861" d="M1662.553,2280.536a3.722,3.722,0,0,0-.639.237q-.474.207-.948.392-.685.292-1.4.6-16.14-3.454-24.434-14.413-.524-.687-1.015-1.407l2.392-2.619.057.088q.739,1.152,2.913,4.15,2.237,3.1,15.423,9.474a48.178,48.178,0,0,0,10.671,2.371Q1664.073,2279.921,1662.553,2280.536Zm22.321-3.207-.433-.051h-.01l.01-.005.505-.17Zm-27.929-84.355q6.864,5.1,12.011,4.32,3.323-.923,2.928-4.7l-1.057-4.186q3.211,4.364,1.428,7.938-2.186,4.269-10.795.588a54.578,54.578,0,0,1-15.15-11.8c.177,0,.357-.015.541-.036l.072.031a.5.5,0,0,1,.124-.031l9.882,7.861Zm29.878,121.883a9.764,9.764,0,0,1,1.681.948,3.45,3.45,0,0,1,1.691,2.825q0,.68-2.691,2.186v-.031a11.767,11.767,0,0,0-1.155-2.526,6.081,6.081,0,0,0-3.021-2.887,12.868,12.868,0,0,0,1.144-.639,3.478,3.478,0,0,1,.546-.341,3.1,3.1,0,0,1,.433-.2A11.188,11.188,0,0,0,1686.822,2314.857Z" transform="translate(-463.296 -376.029)" fill="#fff" fill-rule="evenodd"/>
    <path id="Trazado_2862" data-name="Trazado 2862" d="M1656.759,2668.5a123,123,0,0,0-15.392,8.681q-1.33.887-2.6,1.876,3.7-1.577,7.165-2.959,4.773-1.9,9.165-3.433A24.918,24.918,0,0,1,1656.759,2668.5Z" transform="translate(-466.987 -759.754)" fill="#395fc1" fill-rule="evenodd"/>
    <path id="Trazado_2863" data-name="Trazado 2863" d="M2366.8,2562.428q0-.466,0-.933.01-1.7,0-3.412-.01-.536-.01-1.072l.021-.186a15.85,15.85,0,0,1,.237-1.876.481.481,0,0,0,0-.2.636.636,0,0,0-.031-.1,4.893,4.893,0,0,0-.382-1.072q-.722-1.495-1.433-3.062c-.028-.062-.055-.124-.082-.185a38.226,38.226,0,0,0,9.258-3.516q.042.855.042,1.711a33.663,33.663,0,0,1-2,11.7A43.666,43.666,0,0,1,2366.8,2562.428Zm-40.781-23a39.538,39.538,0,0,0,24.2,11.769l-1.294,2.83a1.518,1.518,0,0,0-.124.536,12.058,12.058,0,0,0,.031,1.66q.041.34.093.68v1.979q-.01,2.093-.01,4.2,0,.69.005,1.376a45.276,45.276,0,0,1-29.976-13.686,47.635,47.635,0,0,1-9.578-13.5,32.524,32.524,0,0,1,7.372-11.8A40.742,40.742,0,0,0,2326.018,2539.432Z" transform="translate(-999.312 -646.221)" fill="#ffbd59" fill-rule="evenodd"/>
    <path id="Trazado_2864" data-name="Trazado 2864" d="M1673.8,1937.8a19.337,19.337,0,0,0-13.259-.711,25.666,25.666,0,0,0-7.083,3.753,34.342,34.342,0,0,0-4.66,4.2q-.454.557-3.33,3.4a27.232,27.232,0,0,1,2.227-4.371,18.863,18.863,0,0,1,8.9-7.794,3.447,3.447,0,0,0,.577-.32,1.523,1.523,0,0,0,.752.227,3.95,3.95,0,0,0,1.206,0,2.884,2.884,0,0,0,1.072-.474,3.322,3.322,0,0,0,.361-.33,4.371,4.371,0,0,0,.66-.866,10.04,10.04,0,0,0,.876-1.99,1.85,1.85,0,0,0,.021-1.093,3.246,3.246,0,0,1,1.907,1.32,13.381,13.381,0,0,0,1.65.309,2.015,2.015,0,0,0,1.083-.289,4.085,4.085,0,0,0,.639-.484,3.1,3.1,0,0,0,.609-.7,15.809,15.809,0,0,0,.856-1.485,1.285,1.285,0,0,0,.093-.237,3.075,3.075,0,0,0,.041-1.278,1.843,1.843,0,0,0-.66-1.041,2.849,2.849,0,0,1,2.681,1.979,15.868,15.868,0,0,1,.938,2.588v.2a2.286,2.286,0,0,0,.093,1.124q.3.815.876.907a.848.848,0,0,0,1.031-.515q.134-.681.134-.711a2.006,2.006,0,0,0-.2-1.588,1.636,1.636,0,0,1,.876.784,14.865,14.865,0,0,1,1.711,4.392,14.194,14.194,0,0,1,.289,2.495A27.668,27.668,0,0,0,1673.8,1937.8Zm-29.981,20.692q2.814-3.619,4.753-5.949,1.557-1.876,2.907-3.65a7.325,7.325,0,0,1,1.753,2.33,4.4,4.4,0,0,1,.423.9,40.56,40.56,0,0,0-3.949,3.6q-2.619,2.773-5.5,6.268A18.438,18.438,0,0,1,1643.818,1958.491Z" transform="translate(-470.996 -171.578)" fill="#637dbf" fill-rule="evenodd"/>
    <path id="Trazado_2865" data-name="Trazado 2865" d="M1674.088,1933.115q0,.031-.134.711a.847.847,0,0,1-1.031.515q-.577-.093-.876-.907a2.287,2.287,0,0,1-.093-1.124v-.2a2.966,2.966,0,0,1,.062.546q1.134-1.361,1.876-1.134A2.007,2.007,0,0,1,1674.088,1933.115Zm2.3,11.64a6.967,6.967,0,0,0-.784-1,7.619,7.619,0,0,0-.516-.588l-.093-.093a9.9,9.9,0,0,0-7.99-2.619,22.677,22.677,0,0,0-6.722,1.619,21.351,21.351,0,0,0-8.8,6.825q-1.35,1.774-2.907,3.65-1.938,2.33-4.753,5.949,0-1.35.093-2.711a29.738,29.738,0,0,1,1.557-7.341q2.876-2.845,3.33-3.4a34.334,34.334,0,0,1,4.66-4.2,25.663,25.663,0,0,1,7.083-3.753,19.335,19.335,0,0,1,13.259.711,27.644,27.644,0,0,1,2.969,1.392A50.444,50.444,0,0,1,1676.387,1944.755Zm-11.021-13.176a11.743,11.743,0,0,0,1.227-1.495q.557-.825,1.124-1.681.289-.412.619-.856a1.844,1.844,0,0,1,.66,1.041,3.075,3.075,0,0,1-.041,1.278,1.292,1.292,0,0,1-.093.237,15.792,15.792,0,0,1-.856,1.484,3.1,3.1,0,0,1-.609.7,4.077,4.077,0,0,1-.639.484,2.014,2.014,0,0,1-1.083.289,13.381,13.381,0,0,1-1.65-.309A8.3,8.3,0,0,0,1665.366,1931.579Zm-6.753,3.258q.577-.608,1.124-1.258l1.072-1.278q.248-.289.485-.577a.786.786,0,0,1,.392-.278,1.013,1.013,0,0,1,.278-.041.387.387,0,0,1,.155.031,1.851,1.851,0,0,1-.021,1.093,10.042,10.042,0,0,1-.876,1.99,4.371,4.371,0,0,1-.66.866,3.335,3.335,0,0,1-.361.33,2.884,2.884,0,0,1-1.072.474,3.942,3.942,0,0,1-1.206,0,1.522,1.522,0,0,1-.752-.227A6.911,6.911,0,0,0,1658.613,1934.837Zm-12.6,32.62a17.4,17.4,0,0,1-.881-1.949,17.608,17.608,0,0,1-.923-3.516q2.877-3.495,5.5-6.268a40.576,40.576,0,0,1,3.949-3.6,14.14,14.14,0,0,1,.577,2.526,3.734,3.734,0,0,0,.031.423,29.764,29.764,0,0,1-.711,6.98q-1.134.908-2.361-.608a2.373,2.373,0,0,0-3-.907,5.131,5.131,0,0,0,.711,4.969,13.635,13.635,0,0,0,2.031,2.4,10.726,10.726,0,0,1,1.907,3.588,12.906,12.906,0,0,0,1.814,3.722A14.942,14.942,0,0,1,1646.014,1967.457Z" transform="translate(-470.996 -171.585)" fill="#2e488d" fill-rule="evenodd"/>
    <path id="Trazado_2866" data-name="Trazado 2866" d="M1412.612,2773.693a10.9,10.9,0,0,1-.9,1.005,12.137,12.137,0,0,1-3.954,2.7,4.008,4.008,0,0,1,1.6,2.975q0,4.877-15.651,8.32t-37.785,3.443q-2.747,0-5.392-.052a3.063,3.063,0,0,1-1.423.2,10.514,10.514,0,0,0-1.619-.155.294.294,0,0,1-.134.031,3.986,3.986,0,0,1-.619-.175,161.028,161.028,0,0,1-28.61-3.289q-15.64-3.443-15.64-8.32,0-3.758,9.289-6.66a40.187,40.187,0,0,1-3.464-7.217.731.731,0,0,0-.093-.2,9.754,9.754,0,0,1-.578-3.773c-.011-.033-.021-.066-.031-.1l-79.5,14.016,157.142,27.7,100.026-17.64Z" transform="translate(-141.011 -834.313)" fill="#ed428b" fill-rule="evenodd"/>
    <path id="Trazado_2867" data-name="Trazado 2867" d="M2525.649,2581.141a12.225,12.225,0,0,1,4.99-.515,8.336,8.336,0,0,1,2.371.422,1.128,1.128,0,0,1,.4.186v.309q-.155.021-1.083.247a19.636,19.636,0,0,1-3.9.2,10.908,10.908,0,0,1-2.815-.578Zm2.9,21.022,3.423.072q.783-.072,1.557-.134.794-.082,1.567-.227.8-.082,1.6-.227a3.3,3.3,0,0,0,.392-.083,2.918,2.918,0,0,0,1.371-.825q0,.536.01,1.072.011,1.712,0,3.413,0,.467,0,.933,0,1.292.015,2.572.01,1.134-.041,2.247a.652.652,0,0,1-.155.392,1.105,1.105,0,0,1-.32.237q-2.578.876-9.413.917Z" transform="translate(-1170.972 -689.95)" fill="#4eeef1" fill-rule="evenodd"/>
    <path id="Trazado_2868" data-name="Trazado 2868" d="M2502.648,2604.152q-1.062,4.567-1.67,7.578-.092.465-.17.9a16.737,16.737,0,0,0-.325,3.722q.1,1.6.1,2.361a31.049,31.049,0,0,0,6.8.134,33.379,33.379,0,0,0,5.33-.855l-.021.185a2.923,2.923,0,0,1-1.371.825,3.357,3.357,0,0,1-.392.083q-.794.144-1.6.227-.773.144-1.567.227-.773.062-1.557.134l-3.422-.072-2.856-.062q-1.732-.206-3.433-.536a3.48,3.48,0,0,1-1.67-.928q-.052-.34-.093-.681a12.054,12.054,0,0,1-.031-1.66,1.515,1.515,0,0,1,.124-.536l1.294-2.83.387-.851,1.753-3.815q.855-1.845,1.7-3.66.134-.278.258-.557l-.866-.526.381-.319a.976.976,0,0,0,.289.155,6.487,6.487,0,0,0,2.65.546h2.381q.268,0,.526-.01a6.875,6.875,0,0,0,2.093-.495l.031-.309.505.443-.938.485a7.018,7.018,0,0,1-3.052.7Zm-9.042,41.518q.175-.783.32-1.557.169-.868.345-1.737.14-.667.283-1.335a28.905,28.905,0,0,0,.557-3.928q.1-1.35.2-2.691.1-1.474.093-2.959-.011-1.206-.01-2.4l4.742.856a5.116,5.116,0,0,0,.052.856,36.357,36.357,0,0,1,.227,9.619q-.079.717-.186,1.433a18.452,18.452,0,0,0-.01,5.536,14.507,14.507,0,0,0,.407,1.871,12.792,12.792,0,0,0,2.171,4.279,14.648,14.648,0,0,0,3.041,2.9q-1.01,0-2.021.021-2.083.052-4.165-.093a16.494,16.494,0,0,1-3.856-.794,2.623,2.623,0,0,1-.68-.34,2.45,2.45,0,0,1-.882-1.057q-.053-.116-.1-.242a9.45,9.45,0,0,1-.948-3.948c0-.039,0-.079-.005-.119A16.944,16.944,0,0,1,2493.607,2645.669Z" transform="translate(-1145.219 -707.383)" fill="#abb1eb" fill-rule="evenodd"/>
    <path id="Trazado_2869" data-name="Trazado 2869" d="M2506.373,2588.622a.974.974,0,0,1-.288-.155l.124-3.794a10.906,10.906,0,0,0,2.815.577v3.918A6.491,6.491,0,0,1,2506.373,2588.622Zm-5.206,21.455q0-2.1.01-4.2V2603.9a3.48,3.48,0,0,0,1.67.928q1.7.33,3.433.536a8.2,8.2,0,0,0-.33,2.887q.062,1.021.062,2.01v4.475a1.3,1.3,0,0,0,.464,1.01l-4.743-.856a.832.832,0,0,1-.536-.773q-.021-1.327-.026-2.665Q2501.167,2610.767,2501.167,2610.077Z" transform="translate(-1151.563 -693.214)" fill="#0d8e90" fill-rule="evenodd"/>
    <path id="Trazado_2870" data-name="Trazado 2870" d="M2531.273,2585.571q.928-.227,1.083-.247l.052,3.546-.031.309a6.878,6.878,0,0,1-2.093.495q-.258.01-.526.01h-2.382v-3.917A19.7,19.7,0,0,0,2531.273,2585.571Zm-3.783,20.372v10.372l-2.66-.052a1.3,1.3,0,0,1-.464-1.01v-4.474q0-.99-.062-2.011a8.188,8.188,0,0,1,.33-2.887Z" transform="translate(-1169.915 -693.731)" fill="#1fbcbf" fill-rule="evenodd"/>
    <path id="Trazado_2871" data-name="Trazado 2871" d="M1566.509,2160.335a100.64,100.64,0,0,1,7.4,10.583,32.568,32.568,0,0,1,4.041,10.763,29.355,29.355,0,0,1,.376,4.206q.034,1.49-.056,3.1-8.661,1.938-13.681-2.907a23.922,23.922,0,0,0-.711-3.949q-2.258-8.31-10.413-16.589,8.671-1.5,12.825-5.49Zm55.621,11.872a26.921,26.921,0,0,0-7.217-7.279q-.454-.32-.938-.608l-2.335-.856q1.853-2.724,5.088-7.227,1.258-1.722,2.258-3.206,7.564-.282,12.3,3.974-2.168,4.288-6.48,11.645-.814,1.423-1.454,2.588l-.855,1.541Q1622.319,2172.491,1622.13,2172.207Z" transform="translate(-399.275 -350.56)" fill="#60a2f0" fill-rule="evenodd"/>
    <path id="Trazado_2872" data-name="Trazado 2872" d="M1603.9,2823.881a20.358,20.358,0,0,0,12.228,4.845,21.506,21.506,0,0,0,14.289-3.093,37.651,37.651,0,0,1,.144,5.99,6.737,6.737,0,0,0,.6,2.144l1.011,1.145a3.364,3.364,0,0,0,.9.5,161.007,161.007,0,0,1-28.61-3.289q-15.64-3.443-15.64-8.32,0-3.758,9.289-6.66A26.6,26.6,0,0,0,1603.9,2823.881Zm51.673.742a36.288,36.288,0,0,0,6.227-2.99,49.919,49.919,0,0,1,6.248-3.165q1.618.175,11.743,2.495,7.155,1.577,11.867.608a12.7,12.7,0,0,0,2.428-.737,4.008,4.008,0,0,1,1.6,2.974q0,4.877-15.651,8.32t-37.785,3.444q-2.747,0-5.392-.052a6.558,6.558,0,0,0,1.928-1.206,16.328,16.328,0,0,1,4.248-2.66q4.062-1.619,5.711-2.186a4.773,4.773,0,0,0,2.32-1.618A26.364,26.364,0,0,1,1655.574,2824.623Z" transform="translate(-427.337 -877.753)" fill="#b60852" fill-rule="evenodd"/>
  </g>
</svg>
