<svg xmlns="http://www.w3.org/2000/svg" width="326.618" height="267.8" viewBox="0 0 326.618 267.8">
  <g id="Grupo_10106" data-name="Grupo 10106" transform="translate(-1038.45 -484.849)">
    <path id="Trazado_2799" data-name="Trazado 2799" d="M1160.506,759.054q-.665-1.646-1.069-2.658-.318-1.04-.982-3.9a34.045,34.045,0,0,1-.462-4.189,33.533,33.533,0,0,1,.665-4.1,12.976,12.976,0,0,1,1.589-3.582,12.717,12.717,0,0,1,2.513-2.918,12.582,12.582,0,0,1,2.571-1.993,26.458,26.458,0,0,1,3.322-1.763Q1158.974,739.439,1160.506,759.054Zm.982,45.5-.867.087-1.242.144a7.533,7.533,0,0,0,.549-.708,6.511,6.511,0,0,0,1.1-2.874,7.846,7.846,0,0,0-.173-2.672.076.076,0,0,0-.014-.029c-.006-.026-.011-.05-.015-.072a8.615,8.615,0,0,0-.318-.982,6.036,6.036,0,0,0-6.356-3.524q.925-.983,4.622-4.709,2.918-2.86,4.853-4.449,0-2.831-.144-8.089-.062-1.681-.1-3.077-.1-3.146-.1-4.809.859,2.83,1.43,5.691a58.84,58.84,0,0,1,1.17,12.076,53.951,53.951,0,0,1-.4,6.7q-.328,2.284-.867,4.507-.16.673-.347,1.343v.015a45.994,45.994,0,0,1-1.531,4.679l-.318.232-.838.4-.058.087A.085.085,0,0,0,1161.488,804.554Zm-2.976,1.834q-.886.651-1.6,1.2a3.921,3.921,0,0,1,.708-1.271Z" transform="translate(-48.851 -105.176)" fill="#aac5fc" fill-rule="evenodd"/>
    <path id="Trazado_2800" data-name="Trazado 2800" d="M1339.315,666.908q-15.813,18.038-39.3,17.03-1.19-.049-2.4-.144a10.428,10.428,0,0,0-1.618-3.784,31.255,31.255,0,0,1-4.42-6.847,22.732,22.732,0,0,0-.376-9.533q-1.56-5.315-6.587-5.719-.78-.29-1.5-.492a38.051,38.051,0,0,0,8.522-11.556q.473-.934.924-1.907,16.675-8.019,22.071-29.163,4.552-2.463,9.735-4.666a.324.324,0,0,1,.145-.029q.26-.144.491-.26.867-.347,1.7-.693h.029a1.919,1.919,0,0,0,.2-.116,203.413,203.413,0,0,1,37.671-10.429q.577-.087,1.242-.2-.115.635-.231,1.242a243.646,243.646,0,0,1-6.558,28.4q-.231.722-.433,1.473a137.168,137.168,0,0,1-9.245,22.562,11.391,11.391,0,0,1-.578,1.069q-.491.867-.953,1.7A74.938,74.938,0,0,1,1339.315,666.908ZM1143.2,681.454q0,1.662.1,4.809Q1132.615,679,1124.6,665.1q-.331-.6-.679-1.213-.136-.246-.274-.491a11.436,11.436,0,0,1-.578-1.069,137.184,137.184,0,0,1-9.244-22.562q-.2-.75-.433-1.473a243.543,243.543,0,0,1-6.558-28.4q-.115-.607-.231-1.242.665.115,1.242.2a216.936,216.936,0,0,1,31.879,8.262q-1.036,1.223-2.008,2.571v.144a4.243,4.243,0,0,0,1.849,2.832,25.085,25.085,0,0,0,3.12,1.848.2.2,0,0,1-.058.144l.058,2.456a3.737,3.737,0,0,0,.058.607,10.336,10.336,0,0,0,.664,2.628q.462,1.213.924,2.456,1.069,2.6,2.311,5.056a42.486,42.486,0,0,0,3.582,5.431q.722.982,1.473,1.907-.4.2-.867.4-1.127.52-2.253,1.011a26.444,26.444,0,0,0-3.322,1.763,12.582,12.582,0,0,0-2.571,1.993,12.712,12.712,0,0,0-2.513,2.918,12.973,12.973,0,0,0-1.589,3.582,33.579,33.579,0,0,0-.664,4.1,34.045,34.045,0,0,0,.462,4.189q.665,2.86.982,3.9.4,1.011,1.069,2.658A48.707,48.707,0,0,0,1143.2,681.454Zm72.656-90.842a2.376,2.376,0,0,1-1.907.361q-.26-.057-.549-.144-.433.26-.838.549a23.9,23.9,0,0,0-6.774,7.006l-.766-1.372q-.578-1.04-1.3-2.311-5.893-10.053-7.309-13.693-8.985-22.215-9.1-23.833a37.9,37.9,0,0,0-.9-4.276,6.114,6.114,0,0,1-.173-.693,26.664,26.664,0,0,1-.751-3.293q-.52-2.369-.982-4.8a50.756,50.756,0,0,1-1.127-6.356q.029-2.311-.087-3.9a15.33,15.33,0,0,1,2.4-.664q2.773,4.853,6.211,12.249.809,1.675,3.38,7.424,1.069,2.4,2.456,5.489a52.934,52.934,0,0,0,2.716,6.673q1.791,3.7,3.207,6.789a81.331,81.331,0,0,0,5.258,8.927q.9,1.329,2.022,2.86,2.976,4.16,4.651,6.615C1215.69,590.357,1215.777,590.487,1215.858,590.612Zm10.631,7.612-2.311-4.131-2.282-4.1,8.147-2.86,8.9-3.062a2.474,2.474,0,0,0,1.184-.924l2.282,2.167a8.352,8.352,0,0,0-1.358,1.271v.058l-13.9,12.827Zm18.807,14.647a12.544,12.544,0,0,1-1.184-.462q-7.136-4.073-6.5-10.718.723-8.32,6.847-16.12a1.362,1.362,0,0,1,.289-.347,171.267,171.267,0,0,0,14.936-13.491,94.379,94.379,0,0,0,12.191-15.4,104.13,104.13,0,0,1,11.642-15.311,81.41,81.41,0,0,0,10.227-13.924l.462.376q.208.1.448.246a30.494,30.494,0,0,1,2.875,1.921q-.636.838-1.358,1.878c-.016.025-.031.049-.043.072q-7.218,11.178-10.068,15.065-2.253,3.062-8.147,12.076-4.854,7.338-8.782,12.191-8.9,10.775-12.191,14.907a97.606,97.606,0,0,0-7.742,10.891,29.042,29.042,0,0,0-3.611,9.62A29.535,29.535,0,0,0,1245.3,612.871Zm-84.876,45.472q-.953-2.2-1.907-4.478l-.462-1.1-.491-1.011q-.635-2.252.664-3.379l1.329-.376a19.349,19.349,0,0,0,6.038-3.379q4.362-3.526,5.749-4.8a6.266,6.266,0,0,0,1.849-2.167,2.516,2.516,0,0,0,.332-1.647,4.506,4.506,0,0,0-.246-1.068,2.715,2.715,0,0,1,3.033,1.5,20.358,20.358,0,0,1,1.387,3.467c-.025.083-.049.165-.072.246a11.409,11.409,0,0,1-3.308,4.983q-2.571,2.2-4.824,4.507Q1167.18,651.843,1160.42,658.343Zm11.5,54.831a8.114,8.114,0,0,0-3.929-3.727q.549-.693,6.3-3.437,3.582-1.849,6.587-3.092a16.257,16.257,0,0,1,2.542-.982q.462-.231.838-.376V701.5a69.651,69.651,0,0,1-.925-8.493q-.2-5.836-.4-8.811-.722-9.476-3.582-15.4-.29-.607-.636-1.184a16.479,16.479,0,0,1,.2-4.506,15.6,15.6,0,0,1,6.385-8.783,14.611,14.611,0,0,1,3.351-1.82q2.8.289,2.4,5.489a33.527,33.527,0,0,0-.347,12.422q.982,6.557,1.242,11.758c.026.29.051.575.072.852q.184,1.957.3,3.366.058.347.115.694a30.785,30.785,0,0,1,.217,3.452q.049,1.859.072,4.637,0,.207,0,.418a13.515,13.515,0,0,1-.9,5.143,9.2,9.2,0,0,1-1.979,3,9.517,9.517,0,0,1-1.459,1.2l-.014.014q-1.484.984-3.048,1.907a70.137,70.137,0,0,1-6.558,3.366Q1173.651,712.48,1171.918,713.173Zm-17.651-64.653v2.456a.255.255,0,0,0-.029.115,2.177,2.177,0,0,0-.116.289l-.2.52-.058.058a9.449,9.449,0,0,1-.722,1.993,10.432,10.432,0,0,1-.867,2.051q-.578,1.069-.78.4v-.116a7.493,7.493,0,0,1-.087-1.936q.086-2.224.144-3.784.029-.953.058-1.647a12.67,12.67,0,0,1,.4-2.976l.058.058c.058,0,.087.019.087.058l.318.346a.931.931,0,0,1,.144.26c.039.039.1.106.173.2q.145.2.289.375Q1153.6,647.8,1154.267,648.521Zm93.9,18.012a9.308,9.308,0,0,1,1.04-1.574,8.077,8.077,0,0,1,2.2-1.892,9.022,9.022,0,0,1,2.037-.852c.065-.02.133-.04.2-.058a9.992,9.992,0,0,1,5.229,2.311q.347.289.664.578c-.154.077-.308.164-.462.26a11.645,11.645,0,0,0-4.131,4.969,10.188,10.188,0,0,0-.867,3.12,26.232,26.232,0,0,0,.26,7.164q.062.407.116.824.6,4.207.91,9.389.186,2.926.275,6.167.083,2.746.145,4.853.136,5.2.115,6.471a11.652,11.652,0,0,0-1.531.636,9.02,9.02,0,0,0-4.247,4.131q-.11-3.991-.26-7.482-.121-3.026-.275-5.676-.123-2.336-.274-4.377-.27-3.584-.636-6.933-.617-5.573-1.5-10.487a17.961,17.961,0,0,1,.173-9.5A12.167,12.167,0,0,1,1248.17,666.532Zm32.226-4.377a4.1,4.1,0,0,1,1.011.722,11.415,11.415,0,0,0-2.051,2.167q-.173.26-.375.521-.838,1.154-2.427,3.582-1.445-1.127-3.727-3.264-2.715-2.542-3.669-3.351a18.479,18.479,0,0,0-8.7-4.507q-2.311-.953-.058-4.073a9.08,9.08,0,0,1,4.333-3.611,9.455,9.455,0,0,0,.231,2.051,2.012,2.012,0,0,0,1.329,1.416,68.629,68.629,0,0,1,7.193,4.247A78.508,78.508,0,0,0,1280.4,662.156ZM1137.771,716.9a10.928,10.928,0,0,0-3.062-3.987,10.352,10.352,0,0,0-1.444-1.011,7.085,7.085,0,0,0-4.016-1.112l-.809-1.6a9.439,9.439,0,0,1,1.069-.752,12.962,12.962,0,0,1,4.564-1.848,6.036,6.036,0,0,1,6.356,3.524,8.64,8.64,0,0,1,.318.982c0,.022.008.046.014.072a.074.074,0,0,1,.015.029,7.846,7.846,0,0,1,.173,2.672,6.511,6.511,0,0,1-1.1,2.874,7.494,7.494,0,0,1-.549.708l-1.069.549c-.019-.05-.038-.1-.058-.144Q1137.987,717.362,1137.771,716.9Z" transform="translate(-28.774 -17.839)" fill="#f0f0ff" fill-rule="evenodd"/>
    <path id="Trazado_2801" data-name="Trazado 2801" d="M1263.783,645.813q.555-1.226,1.069-2.513a.535.535,0,0,0,.173-.029h.087a.081.081,0,0,1,.058-.029l1.444-1.213a4.345,4.345,0,0,0,.274-.506c.036-.07.069-.142.1-.217a10.145,10.145,0,0,0,.52-1.473,20.333,20.333,0,0,0,.26-6.818,21.738,21.738,0,0,0-2.051-6.3,23.22,23.22,0,0,0-5.056-6.789,17.863,17.863,0,0,0-2.224-1.387,18.46,18.46,0,0,0-10.92-1.762,21.84,21.84,0,0,0-9.273,3.149q-.564.35-1.112.737a39.835,39.835,0,0,1,2.5-9.981q.4-1.04.867-2.022v-.029a3.579,3.579,0,0,1,.347-.722q5.143-10.92,16.9-21.522c0-.019.038-.038.116-.058a2.477,2.477,0,0,1,.318-.318l1.1-.982.029.029c.039-.058.087-.125.145-.2a140.943,140.943,0,0,1,13.173-10.01q1.177-.795,2.4-1.589,4.83-3.152,10.284-6.283.434-.26.867-.549.087.491.144,1.011.5,3.4.881,6.644.1.851.188,1.69.84,7.744,1.011,14.661.029.665.058,1.271a106.119,106.119,0,0,1-1.416,19.413q-.087.463-.173.953-.145.751-.289,1.473-.33,1.588-.722,3.106Q1280.459,637.795,1263.783,645.813Zm1.936,61.158q-.029-.115-.78-.578a4,4,0,0,1-1.3-2.109l-.953-5.749a10.322,10.322,0,0,1,.635-2.86,5.815,5.815,0,0,1,1.762-2.224q.26-.231.491-.4,1.416-1.213,1.56-1.329a5.488,5.488,0,0,0,.809-1.011,4.666,4.666,0,0,0,.578-1.271,6.377,6.377,0,0,0,.433-2.744,7.28,7.28,0,0,0-.116-1.04q1.208.095,2.4.144,23.49,1.007,39.3-17.03a107.418,107.418,0,0,1,12.957.939.129.129,0,0,1,.144.029,2.7,2.7,0,0,1,.578.057q.924.145,1.849.26h.26a188.906,188.906,0,0,1,37.584,10.429q.578.2,1.156.433-.462.55-.924,1.04a280.466,280.466,0,0,1-22.418,22.476q-.606.549-1.271,1.127-7.084,6.172-13.823,10.948a8.958,8.958,0,0,0-3.279-1.184,14.766,14.766,0,0,0-6.038.289,66.652,66.652,0,0,1-8.407,1.214q-.773.072-1.488.144,1.7-1.043,1.806-1.127c.058-.077.125-.164.2-.26a2.657,2.657,0,0,1,.289-.346q-.462-.579-1.647-.347.318-.2.665-.462.52-.376,1.04-.838.173-.2.318-.4a1.091,1.091,0,0,0,.289-.4c.115-.154.221-.309.318-.463l-1.156-.578q.2-.26.375-.52.145-.173.289-.375c.038-.077.077-.164.115-.26a.184.184,0,0,0,.116-.144q-.49-1.011-2.109-.259l-3.25,1.3c.053-.11.115-.236.188-.376a11.99,11.99,0,0,0,.607-1.416q.231-.722.375-1.213a1.1,1.1,0,0,0-.635-1.328l-1.213-.781a3.935,3.935,0,0,0-.982-.375,3.361,3.361,0,0,0-1.069.086q-.751.116-1.04.173a.424.424,0,0,0-.4.318.612.612,0,0,0,0,.578q.26.519,1.358.548c.154-.02.375.1.664.347q.26.231.809.664.433.289-.491,1.416c-.135.154-.251.289-.347.4q-.329.348-.621.65-.453.169-.881.332h-.029a1.153,1.153,0,0,1-.231.087l-3.524.722a.081.081,0,0,0-.058-.029c-.212-.192-.309-.318-.289-.375a.827.827,0,0,1-.029-.2,1.232,1.232,0,0,1-.115-.375,4.354,4.354,0,0,1,.346-1.185.317.317,0,0,1,.058-.087.3.3,0,0,0,.058-.116.206.206,0,0,0,.087-.144q.173-.2.347-.375a2.035,2.035,0,0,1,.318-.259q.173-.2.347-.376a2.415,2.415,0,0,0,.26-.231l.058-.058a.083.083,0,0,1,.029-.057l.173-.116a4.578,4.578,0,0,1,.52-.549q.26-.288.549-.607a1.682,1.682,0,0,1,.26-.26q.49-1.011-.376-1.242a4.289,4.289,0,0,0-1.993.78q-.23.144-.491.318a3.2,3.2,0,0,0-.607.433,3.792,3.792,0,0,0-.578.433q-.26.173-.549.4l-.491.433a6.124,6.124,0,0,1-.52.405c-.135.173-.26.336-.376.491a4.05,4.05,0,0,0-.375.433,4.444,4.444,0,0,0-.52.751,8.632,8.632,0,0,0-.635.982,1.331,1.331,0,0,0-.26.491c-.058.154-.125.318-.2.491a2.576,2.576,0,0,0-.173.549,1,1,0,0,0-.144.289,4.642,4.642,0,0,1-.318.722,4.306,4.306,0,0,1-.433.895,2.448,2.448,0,0,0-.4.636c-.057.169-.129.443-.217.823a22.908,22.908,0,0,1-7.988-1.806,62.4,62.4,0,0,1-7.28-3.062Q1272.912,710.265,1265.719,706.971Zm20.569,14.56q-4.478,1.733-5.807,2.34a40.506,40.506,0,0,0-5.417,2.687,21.72,21.72,0,0,0-3.395-.26c-.019-.035-.038-.068-.058-.1.051-.033.1-.066.144-.1.154-.1.3-.183.433-.26l.346-.231c.154-.115.289-.212.4-.289q-.317-.751-1.647-.867l.867-.259a10.2,10.2,0,0,0,1.329-.549,5.942,5.942,0,0,1,.491-.347c.135-.1.269-.2.4-.318.173-.154.327-.289.462-.4l-.665-.636-.347-.346.52-.405a3.638,3.638,0,0,0,.433-.317.792.792,0,0,0,.2-.232.275.275,0,0,0,.145-.116v-.144a1.327,1.327,0,0,0-.087-.2q2.545.287,5.951.722a12.012,12.012,0,0,1,2.152.491A6.39,6.39,0,0,0,1286.288,721.531Zm-171.759-33.41q.039,1.4.1,3.077.145,5.257.144,8.089-1.935,1.589-4.853,4.449-3.7,3.727-4.622,4.709a12.961,12.961,0,0,0-4.564,1.848,9.438,9.438,0,0,0-1.069.752l-.26-.521q-.133-.249-.26-.505-.818-1.639-1.632-3.279l-1.6-3.293a2.307,2.307,0,0,0-.3-.418l-.419-.824a2.491,2.491,0,0,0-1.82-1.473l-41.513-8.089q-1.1-.214-.65.838-5.849-4.814-11.946-10.544-.4-.376-.809-.779.549-.29,1.011-.492a192.229,192.229,0,0,1,33.973-12.682.931.931,0,0,1,.231-.029l.029-.029q.809-.173,1.647-.4c.154-.039.318-.077.491-.116a.183.183,0,0,1,.145,0,94.9,94.9,0,0,1,19.168-2.658q.348.613.679,1.213Q1103.841,680.855,1114.529,688.121Zm57.59-72.049c-.01.1-.02.2-.029.3a57.521,57.521,0,0,0-.144,6.038q.115,3.09.289,6.327v.549a210.583,210.583,0,0,0,6.182,41.4l.549,1.69-3.062.361q-2.41-1.318-4.882-2.5.08,2.06.246,4.781.038.493.072,1.011.079,1.125.144,2.311.318,5.8.318,13.2.028,2.4.029,5.965,0,1.393,0,2.961-.01,1.1-.014,2.282,0,1.817-.015,3.842a10.561,10.561,0,0,1-.188,1.834,9.545,9.545,0,0,1-.65,2.138,10.867,10.867,0,0,1-3.438,4.261,19.209,19.209,0,0,1-8.667,3.524q-.159.032-.318.058c-.079.032-.156.066-.231.1q-4.177,1.742-6.847,2.557-3.007,1.024-6.24,2.008-.956.3-1.936.592.157-.465.289-.924a10.724,10.724,0,0,0,.058-6.587q-.231-.578-.491-1.127,1.733-.693,6.847-2.947a70.152,70.152,0,0,0,6.558-3.366q1.564-.923,3.048-1.907l.015-.014a9.524,9.524,0,0,0,1.459-1.2,9.2,9.2,0,0,0,1.979-3,13.51,13.51,0,0,0,.9-5.143q0-.211,0-.418-.023-2.779-.072-4.637a30.774,30.774,0,0,0-.217-3.452q-.058-.348-.116-.694-.12-1.408-.3-3.366c-.021-.277-.046-.562-.072-.852q-.26-5.2-1.242-11.758a33.527,33.527,0,0,1,.347-12.422q.4-5.2-2.4-5.489,5.345-1.82,9.389,4.016.149.348.289.708c-.027-.187-.056-.376-.087-.563a13.06,13.06,0,0,0-3.64-5.229c0-.038-.029-.058-.087-.058a19.509,19.509,0,0,0-5.431-3.264,63.545,63.545,0,0,1-5.6-4.1q-2.08-1.589-3.582-2.658a5.858,5.858,0,0,0-.722-.4q-.809-.577-1.473-1.04a20.37,20.37,0,0,0-1.387-3.467,2.715,2.715,0,0,0-3.033-1.5q-.347-1.936-.549-3.178-.2-1.33-.375-2.4a11.443,11.443,0,0,0,2.167-7.222,17.426,17.426,0,0,0-1.791-7.685,24.372,24.372,0,0,0-1.7-2.86,13.88,13.88,0,0,0-1.849-1.993,19.9,19.9,0,0,0-2.716-1.993,11.291,11.291,0,0,0-2.528-1.054,103.613,103.613,0,0,1,5.966-23.559l24.036,22.158A78.129,78.129,0,0,1,1172.119,616.072Zm4.9-15.831q-.231.365-.448.737-.462.838-.9,1.7a33.2,33.2,0,0,0-2.947,8.811q-.123.739-.231,1.488-1.213-3.142-1.964-5.446a.552.552,0,0,1-.029.173q-.375-1.185-.78-2.456a111.418,111.418,0,0,0-4.94-12.6q-6.269-14.213-6.673-15.311-5.142-7.222-7.107-18.46l.029-.058q-.578-2.658-.9-5.431-.26-2.08-.318-4.189-.115-3-.289-5.98-.145-2.05-.289-4.131a1.823,1.823,0,0,0,.173-.2,9.662,9.662,0,0,1,3.265-2.456,12.65,12.65,0,0,1,1.849-.722q.115,1.589.087,3.9a50.786,50.786,0,0,0,1.127,6.356q.462,2.427.982,4.8a26.7,26.7,0,0,0,.751,3.293,6.138,6.138,0,0,0,.173.693,37.906,37.906,0,0,1,.9,4.276q.115,1.618,9.1,23.833,1.415,3.64,7.309,13.693.722,1.271,1.3,2.311Zm13.246-4.492-2.86,3.9-.9,1.156a15.461,15.461,0,0,1,.2-5.344,19.982,19.982,0,0,1,.693-2.513q.34-1.035.809-2.138a4.206,4.206,0,0,0,.318-.867,27.577,27.577,0,0,1,1.184-2.86,3.555,3.555,0,0,1,2.427-1.618.484.484,0,0,0-.029.144,6.5,6.5,0,0,0,1.011,6.24Zm78.491-64.249a.424.424,0,0,1,.26.2l.838.549a12.7,12.7,0,0,0,3.265,1.647,6.532,6.532,0,0,0,.838.188c.169.022.333.036.491.043q-.9,2.051-1.82,4.044-3.438,7.511-7.193,14.849a155.215,155.215,0,0,1-9.793,16.611q-5.518,8.291-11.209,16.467-2.716,3.929-5.749,7.685-7.28,7.4-9.3,14.82a22.531,22.531,0,0,0-.635,3.524q-4.477,4.333-12.22,2.6a29.55,29.55,0,0,1,.289-6.529,29.042,29.042,0,0,1,3.611-9.62,97.6,97.6,0,0,1,7.742-10.891q3.293-4.131,12.191-14.907,3.929-4.853,8.782-12.191,5.893-9.013,8.146-12.076,2.851-3.887,10.068-15.066c.013-.023.027-.047.043-.072Q1268.117,532.338,1268.752,531.5ZM1122.921,659.016a28.045,28.045,0,0,0,2.167-2.167v.809l-1.7,3.062Zm5.084-1.647q1.849,2.253,2.8,3.409l-4.044,2.773.2-5.171Zm123.616,6.644a12.481,12.481,0,0,0,1.329-3.438l1.387-1.3q1.33,3,1.849,4.247a38.525,38.525,0,0,1,1.56,4.391,20.089,20.089,0,0,1-2.282-1.791q-.347-.29-.665-.549a3.629,3.629,0,0,0-1.343-.737,2.8,2.8,0,0,0-.823-.1A4.1,4.1,0,0,0,1251.621,664.013ZM1231.572,704.2v.65q-.018,2.307-.144,4.608a13.522,13.522,0,0,0-4.3.664q.02-1.275-.115-6.471-.062-2.107-.145-4.853-.088-3.242-.274-6.167-.309-5.182-.91-9.389-.054-.417-.115-.824a26.227,26.227,0,0,1-.26-7.164,10.188,10.188,0,0,1,.867-3.12,11.644,11.644,0,0,1,4.131-4.969c.154-.1.308-.183.462-.26a12.941,12.941,0,0,1,2.051,2.427l.231.347a3.9,3.9,0,0,1,.26.492q.144.259.289.548c.039.077.077.164.116.26a8.689,8.689,0,0,1,.751,5.373q-.086.375-.2.722a7.158,7.158,0,0,1-3.264,3.813,77.919,77.919,0,0,0,.058,11.613Q1231.63,701.222,1231.572,704.2Zm39.751,15.586-1.387.129v-.26q.368.038.766.072C1270.9,719.742,1271.107,719.761,1271.323,719.784ZM1232.93,723l2.08.433q2.109.347,10.718.982a56.981,56.981,0,0,1,8.724,1.228A88.2,88.2,0,0,1,1232.93,723Zm-127-8.233a10.926,10.926,0,0,1,3.062,3.987h-.029A11.937,11.937,0,0,0,1105.934,714.771Zm1.56,10.833-.419.072-.043-.1A2.447,2.447,0,0,0,1107.495,725.6Zm3.467,2.831-1.834-.318a2.521,2.521,0,0,0,.506-.2l1.372.246A1.288,1.288,0,0,0,1110.961,728.436Zm2.672.477a2.574,2.574,0,0,0,.4-.231l.968.173.058.014.491.087.65-.029a1.264,1.264,0,0,0-.159.4Zm5.489-2.889-.953-.159.361-.217.144.029.722.13Zm-1.473,3.583q.751-.163,1.863-.506a.723.723,0,0,0,.376-.087q2.268-.795,3.77-1.372l2.123-.39-.058-.058-.462-.087c-.034,0-.068-.024-.1-.072q.3-.124.534-.231l2.094.347,2.99.506,9.36,1.559.635.26.087.058v.115h-.087l-.115.087-26.982,4.882-2.2.144-.058-.375h-.058l-.173-.318,1.04.029,14.127-2.6v-.058l.722-.058-.087-.144h-.058l-.115-.029Z" transform="translate(0 -19.697)" fill="#dbdfff" fill-rule="evenodd"/>
    <path id="Trazado_2802" data-name="Trazado 2802" d="M1349.553,766.411l-.924,1.762q-.722,1.3-1.3,2.138l-1.618-1.329q1.588-2.427,2.427-3.582.2-.261.375-.521.463.665.9,1.329Zm6.125-.521-.087,1.907q-1.647-1.127-2.86-1.964V763.55q.318.26.665.549A20.088,20.088,0,0,0,1355.677,765.89Zm-79.213,36.14a9.694,9.694,0,0,1-1.185.578,8.394,8.394,0,0,0-1.444.809,2.975,2.975,0,0,0-1.444,2.427q0,.57,2.311,1.863a6.683,6.683,0,0,0-.318,1.979,4.36,4.36,0,0,0,.722,2.586,24.1,24.1,0,0,0-3.871-2.759,2.848,2.848,0,0,1-.78-2.716.084.084,0,0,1,.029-.058,5.423,5.423,0,0,1,1.387-2.831,6.7,6.7,0,0,1,1.127-1.1,5.577,5.577,0,0,1,1.5-.781,3.945,3.945,0,0,1,.751-.144h.058A2.582,2.582,0,0,1,1276.464,802.03Z" transform="translate(-97.931 -117.673)" fill="#abb1eb" fill-rule="evenodd"/>
    <path id="Trazado_2803" data-name="Trazado 2803" d="M1155.77,915.369l42.423,7.482h.029l41.846-7.4a20.423,20.423,0,0,0,3.683,3.987,15.946,15.946,0,0,0,9.678,3.8,17.032,17.032,0,0,0,11.3-2.413,31.165,31.165,0,0,1,.116,4.709,4.575,4.575,0,0,0,.491,1.733,2.788,2.788,0,0,0,.795.91,3.034,3.034,0,0,0,1.17.505h.1a1.042,1.042,0,0,0,.13.029q2.224.549,4.449-1.964,1.415-1.531,1.849-1.936a4.67,4.67,0,0,1,2.369-1.068,4.95,4.95,0,0,0,4.507-.9,23.74,23.74,0,0,1,3.9-2.831,28.2,28.2,0,0,0,4.911-2.369,39.988,39.988,0,0,1,4.94-2.484q1.271.116,9.273,1.964a22.918,22.918,0,0,0,9.389.462,9.458,9.458,0,0,0,5.026-2.687,7.253,7.253,0,0,0,1.878-2.976,6.168,6.168,0,0,0,.231-1.2q7.338,2.835,7.338,6.341,0,5.373-17.218,9.158t-41.6,3.784q-24.382,0-41.6-3.784-2.381-.523-4.434-1.083l-24.772,4.377-37.989-6.7q-1.763.458-3.756.9-17.218,3.785-41.6,3.785t-41.6-3.785q-17.218-3.784-17.218-9.158t17.218-9.157q1.122-.248,2.282-.477l.289.1a16.432,16.432,0,0,0-3.524,2.109,4.853,4.853,0,0,0-2.08,3.35,4.415,4.415,0,0,0,.087,3.033c.039.1.077.183.116.26a4.155,4.155,0,0,0,2.456,2.137,51.224,51.224,0,0,0,8.753,2.831,27.541,27.541,0,0,0,9.071.635l4.738.145a26.793,26.793,0,0,1,3.409-.087q2.42.11,3.135.1a.811.811,0,0,0,.072.043,8.74,8.74,0,0,0,6.24-.722,33.662,33.662,0,0,1,6.847-2.889q6.3-2.137,6.615-2.311l.462.116a18.8,18.8,0,0,0,3.727.52,17.021,17.021,0,0,1,4.362,1.04,21.207,21.207,0,0,1,3.351,1.213,1.7,1.7,0,0,0,1.935.2,13.529,13.529,0,0,1,4.045.52.225.225,0,0,1,.2-.087v.087a5.618,5.618,0,0,0,1.1.116.924.924,0,0,0,.26.057,54.029,54.029,0,0,1,5.518,1.5,16.946,16.946,0,0,0,3.871,1.156,3.075,3.075,0,0,0,3.467-1.1q1.618,0,1.993-1.039a2.683,2.683,0,0,0-.722-2.254C1155.321,915.608,1155.547,915.492,1155.77,915.369Z" transform="translate(-7.326 -177.365)" fill="#1d1d1b" fill-rule="evenodd" opacity="0.1"/>
    <path id="Trazado_2804" data-name="Trazado 2804" d="M1246.449,854.9q13.9,3.033,33.482,3.033a169.89,169.89,0,0,0,29.7-2.282,5.712,5.712,0,0,0,2.109,1.936l-33.28,5.864v.029l-32.023-5.648q-.266-1.335-.534-2.773c.075-.034.152-.068.231-.1Q1246.29,854.932,1246.449,854.9Z" transform="translate(-87.59 -156.243)" fill="#8ec2ff" fill-rule="evenodd"/>
    <path id="Trazado_2805" data-name="Trazado 2805" d="M1275.619,845.782a169.889,169.889,0,0,1-29.7,2.282q-19.585,0-33.482-3.033a19.21,19.21,0,0,0,8.667-3.524,10.866,10.866,0,0,0,3.438-4.261,19.373,19.373,0,0,0,2.34.968,24.111,24.111,0,0,1,3.871,2.759,4.027,4.027,0,0,0,1.993,1.4q1.416.491,4.911,1.878a14.349,14.349,0,0,1,3.64,2.283,3.832,3.832,0,0,0,2.889,1.2,8.384,8.384,0,0,1,1.372-.13.293.293,0,0,0,.13.029,2.959,2.959,0,0,0,1.3-.578l.867-.982a5.837,5.837,0,0,0,.52-1.848,31.786,31.786,0,0,1,.115-5.143,18.537,18.537,0,0,0,12.278,2.658,17.494,17.494,0,0,0,10.516-4.159,21.34,21.34,0,0,0,3.38-3.5q.151,3.492.26,7.482A6.136,6.136,0,0,0,1275.619,845.782Zm12.162-6.615-1.82-.838a2.4,2.4,0,0,1-.838-1.3c-.1-.482-.144-.731-.144-.751a.322.322,0,0,0,.029-.144q.127-2.3.144-4.608c.107.034.213.066.318.1a42.309,42.309,0,0,1,1.445,4.074A34.959,34.959,0,0,1,1287.781,839.167Zm-43.333,14.473v38.22l-42.423-7.482a15.44,15.44,0,0,0,6.341-6.789,33.99,33.99,0,0,0,2.975-9.736c.016-.064.031-.127.043-.188.084.062.165.124.245.188q4.045-3.033,2.86-10.516-.945-3.735-2.066-9.346Zm-79.1-7.8.867-.087q-.464.282-.867.534Zm8.724,5.807a16.4,16.4,0,0,0-1.82.708l-.144-.029.029-.014a7.2,7.2,0,0,1,2.224-.9Q1174.212,851.531,1174.074,851.646Z" transform="translate(-53.58 -146.374)" fill="#367dd1" fill-rule="evenodd"/>
    <path id="Trazado_2806" data-name="Trazado 2806" d="M1381.319,857.118v.26l-.823.072q.148-.164.347-.375Q1381.074,857.1,1381.319,857.118Zm-79.069,45.529V864.369l33.28-5.864q.328.185.693.347a40.383,40.383,0,0,0,8.089,1.618q-.289.925-.491,1.56-.346,1.127-.375,1.271-.115.376-.26.867-.433,1.416-1.242,3.7a34.751,34.751,0,0,0-2.253,15.051q.1,1.1.289,2.152a7.5,7.5,0,0,0,.462,2.99,1.05,1.05,0,0,1,.058.144,30.216,30.216,0,0,0,3.626,7.049l-41.846,7.4Z" transform="translate(-111.382 -157.162)" fill="#60a2f0" fill-rule="evenodd"/>
    <path id="Trazado_2807" data-name="Trazado 2807" d="M1369.778,860.706q-.838-.9-1.878-2.138a5.754,5.754,0,0,1-1.271-3.033,4.846,4.846,0,0,1,.433-3q.318-.578.52-.9-2.629,2.773-6.009,6.587-1.084,1.234-1.979,2.383c-.154-.029-.3-.054-.448-.072a3.32,3.32,0,0,0-3.062,1.04l-.058.058-.058.057a.309.309,0,0,0-.058.087l-.058.057a9.638,9.638,0,0,0-1.647,5.287l.015,1.531a8.021,8.021,0,0,1-1.026.838,16.277,16.277,0,0,1-3.611,1.993,26.666,26.666,0,0,0,4.651-1.878v.231a17.031,17.031,0,0,1-11.3,2.413,15.946,15.946,0,0,1-9.678-3.8,20.427,20.427,0,0,1-3.683-3.987,30.219,30.219,0,0,1-3.626-7.049c.088.066.175.134.26.2a22.831,22.831,0,0,0,2.744,1.705,23.624,23.624,0,0,0,9.331,2.484q.978.058,1.993.058a17.217,17.217,0,0,0,9.447-2.918,74.564,74.564,0,0,0,9.1-7.453q5.951-5.431,7.771-6.731a6.666,6.666,0,0,1,3.265-1.387,3.544,3.544,0,0,1,2.715,1.069,3.094,3.094,0,0,1,.982,3,21.685,21.685,0,0,0-.26,4.247v.867q.231,5.46,5.893,2.658a7.09,7.09,0,0,1-4.073,3.784q-.376.145-.809.318l-.115.043-.867.3Q1371.873,860.15,1369.778,860.706Zm32.731-7.251q-2.494,1.627-4.608,3.048l-.274.187-2.427,1.531q-1.762.983-3.207,1.907-5.4,2.773-6.442,3.351l-1.589.693a39.975,39.975,0,0,0-4.94,2.484,28.2,28.2,0,0,1-4.911,2.369,2.607,2.607,0,0,0,.722-2.484.083.083,0,0,0-.029-.058,19.026,19.026,0,0,0,5.547-3.119,75.38,75.38,0,0,1,11.411-7.96q.814-.464,1.647-.91a88.184,88.184,0,0,0,13.087-8.7,69.943,69.943,0,0,1,13.52-8.609,14.326,14.326,0,0,0,7.424-8.233,9.984,9.984,0,0,1-.144,3.9,9.733,9.733,0,0,1-4.824,6.789,96.963,96.963,0,0,0-10.227,6.529Q1412.158,846.261,1402.509,853.454ZM1268.45,815.1a9.651,9.651,0,0,0,.939.332.084.084,0,0,0-.029.058,2.848,2.848,0,0,0,.78,2.716,19.374,19.374,0,0,1-2.34-.968A9.543,9.543,0,0,0,1268.45,815.1Zm6.4-5.937q-2.34-.636-3.9-1.126c-.188-.079-.371-.146-.549-.2-.038-.009-.076-.018-.116-.029l-.289-.116a.225.225,0,0,0-.087-.029,1.138,1.138,0,0,1-.144-.057,6.748,6.748,0,0,0-.722-.289q-.194-.084-.375-.174,0-1.569,0-2.961,2.2-.377,2.34-3.886v-.924a23.691,23.691,0,0,0-.289-4.622c-.016-.1-.031-.2-.043-.3a3.377,3.377,0,0,1,1.112-2.961,4.51,4.51,0,0,1,1.806-1.068,3.4,3.4,0,0,1,1.17-.116,7.5,7.5,0,0,1,3.553,1.531q1.965,1.415,8.436,7.309a83.158,83.158,0,0,0,9.765,8q.073.042.144.087a18.6,18.6,0,0,0,10.256,3.178q1.1,0,2.167-.057a27.257,27.257,0,0,0,7.309-1.459q.641-.231,1.257-.491.153,2.649.274,5.676a21.336,21.336,0,0,1-3.38,3.5,17.5,17.5,0,0,1-10.516,4.159,18.538,18.538,0,0,1-12.278-2.658v-.231a29.4,29.4,0,0,0,5.056,2.022,16.441,16.441,0,0,1-3.929-2.167,7.155,7.155,0,0,1-1.1-.9v-1.675q-.317-3.93-1.791-5.749l-.058-.058a.782.782,0,0,1-.2-.231,3.563,3.563,0,0,0-3.322-1.127,1.622,1.622,0,0,0-.462.116q-.754-.976-1.632-2.008-.259-.305-.534-.621a.472.472,0,0,1-.043-.058q-3.672-4.093-6.486-7.107.2.347.549.982a5.246,5.246,0,0,1,.462,3.264,6.053,6.053,0,0,1-1.358,3.293q-.245.289-.477.564Q1275.555,808.394,1274.849,809.168Zm54.658,38.076q-3.894,3.423-4.073,7.034-.184-1.05-.289-2.152a34.754,34.754,0,0,1,2.253-15.051q.81-2.283,1.242-3.7a5.52,5.52,0,0,0,.607.144A65.387,65.387,0,0,1,1340.6,837.1q1.678.97,3.134,1.791-3.879,1.909-8.392,4.392A31.6,31.6,0,0,0,1329.507,847.243ZM1309.3,788.6q-3.229-1.718-6.11-3.149,1.084-.6,2.3-1.3.973,3.251,3.654,3.438Q1309.218,788.11,1309.3,788.6Z" transform="translate(-96.837 -126.371)" fill="#0d2a77" fill-rule="evenodd"/>
    <path id="Trazado_2808" data-name="Trazado 2808" d="M1372.715,858.914a4.777,4.777,0,0,0-1.387-.722,3.424,3.424,0,0,0-.693-.144h-.058a2.256,2.256,0,0,0-1.069.144,2.467,2.467,0,0,0-.751.433l1.127-1.849.116-.029q2.1-.556,3.553-1.04l.867-.3.115-.043q.433-.174.809-.318a7.089,7.089,0,0,0,4.073-3.784q.622-.546,1.242-1.169a46.631,46.631,0,0,0,6.385-8.364q2.578-4.418,4.463-7.381,1.128-1.789,2.008-3.048,2.716-3.7,10.2-6.789,4.16-1.7,5.691-2.484a18.177,18.177,0,0,0,4.969-3.7,14.765,14.765,0,0,1,6.038-.289,8.956,8.956,0,0,1,3.279,1.184,6.975,6.975,0,0,1,1.17.9,29.917,29.917,0,0,0-3.64.808,28.251,28.251,0,0,0-6.471,2.8,89.422,89.422,0,0,0-8.955,5.907q-2.165,1.611-4.247,3.366a20.945,20.945,0,0,0-4.131,4.8,43.548,43.548,0,0,1-11.469,12.191l-.766.549Q1379.073,854.892,1372.715,858.914ZM1272.124,807.55q-1.631-1.031-3.25-2.081.005-1.183.014-2.282.181.09.375.174a6.713,6.713,0,0,1,.722.289,1.133,1.133,0,0,0,.145.057.227.227,0,0,1,.087.029l.289.115c.039.011.078.02.116.029.177.057.361.124.549.2q1.56.491,3.9,1.126a.245.245,0,0,1,.116.029l1.242,1.993a3.218,3.218,0,0,0-.838-.462,2.582,2.582,0,0,0-1.156-.144h-.058a3.942,3.942,0,0,0-.751.144A5.576,5.576,0,0,0,1272.124,807.55Zm-3.8-29.814a14.148,14.148,0,0,1,4.637-2.282l3.062-.361.433-.043a31.84,31.84,0,0,1,3.958-.275h.014a35.1,35.1,0,0,1,7.93.9h.014a44.478,44.478,0,0,1,6.89,2.181q.257.077.491.173a.6.6,0,0,0,.058.029l.809.347q3.091,1.3,6.789,3.091,2.881,1.43,6.11,3.149.184,1.248.347,2.268a.748.748,0,0,1-.087-.029c-.121-.046-.241-.094-.361-.144l-.375-.144c-.189-.071-.377-.143-.563-.217l-31.633-7.092-.737.043-.506.029-6.543,1.474-.289.129c-.077.036-.155.069-.231.1q-.066-1.187-.144-2.311Q1268.363,778.229,1268.325,777.736Zm61.4,65.549a31.588,31.588,0,0,1,5.836-3.957q4.513-2.483,8.392-4.392,3.357-1.635,6.24-2.846l.737-.3q.246-.1.491-.2a40.431,40.431,0,0,1,6.37-2.007q.277.034.563.072h.058q.491.057.953.115c.043.006.086.011.13.014l-.015.015.029-.015q.5.087.982.188.433.029.924.058c.251,0,.5.009.751.029h1.213q.578-.029,1.1-.029.288-.029.549-.058a1.461,1.461,0,0,0,.52-.087,3.085,3.085,0,0,0,.549-.116,1.923,1.923,0,0,0,.462-.058c.289-.1.616-.2.982-.318a3.648,3.648,0,0,0,1-.4c.065.012.128.021.188.029a21.72,21.72,0,0,1,3.395.26q4.193.693,5.287,3.236,1.483,3.453,1.95,4.42-.318-.333-.665-.635-9.856-8.638-43.3,4.651Q1332.637,842.044,1329.728,843.285Z" transform="translate(-97.058 -122.413)" fill="#395fc1" fill-rule="evenodd"/>
    <path id="Trazado_2809" data-name="Trazado 2809" d="M1375.184,865.818a5.145,5.145,0,0,0-1.271-2.6,5.7,5.7,0,0,0-1.04-1.011q6.359-4.021,12.465-8.378l.766-.549a43.545,43.545,0,0,0,11.469-12.191,20.942,20.942,0,0,1,4.131-4.8q2.082-1.754,4.247-3.366a89.445,89.445,0,0,1,8.956-5.907,28.243,28.243,0,0,1,6.471-2.8,29.9,29.9,0,0,1,3.64-.808,6.979,6.979,0,0,1,.722.779,7.892,7.892,0,0,1,2.08,4.1,14.326,14.326,0,0,1-7.424,8.233,69.943,69.943,0,0,0-13.52,8.609,88.179,88.179,0,0,1-13.087,8.7q-.834.446-1.647.91a75.37,75.37,0,0,0-11.411,7.959A19.026,19.026,0,0,1,1375.184,865.818Zm-106.152-57.056q1.618,1.05,3.25,2.081a6.7,6.7,0,0,0-1.127,1.1,5.423,5.423,0,0,0-1.387,2.831,9.65,9.65,0,0,1-.939-.332,10.563,10.563,0,0,0,.188-1.834Q1269.03,810.58,1269.032,808.763Zm49-1.025q-.616.26-1.257.49a27.257,27.257,0,0,1-7.309,1.459q-1.069.057-2.167.057a18.6,18.6,0,0,1-10.256-3.178c-.047-.03-.1-.059-.144-.087a83.159,83.159,0,0,1-9.764-8q-6.471-5.893-8.436-7.309a7.5,7.5,0,0,0-3.553-1.531,3.4,3.4,0,0,0-1.17.116,4.509,4.509,0,0,0-1.806,1.068,3.378,3.378,0,0,0-1.112,2.961c.013.1.027.2.043.3a23.691,23.691,0,0,1,.289,4.622v.924q-.137,3.509-2.34,3.886,0-3.566-.029-5.965,0-7.4-.318-13.2c.076-.032.154-.065.231-.1l.289-.129,6.543-1.474.506-.029.737-.043,31.633,7.092c.186.073.375.146.563.217l.376.144q.179.075.361.144a.756.756,0,0,0,.087.029q.523,3.311.766,4.261a13.153,13.153,0,0,0,.433,1.618q.9,1.935,1.964,2.022a4.078,4.078,0,0,0,3.611-1.213,3.623,3.623,0,0,0,.318-.462q.365,3.35.635,6.933Q1317.9,805.4,1318.028,807.738Zm61.49,32.485a13.474,13.474,0,0,1,.159,5.706l-.477,1.835a7.51,7.51,0,0,0-.231,3.409q0,.134.361,2.08.107.57.245,1.3-5.663,2.8-5.893-2.658v-.867a21.685,21.685,0,0,1,.26-4.247,3.094,3.094,0,0,0-.982-3,3.544,3.544,0,0,0-2.716-1.069,6.666,6.666,0,0,0-3.265,1.387q-1.82,1.3-7.771,6.731a74.558,74.558,0,0,1-9.1,7.453,17.217,17.217,0,0,1-9.447,2.918q-1.016,0-1.993-.058a23.624,23.624,0,0,1-9.331-2.484,22.83,22.83,0,0,1-2.744-1.7c-.085-.068-.172-.136-.26-.2a1.048,1.048,0,0,0-.058-.144,7.5,7.5,0,0,1-.462-2.99q.179-3.612,4.073-7.034,2.909-1.241,5.662-2.34,33.447-13.289,43.3-4.651Q1379.2,839.89,1379.518,840.223Z" transform="translate(-97.217 -125.706)" fill="#193c96" fill-rule="evenodd"/>
    <path id="Trazado_2810" data-name="Trazado 2810" d="M1379.238,849.929q-.139-.73-.246-1.3-.36-1.946-.361-2.08a7.508,7.508,0,0,1,.231-3.409l.477-1.834a13.472,13.472,0,0,0-.159-5.706q-.467-.967-1.95-4.42-1.094-2.543-5.287-3.236a40.5,40.5,0,0,1,5.417-2.687q1.33-.606,5.807-2.34a24.061,24.061,0,0,1,6.659-2.094c.046.033.09.067.13.1q1.386,1.156,5.662.635a18.547,18.547,0,0,0,7.28-2.339q.8-.491,1.4-.867.715-.073,1.488-.144a66.634,66.634,0,0,0,8.407-1.214,18.176,18.176,0,0,1-4.969,3.7q-1.531.78-5.691,2.484-7.482,3.091-10.2,6.789-.88,1.259-2.008,3.048-1.885,2.962-4.463,7.381a46.624,46.624,0,0,1-6.385,8.364Q1379.86,849.383,1379.238,849.929ZM1360.6,855.62a7.49,7.49,0,0,0-.968-.3q.894-1.149,1.979-2.383,3.38-3.813,6.009-6.587-.2.318-.52.9a4.845,4.845,0,0,0-.433,3,5.753,5.753,0,0,0,1.271,3.033q1.04,1.242,1.878,2.138l-.116.029-1.127,1.849a5.654,5.654,0,0,1-3.64.953.445.445,0,0,1-.029-.043,6.146,6.146,0,0,0-1.791-1.488,16.064,16.064,0,0,0-2.2-.982C1360.807,855.7,1360.7,855.659,1360.6,855.62Zm-87.822-81.5a14.152,14.152,0,0,0-4.637,2.282q-.166-2.719-.245-4.781Q1270.372,772.806,1272.782,774.124Zm84.832,54.124a40.424,40.424,0,0,0-6.37,2.007q-.245.1-.491.2l-.737.3q-2.883,1.211-6.24,2.846-1.457-.821-3.135-1.791a65.383,65.383,0,0,0-11.353-3.582,5.513,5.513,0,0,1-.607-.144q.145-.491.26-.867.029-.145.375-1.271.2-.636.491-1.56a88.208,88.208,0,0,0,21.522,2.643q.906.218,1.7.462l.2.072a3.664,3.664,0,0,0,.491.087q.231.087.52.173l.4.058.751.057c.328.038.636.077.925.115q.491.087,1.011.145C1357.431,828.218,1357.522,828.231,1357.615,828.248Zm10.877-.665c.02.033.039.066.058.1-.06-.008-.123-.017-.188-.029C1368.406,827.632,1368.45,827.607,1368.491,827.583Zm-62.963-48.721q-1.213.7-2.3,1.3-3.7-1.792-6.789-3.091l-.809-.347a.591.591,0,0,1-.058-.029,49.467,49.467,0,0,0,9.432-2.513q-.024,1.065.015,1.676A13.782,13.782,0,0,0,1305.528,778.862Zm-16.539,43.478q-.058-.636-.058-1.358.346-5.807.289-7.656-.029-.664-.058-1.3a19.968,19.968,0,0,0-1.56-5.951q-.2-.492-.462-1.011t-.491-1q-.107-.2-.2-.39a3.563,3.563,0,0,1,3.322,1.127.266.266,0,0,0,.145.144.342.342,0,0,1,.058.087l.058.058q1.473,1.82,1.791,5.75v1.675a7.16,7.16,0,0,0,1.1.9,16.439,16.439,0,0,0,3.929,2.167,29.39,29.39,0,0,1-5.056-2.022v.231a31.768,31.768,0,0,0-.116,5.143,5.836,5.836,0,0,1-.52,1.848l-.867.982A2.957,2.957,0,0,1,1288.989,822.34Zm67.86,50.064a3.031,3.031,0,0,1-1.17-.505,2.788,2.788,0,0,1-.794-.91,4.575,4.575,0,0,1-.491-1.733,31.187,31.187,0,0,0-.115-4.709v-.231a26.665,26.665,0,0,1-4.651,1.878,16.284,16.284,0,0,0,3.611-1.993,8.032,8.032,0,0,0,1.026-.838l-.015-1.531a9.639,9.639,0,0,1,1.647-5.287l.058-.057a.308.308,0,0,1,.058-.087l.058-.057.058-.058a3.32,3.32,0,0,1,3.062-1.04l-.636,1.271c-.149.3-.289.6-.419.911a17.966,17.966,0,0,0-1.415,5.5q-.056.588-.072,1.184-.057,1.7.26,7.049a12.209,12.209,0,0,1-.058,1.228Zm-79.618-65.953a6.384,6.384,0,0,1-.982-.549l-1.242-1.993a.245.245,0,0,0-.115-.029q.7-.774,1.574-1.776.231-.276.477-.564a6.052,6.052,0,0,0,1.358-3.293,5.244,5.244,0,0,0-.462-3.265q-.347-.635-.549-.982,2.813,3.014,6.486,7.107a.483.483,0,0,0,.043.058q.276.316.535.621.879,1.032,1.632,2.008-.185.03-.375.072a7.074,7.074,0,0,0-.693.217l-.029.015q-.953.259-2.86.968a22.439,22.439,0,0,1-4.131,1.242A2.943,2.943,0,0,0,1277.231,806.451Z" transform="translate(-96.879 -121.083)" fill="#061e5d" fill-rule="evenodd"/>
    <path id="Trazado_2811" data-name="Trazado 2811" d="M1463.614,911.8a19.659,19.659,0,0,0,4.449,1.7,63.812,63.812,0,0,1,6.355,1.328,7.251,7.251,0,0,1-1.878,2.976,9.457,9.457,0,0,1-5.027,2.687,22.918,22.918,0,0,1-9.389-.462q-8-1.849-9.273-1.964l1.589-.693a4.352,4.352,0,0,0,4.449.578q2.08-1.011,1.993-3.929,1.445-.924,3.207-1.907a14.14,14.14,0,0,1-.491,3.207q-.2.924-.867,3.12,3.033.289,4.651-2.8A3.767,3.767,0,0,0,1463.614,911.8ZM1431.4,926.057l-.087.072q-.084.074-.173.144l-.1.072q-.21.155-.448.3a4.67,4.67,0,0,0-2.369,1.068q-.433.4-1.849,1.936-2.224,2.513-4.449,1.964a1.044,1.044,0,0,1-.13-.029h-.1v-.014a12.211,12.211,0,0,0,.058-1.228q-.318-5.344-.26-7.049.016-.6.072-1.184a17.963,17.963,0,0,1,1.415-5.5c.13-.307.27-.609.419-.911l.636-1.271c.144.019.294.043.448.072a7.474,7.474,0,0,1,.968.3q-.173.433-.433,1.1a10.421,10.421,0,0,0-.78,3.64q0,.022.13.953.042.322.1.751a2.14,2.14,0,0,0,2.167,1.675,26.428,26.428,0,0,0,3.207-.347c-.038.116-.077.25-.116.4l-.058.231c-.006.024-.011.048-.014.072l-.029.1c-.032.1-.065.209-.1.318q-.152.578-.289,1.054l-.78,2.008a3.829,3.829,0,0,0,2.716-2.6q.1-.287.173-.563.036-.17.058-.332c.023-.1.043-.2.058-.3a4.224,4.224,0,0,0,.029-.65q.867-.116,1.445-.174c.024.2.038.388.043.578a4.112,4.112,0,0,1-.3,1.632c-.008.023-.018.047-.029.072-.023.054-.047.106-.072.159l-.015.029a4.2,4.2,0,0,1-.563.852.136.136,0,0,0-.043.058l-.058.058a1.7,1.7,0,0,1-.144.144l-.029.029-.058.058c0,.02-.02.039-.058.058C1431.538,925.933,1431.471,926,1431.4,926.057Z" transform="translate(-161.726 -180.268)" fill="#9d0948" fill-rule="evenodd"/>
    <path id="Trazado_2812" data-name="Trazado 2812" d="M1344.588,753.766q-3.407-.435-5.951-.722-.455-.78-2.051-.549l-1.675.159c-.217-.023-.424-.042-.621-.058q-.4-.034-.766-.072-.245-.02-.477-.043c.023-.022.048-.046.072-.072a12.89,12.89,0,0,0,1.04-1.3q.462-.665.751-1.156a1.229,1.229,0,0,0-.26-1.589l-1.04-1.126a3.618,3.618,0,0,0-.924-.752,9.1,9.1,0,0,0-1.127-.2q-.838-.116-1.156-.144a.545.545,0,0,0-.549.232.791.791,0,0,0-.173.606q.115.608,1.271.953c.154.02.366.221.635.607q.173.288.607.924.375.433-.925,1.329a1.78,1.78,0,0,0-.462.318q-.6.349-1.083.636l-.39.014q-1.6-2.7-1.791-2.99c-.167-.24-.325-.487-.477-.736.058-.02.121-.044.188-.072a.118.118,0,0,0,.087-.029l.058-.058a.757.757,0,0,1,.173-.087l.693-.4q.4-.231.78-.463a1.74,1.74,0,0,1,.347-.2q.838-.952,0-1.444a5.087,5.087,0,0,0-2.369.232q-.26.086-.578.2a3.347,3.347,0,0,0-.477.159,14.313,14.313,0,0,1-.506-1.431q-.126-.458-.231-.924a13.12,13.12,0,0,1,.115-6.471l1.878.116a4,4,0,0,0,1.3,2.109q.75.463.78.578a4.846,4.846,0,0,0,.231,2.138q1.415,2.6,8.522,6.529,6.558,3.669,6.558,4.622Q1344.617,753.275,1344.588,753.766Zm-69.651-135.893a2.474,2.474,0,0,1-1.184.924l-8.9,3.062a11.908,11.908,0,0,0-1.185-1.1q-1.7-1.242-7.078-2.109c-.327-.058-.626-.116-.9-.173a.485.485,0,0,1,.029-.144,2.5,2.5,0,0,0,.635-2.658.48.48,0,0,0-.029-.144,2.6,2.6,0,0,0-.145-.347l-1.1-1.04a1.373,1.373,0,0,0-.462-.26q.347-.087.751-.173h.058a3.521,3.521,0,0,1,.433.029l3.987.347a55.182,55.182,0,0,0,5.778.52q6.586.087,8.84-5.258a4.982,4.982,0,0,0,2.369.664,14.851,14.851,0,0,0,2.427-.029,9.474,9.474,0,0,0-1.7,3.207,11.69,11.69,0,0,1-1.618,3.322q-.607.9-.924,1.329A.119.119,0,0,0,1274.937,617.872Zm83.807,168.451q.087,2.918-1.993,3.929a4.352,4.352,0,0,1-4.449-.578Q1353.341,789.1,1358.743,786.323Zm5.633-3.438a4.046,4.046,0,0,1,1.1,1.213,3.768,3.768,0,0,1-.231,3.842q-1.617,3.091-4.651,2.8.665-2.2.867-3.12a14.147,14.147,0,0,0,.491-3.207Zm-157.56-118.531.347-.26q.173,1.069.376,2.4.2,1.241.549,3.178a4.505,4.505,0,0,1,.245,1.068,2.514,2.514,0,0,1-.332,1.647,6.264,6.264,0,0,1-1.849,2.167q-1.387,1.27-5.749,4.8a19.349,19.349,0,0,1-6.038,3.379q1.994-1.993,3.062-3,1.965-1.791,3.091-3.033a9.421,9.421,0,0,0,1.935-8.031,2.851,2.851,0,0,0,2.788-.578c.084-.091.165-.187.246-.289A5.522,5.522,0,0,0,1206.817,664.354Zm-13.78,18.75q-1.3,1.126-.664,3.379l-3.322-.664a.255.255,0,0,1,.029-.115v-2.456A28.493,28.493,0,0,0,1193.037,683.1Zm110.067-1.733a19.315,19.315,0,0,0,5.287,7.713,17.585,17.585,0,0,0,8.147,4.362,12.479,12.479,0,0,1-1.329,3.438,78.506,78.506,0,0,1-6.9-4.1,68.631,68.631,0,0,0-7.193-4.247,2.012,2.012,0,0,1-1.329-1.416,9.47,9.47,0,0,1-.231-2.051q.057-3.062.173-4.564Q1300.937,680.763,1303.1,681.371Z" transform="translate(-63.587 -52.567)" fill="#e1825f" fill-rule="evenodd"/>
    <path id="Trazado_2813" data-name="Trazado 2813" d="M1194.335,799.8a14.669,14.669,0,0,0-5.315,1.531,35.457,35.457,0,0,0-4.911,2.744q-2.658.289-8,.433a15.1,15.1,0,0,0-7.107,2.311,46.029,46.029,0,0,0,1.531-4.679v-.015q.186-.669.347-1.343.539-2.223.867-4.507a37.282,37.282,0,0,0,3.582,1.069q3.068.928,11.252.664.977-.037,2.036-.087a20.735,20.735,0,0,0,6.457-1.257,7.407,7.407,0,0,0,4.9-5.3q.434-1.51.795-3.018.322-1.369.578-2.731.44-2.269.708-4.536a62.159,62.159,0,0,0,.4-8.32,13.41,13.41,0,0,0-.1-3.8q-.164-1.356-.477-3.106a27.321,27.321,0,0,1-.2-7.4,24.625,24.625,0,0,1,1.661-6.486,26.154,26.154,0,0,1,1.574-3.221,14.736,14.736,0,0,1,6.861-6.731,13.466,13.466,0,0,1,9.086-.289c.058,0,.087.02.087.058a13.059,13.059,0,0,1,3.64,5.229c.031.188.06.376.087.563q-.139-.359-.289-.708-4.045-5.835-9.389-4.016a14.61,14.61,0,0,0-3.351,1.82,15.6,15.6,0,0,0-6.385,8.783,16.479,16.479,0,0,0-.2,4.506q.347.577.635,1.184,2.86,5.922,3.582,15.4.2,2.974.4,8.811a69.679,69.679,0,0,0,.924,8.493v.058q-.375.144-.838.376a16.262,16.262,0,0,0-2.542.982q-3,1.242-6.587,3.092Q1194.885,799.1,1194.335,799.8Zm19.63,10.01q1.121,5.61,2.066,9.346,1.185,7.482-2.86,10.516c-.08-.064-.162-.126-.245-.188a19.458,19.458,0,0,0,.65-3.365,5.206,5.206,0,0,0-.693-2.947,23.173,23.173,0,0,0-2.831-3.669q-1.675-1.878-3.611-3.871a18.68,18.68,0,0,0-3.553-2.976,9.746,9.746,0,0,0-2.542-1.083q3.234-.984,6.24-2.008,2.669-.815,6.847-2.557.268,1.439.534,2.773Zm93.846-51.321-1.069-1.56-.144-.2q-.433-.665-.9-1.329a11.414,11.414,0,0,1,2.051-2.167,2.791,2.791,0,0,1,.823.1,3.629,3.629,0,0,1,1.344.737v3.842Zm-63.122,32.3q.1.191.2.39.228.471.491,1t.462,1.011a19.96,19.96,0,0,1,1.56,5.951q.029.636.058,1.3.057,1.849-.289,7.656,0,.722.058,1.358a.293.293,0,0,1-.13-.029,8.386,8.386,0,0,0-1.372.13,3.832,3.832,0,0,1-2.889-1.2,14.355,14.355,0,0,0-3.64-2.283q-3.5-1.386-4.911-1.878a4.027,4.027,0,0,1-1.993-1.4,4.361,4.361,0,0,1-.722-2.586,6.684,6.684,0,0,1,.318-1.979v-.014c.067.071.135.148.2.231q1.5,1.56,5.893,1.56,5.2,0,6.7-2.08a2.546,2.546,0,0,0,.491-2.224,8.466,8.466,0,0,0-.722-2.946,12.778,12.778,0,0,1-.607-1.777q.19-.042.375-.072A1.627,1.627,0,0,1,1244.689,790.785Z" transform="translate(-55.121 -108.191)" fill="#0d8e90" fill-rule="evenodd"/>
    <path id="Trazado_2814" data-name="Trazado 2814" d="M1355.243,777.018l-1.473-6.241,2.109-.578,2.658,5.46-.144,3.958ZM1277.85,810.5a10.527,10.527,0,0,1,.982-2.167,5.334,5.334,0,0,1,2.6-2.484,2.935,2.935,0,0,1,.664-.144,22.436,22.436,0,0,0,4.131-1.242q1.909-.71,2.86-.968l.029-.014a7.057,7.057,0,0,1,.693-.217,12.775,12.775,0,0,0,.607,1.777,8.468,8.468,0,0,1,.722,2.946,2.546,2.546,0,0,1-.491,2.224q-1.5,2.08-6.7,2.08-4.391,0-5.893-1.56C1277.984,810.648,1277.917,810.571,1277.85,810.5Z" transform="translate(-101.08 -120.481)" fill="#1fbcbf" fill-rule="evenodd"/>
    <path id="Trazado_2815" data-name="Trazado 2815" d="M1270.872,721.971a78.975,78.975,0,0,0-2.773-7.944,31.628,31.628,0,0,0-4.189-7.308q5.027.4,6.587,5.719A22.732,22.732,0,0,1,1270.872,721.971Zm-211.481,18.72,40.459,7.887a2.568,2.568,0,0,1,1.849,1.474l15.716,31.113q.635,1.243-.578,1.011L1075.4,774.1l-.072-.015a2.532,2.532,0,0,1-1.791-1.43.285.285,0,0,1-.029-.044L1057.788,741.5q-.635-1.242.549-1.011Zm146.395-93.658-3.929,3.438v-3.64l1.618-3.929Zm-7.453-.78-2.138,4.882-.722-4.536,2.86-3.9Zm-60.522,56.421q.953,2.281,1.907,4.478l-.838.578q-.953-1.157-2.8-3.409Zm-4.651-1.907V703.8a28.02,28.02,0,0,1-2.167,2.167l-.2-.751q.2.664.78-.4a10.421,10.421,0,0,0,.867-2.051A9.442,9.442,0,0,0,1133.159,700.767Zm127.6,16.178,1.473,6.241-4.767-3.9q.578-.838,1.3-2.138l.924-1.762Zm4.767,4.882-2.658-5.46v-1.56q1.213.836,2.86,1.964Zm-185.062,35.967a4,4,0,0,0-.2,3.727,6.939,6.939,0,0,0,2.947,3.438,8.563,8.563,0,0,0,1.5.766,6.7,6.7,0,0,0,2.889.418,3.927,3.927,0,0,0,3.467-5.576,6.909,6.909,0,0,0-2.976-3.437,8.035,8.035,0,0,0-1-.535,6.539,6.539,0,0,0-3.394-.621A3.842,3.842,0,0,0,1080.466,757.793Zm51.263,16.8q.883-.341,1.5-.607c.033.048.067.072.1.072l.4.087h.058v.058h.058Zm-6.009,1.965,9.172,1.6-.058.058.173-.029h.058l.087.144-.722.058v.058l-14.127,2.6-1.04-.029.173.318h.058l.058.376,2.2-.145,26.982-4.882.116-.087h.087l.145,1.011a1.6,1.6,0,0,1-1.5,1.213l-6.023,1.1-19.6,3.553a7.574,7.574,0,0,1-2.311.144l-.26-.043c-.14-.032-.275-.065-.4-.1l.52-.664.058-.318v-.462l-.534-1.083a.5.5,0,0,0,.058-.491l.563.1h.376l.78-.2-1.863-.274a.626.626,0,0,1-.043-.072l-.087-.159,2.369.477,2.051-.318-3.091-.693h-.115l-1.387.2-.087-.174.838-.087-.231-.144-.751-.058-.087-.173.116.058.26.028,1.791-.433-1.936-.347h-.2l-.318.116-.173-.347,1.358.116,1.791-.232-.144-.057-1.936-.433-1.228.274-.043-.087.693-.159-.173-.144-.751-.144-.043-.072,2.181-.389-2.08-.318-.4.1-.2-.391.838.144,1.517-.289c.035.03.074.058.116.087l-1.228.232,2.369.433,2.571-.26-.751-.159-.029-.014-.953-.2q.2-.056.39-.13l2.412.419a.435.435,0,0,0,.029.217l-.665-.1-2.109.462,2.2.26,2.08-.318-.607-.116Q1125.332,776.648,1125.72,776.557Zm144.112-25.437q.289-1.676.925-5.633l.953,5.749Zm-82.391.347a6.384,6.384,0,0,0,.982.549,5.333,5.333,0,0,0-2.6,2.484,10.539,10.539,0,0,0-.982,2.167v.014q-2.311-1.292-2.311-1.863a2.975,2.975,0,0,1,1.445-2.427,8.393,8.393,0,0,1,1.444-.809A9.694,9.694,0,0,0,1186.6,751,3.215,3.215,0,0,1,1187.441,751.467Zm-71.471,22.591h-.087v.029l-.737-1.459.419-.072.9-.173A13.229,13.229,0,0,1,1115.97,774.058Zm3.105,1.055-1.372-.246a6.925,6.925,0,0,0,1.358-.924q.9-.78,1.04-.867.2-.057-.636,1.213A2.884,2.884,0,0,0,1119.076,775.113Zm-1.878-.044,1.834.318a.8.8,0,0,0,.043.26l-2.614-.419-.116-.217A1.15,1.15,0,0,0,1117.2,775.069Zm10-2.094q-.552.437-.65.534a13.6,13.6,0,0,0-2.109,2.109,2.1,2.1,0,0,0-.159.259l-.65.03-.491-.087-.058-.014-.968-.173a2.592,2.592,0,0,0,.65-.65c.058-.039.125-.086.2-.144.154-.135.25-.2.289-.2a.787.787,0,0,1,.347-.2l2.643-1.618Zm-8.912,4.146,1.733.4,2.109-.4-1.762-.346-.231.057Zm6.789.376-.058-.232-.925.087-1.444-.2-1.791.492,2.138.259,1.791-.318h.058v.144l-1.416.318,5.084.867.289.029,1.849-.433-1.213-.144.116-.087h.087l-.087-.057.607-.058.058.2,2.253.289.867-.145-.058-.4-1.964-.376-.52.087v-.144l-2.225-.433-.347.173-1.791.2v.058Zm0-.463,1.936.347h.2l.9-.116.058-.087-1.935-.347-.578.029Zm-.953,1.3-1.849.347v.058l3.784.578,2.109-.26-3.727-.693-.289-.03Zm-.491-.115-1.82-.347-.318.029-1.762.347,1.762.318h.26l1.878-.289Zm2.08,1.184h-.116v-.058l-1.906-.289-1.993.4.058.058,2.167.317Zm-4.42-.75-2.138.4,1.791.26,2.167-.26Z" transform="translate(-8.071 -66.648)" fill="#bcc1ee" fill-rule="evenodd"/>
    <path id="Trazado_2816" data-name="Trazado 2816" d="M1330.447,798.363a63.777,63.777,0,0,0-6.355-1.328,19.664,19.664,0,0,1-4.449-1.705,4.044,4.044,0,0,0-1.1-1.213l.275-.187q2.114-1.422,4.608-3.048,4.1,1.5,4.507,1.733a4.8,4.8,0,0,1,2.773,3.554,6.879,6.879,0,0,1-.26,2.2ZM1208.016,643.4V639.85l2.86-3.9,2.282,4.1-1.618,3.929Zm-65.173,54.513.058-.058.2-.52a2.159,2.159,0,0,1,.116-.289l3.322.664.491,1.011q.231.549.462,1.1l-1.733,1.646-1.04,1.011-1.878-.722v-3.842Zm104.144-17.622a30.828,30.828,0,0,1,2.716-2.557q-.062,1.521-.144,4.146h-.029v.347a2.948,2.948,0,0,1-.433-.116,3.683,3.683,0,0,1-1.416-.924,4.387,4.387,0,0,1-.549-.665A1.583,1.583,0,0,1,1246.987,680.294Zm39.722,50.5a6.373,6.373,0,0,1-.433,2.744,4.666,4.666,0,0,1-.578,1.271,5.489,5.489,0,0,1-.809,1.011q-.145.115-1.56,1.329-.231.173-.491.4a5.816,5.816,0,0,0-1.762,2.224,17.318,17.318,0,0,0-5.706-1.185q-.852-.057-1.777-.057a14.068,14.068,0,0,0-12.133,6.471,20.181,20.181,0,0,0-2.427,4.767,14.063,14.063,0,0,0-.621,2.138,3.466,3.466,0,0,0-.072.636q0,3.467,4.68,6.3a19.747,19.747,0,0,0,4.03,1.864,21.134,21.134,0,0,0,6.24,1.025,1.49,1.49,0,0,0-.1.173,1.211,1.211,0,0,0-.231.318,5.377,5.377,0,0,1-.549.635q-.086.1-.173.2a24.343,24.343,0,0,1-5.2-1.04q-2.051-.636-7.164-2.571-5.113-1.965-7.916-2.859a34.925,34.925,0,0,0-.867-3.467,42.309,42.309,0,0,0-1.445-4.074c-.1-.251-.209-.5-.318-.751q.058-2.976-.52-11.7a77.922,77.922,0,0,1-.058-11.613,7.159,7.159,0,0,0,3.264-3.813q.115-.347.2-.722a8.689,8.689,0,0,0-.751-5.373c-.039-.1-.077-.183-.116-.26q-.145-.289-.289-.548a3.908,3.908,0,0,0-.26-.492l-.231-.347a12.94,12.94,0,0,0-2.051-2.427q-.317-.289-.664-.578a9.993,9.993,0,0,0-5.229-2.311q.925-.549,1.733-1.04a13.74,13.74,0,0,1,1.56.694,18.292,18.292,0,0,1,6.615,5.228,13.506,13.506,0,0,1,3,8.464q0,.375-.289,2.629t-.289,2.6a8.76,8.76,0,0,0,1.127,4.275q2.022,3.785,6.933,3.784a7.359,7.359,0,0,0,3.727-.867,12.116,12.116,0,0,0,2.282-1.878,9.3,9.3,0,0,1,6.789-2.773,11.567,11.567,0,0,1,4.882.982q.576.257,1.1.448a7.54,7.54,0,0,0,2.456.506A7.71,7.71,0,0,0,1286.709,730.792Zm-178.187,71.876q.318.433.722.953a8.822,8.822,0,0,0,2.932,2.354q-.715.01-3.134-.1a26.794,26.794,0,0,0-3.409.087l-4.738-.144a27.541,27.541,0,0,1-9.071-.636,51.223,51.223,0,0,1-8.753-2.831,4.154,4.154,0,0,1-2.456-2.137c-.039-.077-.077-.165-.115-.261a3.428,3.428,0,0,1,.838.261q4.478,1.559,5.142,1.675,2.947.578,7.656,1.416a39.809,39.809,0,0,0,6.356.78,3.566,3.566,0,0,0,1.618-.376q.375-.259.693-.462-3.669-3.149-11.9-7.165-3.842-1.907-5.662-2.745,1.155-.607,2.773-1.357a25.679,25.679,0,0,1,3.149.751q2.137.52,4.247,1.1,2.138.664,3.293.982,4.45,1.062,11.4,3.322l-1.892,1.762A4.752,4.752,0,0,0,1108.522,802.668Zm174.98-39.68-.375.014h-.029a1.838,1.838,0,0,1-.289.029l-3.9-.318a.085.085,0,0,0-.058-.029q-.231-.433-.2-.491v-.664a2.654,2.654,0,0,1,.361-.621q1.3-.373,2.7-.91Q1281.9,760.294,1283.5,762.989Zm2.311,37.974a6.355,6.355,0,0,1,3.12,4.478c.011.077.021.154.029.231q-.577.058-1.444.174a3.828,3.828,0,0,0-.563-1.878l-.014-.029a1.7,1.7,0,0,0-.433.535.114.114,0,0,0-.014.043,7.253,7.253,0,0,0-.462,1.113q-.08.219-.159.476a26.438,26.438,0,0,1-3.207.347,2.14,2.14,0,0,1-2.167-1.676c-.039-.285-.073-.536-.1-.751q-.13-.932-.13-.953a10.42,10.42,0,0,1,.78-3.64q.26-.665.433-1.1.145.057.318.115a16.054,16.054,0,0,1,2.2.982,6.144,6.144,0,0,1,1.791,1.488A.423.423,0,0,0,1285.813,800.963Zm-135.98,2.745a13.528,13.528,0,0,0-4.044-.52,1.7,1.7,0,0,1-1.936-.2,21.205,21.205,0,0,0-3.351-1.213,2.972,2.972,0,0,1-.578-2.137,4.148,4.148,0,0,1,.145-.578q0-.046.838-1.719.213-.441.491-1l-.058-1.011a28.509,28.509,0,0,0,4.044.751,10.578,10.578,0,0,0,4.131,0,66.949,66.949,0,0,1,8.349-4.564v.058q-.693.665-1.993,1.676-2.831,2.34-2.687,4.333a4.991,4.991,0,0,0,.635,2.037q1.546,2.669,6.7,3.423a15.3,15.3,0,0,1,2.571.578q.578.983,1.156,1.82a3.075,3.075,0,0,1-3.467,1.1,16.937,16.937,0,0,1-3.871-1.156,54.078,54.078,0,0,0-5.518-1.5.923.923,0,0,1-.26-.057,5.622,5.622,0,0,1-1.1-.116v-.087a.662.662,0,0,0-.144-.26A1.993,1.993,0,0,1,1149.833,803.708Z" transform="translate(-17.754 -63.798)" fill="#cb2069" fill-rule="evenodd"/>
    <path id="Trazado_2817" data-name="Trazado 2817" d="M1312.4,628.023q-.828-.35-1.647-.78a31.555,31.555,0,0,1-7.6-5.72,36.324,36.324,0,0,1-3.38-3.813,21.7,21.7,0,0,0,1.069-2.6h.029c.039-.1.125-.357.26-.78l.087-.289q4.911,6.037,8.927,7.713a41.176,41.176,0,0,1,4.247,1.849q-.515,1.286-1.069,2.513Q1312.87,627.088,1312.4,628.023Zm30.088,71.717a24.064,24.064,0,0,0-6.659,2.094,6.391,6.391,0,0,1-3.135-.144,12.009,12.009,0,0,0-2.152-.491q.029-.491.029-.636,0-.953-6.558-4.622-7.107-3.929-8.522-6.529a4.846,4.846,0,0,1-.231-2.138q7.193,3.294,9.88,4.593a62.408,62.408,0,0,0,7.28,3.062,22.906,22.906,0,0,0,7.988,1.805l-.1.477.173.289a1.509,1.509,0,0,0,.087.2,6.734,6.734,0,0,0,1.1,1.271Q1342.146,699.435,1342.484,699.74Zm8.421-7.93q-1.266,4.3-4.247,5.518a5.918,5.918,0,0,1-.578.2,2.079,2.079,0,0,1-.751.174,3.118,3.118,0,0,1-.376-.029l-.058-.231a1.669,1.669,0,0,0,.361-.347,13.486,13.486,0,0,0,1.892-4.478l3.524-.722A1.156,1.156,0,0,0,1350.905,691.81ZM1325.194,736.5a5.7,5.7,0,0,1,1.04,1.011,5.145,5.145,0,0,1,1.271,2.6.083.083,0,0,1,.029.058,2.607,2.607,0,0,1-.722,2.484,23.755,23.755,0,0,0-3.9,2.831,4.95,4.95,0,0,1-4.507.9l.115-.058a.452.452,0,0,1,.116-.086.36.36,0,0,0,.087-.058c.038-.038.068-.058.087-.058l.043-.043.1-.072c.059-.047.117-.1.173-.144l.087-.072a.267.267,0,0,0,.058-.043c.038-.038.067-.058.087-.058a.368.368,0,0,1,.058-.087c.038-.019.058-.038.058-.058l.058-.058.029-.029h.029l.058-.058.058-.087.058-.058a.136.136,0,0,1,.043-.058h.014a3.956,3.956,0,0,0,.52-.78.4.4,0,0,0,.029-.072l.014-.029a.5.5,0,0,0,.043-.072.119.119,0,0,0,.029-.087.083.083,0,0,0,.029-.058v-.014a4.113,4.113,0,0,0,.3-1.632.148.148,0,0,1,.072-.029q4.883-2.34,4.882-3.149a2.724,2.724,0,0,0-1.329-2.224,7.089,7.089,0,0,0-1.329-.751,9.767,9.767,0,0,1-1.1-.52,2.257,2.257,0,0,1,1.069-.144h.058a3.423,3.423,0,0,1,.693.144A4.777,4.777,0,0,1,1325.194,736.5ZM1198.949,519.2a1.847,1.847,0,0,1-.173.2q-1.993-2.4-2.889-3.611a7,7,0,0,1-1.647-4.333q.029-1.387-2.253-1.762-2.311-.347-2.08-1.791.549-.953,2.629-.578,1.964.347,2.456-.867,1.3-.549,1.127-1.473a5.482,5.482,0,0,0-1.04-1.849,6.966,6.966,0,0,1-1.127-1.82,1.435,1.435,0,0,1,.693-1.7q1.3-.318,2.456,1.358,1.387,2.051,2.167,2.282a.481.481,0,0,1,.029-.144,11.051,11.051,0,0,1,.52,2.484,17.977,17.977,0,0,1-.52,5.951,23.815,23.815,0,0,0-.376,7.4A.359.359,0,0,0,1198.949,519.2Zm7.742-17.68q-2.08-.029-3.38-3.582-.2-.693-.375-1.271.087-.145.2-.318a3.878,3.878,0,0,0,.491-1.242.313.313,0,0,0,.058-.173q.462-1.647.693-2.513.717-2.356,2.282-2.7a2.777,2.777,0,0,1,.838-.043q-.186,1.534-.332,3.308Q1206.849,496.719,1206.692,501.519Zm33.6,59.656q.462-.029,1.04-.029-.4.087-.751.173A.5.5,0,0,0,1240.29,561.174Zm76.036-64.48q.4-7.049.231-11.844,2.224-.029,2.86,2.976.173.9.462,2.6a.309.309,0,0,0,.058.173,4.305,4.305,0,0,0,.376,1.271l.173.347q-.231.549-.491,1.213Q1318.405,496.868,1316.325,496.694Zm6.327,17.507a23.228,23.228,0,0,0,.173-6.847,18.318,18.318,0,0,1,0-5.98,10.475,10.475,0,0,1,.751-2.427v.144q.81-.173,2.34-2.08,1.3-1.589,2.571-1.156a1.457,1.457,0,0,1,.578,1.791,7.138,7.138,0,0,1-1.329,1.7,5.33,5.33,0,0,0-1.184,1.733,2.015,2.015,0,0,0,.636,1.907,3.08,3.08,0,0,0,2.744.722q2.11-.173,2.571.838.087,1.445-2.224,1.589-2.34.173-2.427,1.56a6.946,6.946,0,0,1-1.993,4.16q-.811.926-2.369,2.528A6.539,6.539,0,0,1,1322.652,514.2Zm-58.124,26.4a6.006,6.006,0,0,0-1.358,1.907,34.591,34.591,0,0,0-2.253-2.687q-5.6-5.893-17.478-4.044a.572.572,0,0,0-.26.058,5.579,5.579,0,0,1,.462-.52l.087-.087a8.85,8.85,0,0,1,7.136-2.34,20.43,20.43,0,0,1,6.009,1.444,19.038,19.038,0,0,1,7.858,6.1A.623.623,0,0,1,1264.527,540.605Zm-13.722,28.687-8.147,2.86a6.5,6.5,0,0,1-1.011-6.24c.269.058.568.116.9.173q5.373.867,7.078,2.109A11.9,11.9,0,0,1,1250.805,569.292Zm-67.976,37.729a7.73,7.73,0,0,0-2.513-.26,17.393,17.393,0,0,0-2.022.289,14.919,14.919,0,0,0-3.669,1.3q-2.37,1.387-8.06,1.907a10.1,10.1,0,0,1-3.062-.375,3.725,3.725,0,0,1-.058-.607l-.058-2.456a.2.2,0,0,0,.058-.144,7.579,7.579,0,0,0,4.767.549,25.777,25.777,0,0,0,5.084-1.531q.672-.3,1.271-.549a16.683,16.683,0,0,1,3.64-1.184,7,7,0,0,1,3.236-.318,8.154,8.154,0,0,1,1.473.26A6.843,6.843,0,0,0,1182.829,607.021Zm7.829.78a3.859,3.859,0,0,1,.78,1.993q0,.087.087,1.878-.2,1.849-1.589,2.051a1.864,1.864,0,0,1-1.878-.808,5.934,5.934,0,0,0,1.936-2.774A9.63,9.63,0,0,1,1190.658,607.8Zm76.036-54.947q.2,1.358-2.167,2.976h-1.445q-.116.607-.289-.376-.057-.26,1.184-1.473a4.684,4.684,0,0,1,2.513-1.618l.029-.144Q1266.607,552.277,1266.694,552.854Zm37.3,153.1a56.981,56.981,0,0,0-8.724-1.228q-8.609-.636-10.718-.982l-2.08-.433a40.377,40.377,0,0,1-8.089-1.618q-.365-.162-.693-.347a5.711,5.711,0,0,1-2.109-1.936,6.135,6.135,0,0,1-.693-4.218,9.021,9.021,0,0,1,4.247-4.131,11.66,11.66,0,0,1,1.531-.636,13.525,13.525,0,0,1,4.3-.664.32.32,0,0,1-.029.144c0,.019.048.269.144.75a2.4,2.4,0,0,0,.838,1.3,5.448,5.448,0,0,0-1.3.983q-3.213,3.614-3.235,5.257v.029q0,.188,5.98,1.416,3.211.66,8.147,1.618,7.022,1.348,11.151,2.037c.1.2.217.418.347.65a9.626,9.626,0,0,0,1.1,1.589,2.317,2.317,0,0,0,.607.433l.029.029q.318.145.665.289c.076.038.172.081.289.13Q1304.895,706.169,1303.99,705.951Zm6.847,1.286q1.831-.6,1.141.129c-.044,0-.087-.008-.13-.014q-.463-.058-.953-.115Zm10-2.485q1.329.115,1.647.867c-.116.077-.251.174-.4.289l-.347.231c-.135.077-.279.164-.433.26-.045.035-.094.068-.144.1s-.085.049-.13.072a3.648,3.648,0,0,1-1,.4c-.366.116-.693.221-.982.318a1.921,1.921,0,0,1-.462.058,3.087,3.087,0,0,1-.549.116,1.461,1.461,0,0,1-.52.087q-.26.029-.549.058-.52,0-1.1.029h-1.213c-.251-.02-.5-.029-.751-.029q-.491-.029-.924-.058-.482-.1-.982-.188Zm3.842-4.073v.144a.275.275,0,0,1-.144.116.8.8,0,0,1-.2.232,3.627,3.627,0,0,1-.433.317l-.52.4.347.346q-.433.087-.982.2l-3.264.52-.65.1-.881.131-1.242-.087-.116-.144c-.077-.077-.106-.26-.087-.549q.015-.193,1.228-.491.686-.172,1.748-.375.722-.135,1.618-.289Q1323.4,700.852,1324.674,700.679Zm-7.338,42.756h.015q.284-.089.592-.173.693-.173,1.271-.26-.022.162-.058.332-.071.276-.173.563a3.83,3.83,0,0,1-2.716,2.6l.78-2.008Q1317.185,744.012,1317.336,743.434Zm-156.029-43.521q.4-.251.867-.534a.087.087,0,0,1,.029-.029c.192-.064.371-.117.534-.159a1.846,1.846,0,0,1,1.43.014,30.831,30.831,0,0,1-2.86,2.615q-.859.7-1.907,1.517-.528.409-.982.75-1.3.983-2.037,1.43l-.607-1.2a6.873,6.873,0,0,1,1.083-1.329q.29-.231.621-.491l.116-.087q.718-.549,1.6-1.2l.058-.043Q1160,700.733,1161.307,699.913Zm-2.138,8.306a2.527,2.527,0,0,1-.506.2,1.15,1.15,0,0,1-.852-.058l-.462-.924v-.029h.087a11.96,11.96,0,0,1,1.7-1.906q.525-.5,1.185-1.055.22-.191.462-.389.265-.216.52-.419,3.864-3.048,5.518-3.047a47.631,47.631,0,0,1-3.813,4.362c-.123.129-.247.259-.376.39q-.508.523-1.069,1.083-.145.087-1.04.867A6.932,6.932,0,0,1,1159.169,708.219Zm8.927-2.282-.029.014-.361.217-2.643,1.618a.787.787,0,0,0-.347.2c-.039,0-.135.067-.289.2-.077.058-.145.106-.2.144a2.61,2.61,0,0,1-1.055.881q-.189.074-.39.13a4.031,4.031,0,0,1-1.156.116.707.707,0,0,0-.26.058c.049-.115.1-.231.159-.347.039-.076.083-.153.13-.231s.1-.172.159-.259a13.9,13.9,0,0,1,2.788-3.019q.2-.165.4-.332l.289-.231q4.189-3.438,6.356-3.582l.087.491q.058.549-1.82,2.542-.433.491-.78.838A3.819,3.819,0,0,0,1168.1,705.937Zm10.718-10.2q3.409-1.1,5.027,2.2a7.294,7.294,0,0,1,.635,3.293,6.182,6.182,0,0,1-.188,1.243,9.808,9.808,0,0,1-.65,1.747c-.026.062-.055.125-.087.188a2.776,2.776,0,0,1-.607.693h-.087q-.636.144-3,.924-3.582,1.04-4.131.838-.2.109-.491.246-.239.107-.534.231-.62.265-1.5.607-1.5.577-3.77,1.372a.722.722,0,0,1-.376.087q-1.112.342-1.863.506-.387.09-.679.129a1.739,1.739,0,0,1-.751-.029l.2-.087c.121-.052.247-.105.375-.158q1.138-.481,2.586-1.041,1.711-.659,3.857-1.43.279-.1.549-.2c.193-.07.386-.137.578-.2q8.164-3.038,8.768-6.1a2.369,2.369,0,0,0,.043-.751q-.058-1.069-2.08-2.687A8.821,8.821,0,0,1,1178.814,695.739Z" transform="translate(-49.537 0)" fill="#ed9870" fill-rule="evenodd"/>
    <path id="Trazado_2818" data-name="Trazado 2818" d="M1302.931,643.81a17.584,17.584,0,0,1-8.147-4.362,19.318,19.318,0,0,1-5.287-7.713,31.361,31.361,0,0,0,3.366-2.311,28.734,28.734,0,0,0,4.117-3.958,24.572,24.572,0,0,0,3.236-4.824,36.309,36.309,0,0,0,3.38,3.813,31.558,31.558,0,0,0,7.6,5.72q.817.429,1.646.78a38.045,38.045,0,0,1-8.522,11.556Zm48.418,50.931h.029q.428-.163.881-.332.293-.3.621-.65c.1-.116.212-.251.347-.4q.924-1.127.491-1.416-.549-.433-.809-.664-.433-.375-.664-.347-1.1-.029-1.358-.548a.612.612,0,0,1,0-.578.424.424,0,0,1,.4-.318q.289-.058,1.04-.173a3.361,3.361,0,0,1,1.069-.086,3.94,3.94,0,0,1,.982.375l1.213.781a1.1,1.1,0,0,1,.635,1.328q-.145.491-.375,1.213a11.992,11.992,0,0,1-.607,1.416c-.073.14-.135.266-.188.376l3.25-1.3q1.618-.752,2.109.259a.184.184,0,0,1-.115.144c-.038.1-.077.183-.115.26q-.144.2-.289.376-.173.26-.375.52l1.156.578c-.1.154-.2.308-.318.463a1.088,1.088,0,0,1-.289.4q-.144.2-.318.4-.52.462-1.04.838-.347.26-.665.462,1.185-.231,1.647.347a2.653,2.653,0,0,0-.289.346c-.077.1-.144.183-.2.26q-.106.086-1.805,1.127-.6.376-1.4.867a18.546,18.546,0,0,1-7.28,2.339q-4.276.52-5.662-.636c-.041-.034-.084-.068-.13-.1q-.339-.305-.823-.766a6.729,6.729,0,0,1-1.1-1.271,1.506,1.506,0,0,1-.087-.2l-.173-.289.1-.477q.132-.571.217-.823a2.448,2.448,0,0,1,.4-.636,4.305,4.305,0,0,0,.433-.895,4.627,4.627,0,0,0,.318-.722,1.007,1.007,0,0,1,.144-.289,2.576,2.576,0,0,1,.174-.549c.077-.173.144-.337.2-.491a1.33,1.33,0,0,1,.26-.491,8.632,8.632,0,0,1,.635-.982,4.446,4.446,0,0,1,.52-.751,4.03,4.03,0,0,1,.375-.433c.116-.154.24-.318.376-.491a6.082,6.082,0,0,0,.52-.405l.491-.433q.289-.231.549-.4a3.8,3.8,0,0,1,.578-.433,3.191,3.191,0,0,1,.607-.433q.26-.173.491-.318a4.289,4.289,0,0,1,1.993-.78q.867.231.375,1.242a1.676,1.676,0,0,0-.26.26q-.289.317-.549.607a2.01,2.01,0,0,0-.693.665.083.083,0,0,0-.029.057l-.058.058a2.391,2.391,0,0,1-.26.231q-.173.173-.347.376a2.047,2.047,0,0,0-.318.259q-.173.173-.346.376a.207.207,0,0,1-.087.144.3.3,0,0,1-.058.116.318.318,0,0,0-.058.087,4.359,4.359,0,0,0-.346,1.185,1.224,1.224,0,0,0,.115.375.838.838,0,0,0,.029.2c-.02.057.077.183.289.375a.08.08,0,0,1,.058.029,13.48,13.48,0,0,1-1.892,4.478,1.667,1.667,0,0,1-.361.347l.058.231a3.1,3.1,0,0,0,.375.029,2.078,2.078,0,0,0,.751-.174,5.92,5.92,0,0,0,.578-.2Q1350.083,699.04,1351.348,694.741Zm-30.117,50.642c-.005-.189-.019-.382-.043-.578-.008-.077-.018-.154-.029-.231a6.354,6.354,0,0,0-3.12-4.478,5.655,5.655,0,0,0,3.64-.953,2.469,2.469,0,0,1,.751-.433,9.755,9.755,0,0,0,1.1.52,7.084,7.084,0,0,1,1.329.751,2.724,2.724,0,0,1,1.329,2.224q0,.809-4.882,3.149A.149.149,0,0,0,1321.232,745.383ZM1206.9,518.288a15.328,15.328,0,0,0-2.4.664,12.635,12.635,0,0,0-1.849.722,9.664,9.664,0,0,0-3.265,2.456.359.359,0,0,1-.029-.26,23.819,23.819,0,0,1,.375-7.4,17.977,17.977,0,0,0,.52-5.951,11.045,11.045,0,0,0-.52-2.484l-.029-.029a20.827,20.827,0,0,0-.115-4.8,10.3,10.3,0,0,1,.375-4.824q1.444-1.01,2.022.722a17.728,17.728,0,0,0,1.185,2.773,2.66,2.66,0,0,0,.2-.289q.173.578.376,1.271,1.3,3.553,3.38,3.582a3.7,3.7,0,0,0,0,.924Q1207.048,509.679,1206.9,518.288Zm56.709,27.156a3.994,3.994,0,0,0-.375.809,12.1,12.1,0,0,0-.52,2.253,3.2,3.2,0,0,1-.029.375,26.866,26.866,0,0,0,.635,6.24q1.011.809,2.109-.549a2.128,2.128,0,0,1,2.687-.809q1.271,3-2.456,6.587a14.844,14.844,0,0,1-2.427.029,4.982,4.982,0,0,1-2.369-.664q-2.253,5.345-8.84,5.258a55.187,55.187,0,0,1-5.778-.52l-3.987-.347a3.522,3.522,0,0,0-.433-.029h-.058q-.577,0-1.04.029a44.431,44.431,0,0,1-1.676-12.422q.26-7.425,3.871-12.018a5.921,5.921,0,0,1,.693-.9.572.572,0,0,1,.26-.058q11.873-1.849,17.478,4.044A34.6,34.6,0,0,1,1263.613,545.443Zm59.482-28.311a12.7,12.7,0,0,1-3.264-1.647l-.838-.549a.424.424,0,0,0-.26-.2,30.516,30.516,0,0,0-2.875-1.921q.574-8.116.853-12.234a3.9,3.9,0,0,0,.058-.953q2.08.173,3.669-3.264.26-.664.491-1.213l.173.289a15.7,15.7,0,0,0,1.445-2.629q.722-1.7,2.08-.549a10.134,10.134,0,0,1-.058,4.824,20.542,20.542,0,0,0-.52,4.767l-.029.029a10.47,10.47,0,0,0-.751,2.427,18.311,18.311,0,0,0,0,5.98A23.228,23.228,0,0,1,1323.095,517.132Zm-142.336,115.96-1.329.376a28.491,28.491,0,0,1-3.958.144q-.665-.724-1.184-1.272-.145-.173-.289-.376c-.077-.1-.135-.164-.173-.2a.933.933,0,0,0-.145-.26l-.318-.346c0-.039-.029-.058-.087-.058l-.058-.144-.318-.664q-.751-.926-1.473-1.907a42.489,42.489,0,0,1-3.582-5.431q-1.242-2.456-2.311-5.056-.462-1.242-.924-2.456a10.335,10.335,0,0,1-.664-2.628,10.1,10.1,0,0,0,3.062.375q5.691-.52,8.06-1.907a14.919,14.919,0,0,1,3.669-1.3,17.376,17.376,0,0,1,2.022-.289,7.728,7.728,0,0,1,2.513.26,7.053,7.053,0,0,0,1.56,2.961,11.55,11.55,0,0,0,1.878,1.748,17.033,17.033,0,0,0,1.791,1.185,1.864,1.864,0,0,0,1.878.808q1.387-.2,1.589-2.051-.087-1.791-.087-1.878a3.858,3.858,0,0,0-.78-1.993,6.027,6.027,0,0,1,.722-1.127,3,3,0,0,1,1.184,2.4,22.523,22.523,0,0,1,.2,2.716,5.52,5.52,0,0,1-1.329,3.438c-.08.1-.162.2-.246.289a2.851,2.851,0,0,1-2.788.578,9.421,9.421,0,0,1-1.936,8.031q-1.127,1.242-3.091,3.033Q1182.753,631.1,1180.759,633.092Zm86.378-77.307q-.087-.578-.173-.636l-.029.144a4.684,4.684,0,0,0-2.513,1.618q-1.243,1.213-1.184,1.473.173.983.289.376h1.444Q1267.339,557.144,1267.137,555.786Zm15.224,139.1,1.82.838q2.8.9,7.916,2.859,5.113,1.935,7.165,2.571a24.342,24.342,0,0,0,5.2,1.04q.088-.1.173-.2a5.384,5.384,0,0,0,.549-.635,1.215,1.215,0,0,1,.231-.318,1.472,1.472,0,0,1,.1-.173,1.294,1.294,0,0,1,.246-.289q.2-.26.375-.462a2.349,2.349,0,0,1,.4-.462q.434-.433.925-.838.347-.289.809-.607a3.635,3.635,0,0,1,.52-.375q.26-.173.549-.375a7.042,7.042,0,0,0,.664-.261,4.378,4.378,0,0,1,.665-.347,5.58,5.58,0,0,1,.664-.231q.4-.173.751-.289a2.548,2.548,0,0,1,.274-.1,3.344,3.344,0,0,1,.477-.159q.318-.116.578-.2a5.087,5.087,0,0,1,2.369-.232q.838.491,0,1.444a1.73,1.73,0,0,0-.347.2q-.375.231-.78.463a1.828,1.828,0,0,0-.867.491l-.058.058a.118.118,0,0,1-.087.029c-.067.028-.13.052-.188.072s-.111.052-.159.072q-.231.143-.491.289l-.4.231a1.522,1.522,0,0,0-.462.289.452.452,0,0,1-.115.087.852.852,0,0,0-.115.087.326.326,0,0,0-.116.116q-.209.266-.361.477a2.65,2.65,0,0,0-.361.621v.664c-.019.039.048.2.2.491a.085.085,0,0,1,.058.029l3.9.318a1.84,1.84,0,0,0,.289-.029h.029l.375-.014.39-.014q.484-.286,1.083-.636a1.781,1.781,0,0,1,.462-.318q1.3-.9.925-1.329-.433-.635-.607-.924c-.27-.386-.481-.588-.635-.607q-1.156-.347-1.271-.953a.791.791,0,0,1,.173-.606.545.545,0,0,1,.549-.232q.318.029,1.156.144a9.108,9.108,0,0,1,1.127.2,3.616,3.616,0,0,1,.924.752l1.04,1.126a1.229,1.229,0,0,1,.26,1.589q-.289.491-.751,1.156a12.873,12.873,0,0,1-1.04,1.3c-.025.026-.049.05-.072.072q-.2.211-.347.376l.823-.072,1.387-.129,1.676-.159q1.6-.231,2.051.549a1.325,1.325,0,0,1,.087.2q-1.27.173-3.582.578-.9.153-1.618.289-1.062.2-1.748.375-1.213.3-1.228.491c-.019.289.01.471.087.549l.116.144,1.242.087.881-.131.65-.1,3.264-.52q.55-.115.982-.2l.665.636c-.135.116-.289.25-.462.4-.135.116-.27.222-.4.318a5.972,5.972,0,0,0-.491.347,10.2,10.2,0,0,1-1.329.549l-.867.259-8.84,2.614-.029.015.014-.015q.689-.73-1.141-.129c-.191-.026-.379-.05-.563-.072-.092-.017-.184-.031-.274-.044q-.52-.057-1.011-.144c-.289-.038-.6-.077-.925-.116l-.751-.057-.4-.058q-.289-.087-.52-.173a3.648,3.648,0,0,1-.491-.087l-.2-.072c-.117-.049-.213-.092-.289-.13q-.347-.145-.665-.289l-.029-.029a2.321,2.321,0,0,1-.607-.433,9.62,9.62,0,0,1-1.1-1.589c-.13-.232-.245-.449-.347-.65q-4.13-.689-11.151-2.037-4.935-.959-8.146-1.618-5.98-1.227-5.98-1.416v-.029q.022-1.642,3.235-5.257A5.444,5.444,0,0,1,1282.362,694.886Zm37.3,51.047q-.578.088-1.271.26-.308.084-.592.173h-.014c.036-.109.069-.214.1-.318l.029-.1c0-.024.009-.048.014-.072l.058-.231c.038-.154.077-.289.115-.4q.079-.257.159-.476a7.268,7.268,0,0,1,.462-1.113.119.119,0,0,1,.015-.043,1.692,1.692,0,0,1,.433-.535l.014.029a3.828,3.828,0,0,1,.563,1.878,4.224,4.224,0,0,1-.029.65C1319.7,745.731,1319.68,745.832,1319.657,745.932Zm-157.011-43.651.058-.087.838-.4.318-.232a15.1,15.1,0,0,1,7.107-2.311q5.345-.145,8-.433a1.98,1.98,0,0,0,.289-.144,8.826,8.826,0,0,0,1.82,1.618q2.022,1.618,2.08,2.687a2.373,2.373,0,0,1-.043.751q-.6,3.058-8.768,6.1c-.192.065-.384.132-.578.2s-.363.137-.549.2q-2.145.771-3.857,1.43-1.447.56-2.585,1.041c-.129.053-.254.106-.376.158l-.2.087a.386.386,0,0,1-.145-.159.434.434,0,0,1-.029-.217,1.262,1.262,0,0,1,.159-.4,2.114,2.114,0,0,1,.159-.259,13.608,13.608,0,0,1,2.109-2.109q.1-.1.65-.534l.274-.217q.441-.342,1.1-.838.137-.115.289-.231a7.205,7.205,0,0,0-2.224.9,3.819,3.819,0,0,1,1.04-.549q.347-.347.78-.838,1.877-1.993,1.82-2.542l-.087-.491q-2.167.145-6.356,3.582l-.289.231q-.206.168-.4.332a13.9,13.9,0,0,0-2.788,3.019c-.058.088-.111.174-.159.259s-.091.155-.13.231c-.057.116-.11.232-.159.347a1.441,1.441,0,0,1-.563-.2c-.042-.029-.08-.057-.116-.087a.653.653,0,0,1-.145-.231.81.81,0,0,1-.043-.26,1.3,1.3,0,0,1,.043-.274,2.88,2.88,0,0,1,.39-.824q.837-1.271.636-1.213.562-.561,1.069-1.083.192-.2.375-.39a47.648,47.648,0,0,0,3.813-4.362q-1.653,0-5.518,3.047-.255.2-.52.419-.242.2-.462.389-.659.556-1.185,1.055a11.973,11.973,0,0,0-1.7,1.906,13.254,13.254,0,0,0,.491-1.676l-.9.173a2.441,2.441,0,0,1-.462-.029l-.188-.361q.733-.447,2.037-1.43.454-.341.982-.751,1.048-.814,1.907-1.517a30.8,30.8,0,0,0,2.86-2.615,1.847,1.847,0,0,0-1.43-.014C1163.017,702.164,1162.838,702.217,1162.646,702.281Zm21.089,5.691-.347.058a2.779,2.779,0,0,0,.607-.693A4.767,4.767,0,0,1,1183.735,707.972Z" transform="translate(-49.981 -2.931)" fill="#ffaa83" fill-rule="evenodd"/>
    <path id="Trazado_2819" data-name="Trazado 2819" d="M1333.214,566.691a26.3,26.3,0,0,1,1.387,6.558q.087,1.213.087,2.427-2.513-3.235-4.247-5.316-1.387-1.675-2.8-3.091a.625.625,0,0,0,.2-.173,19.039,19.039,0,0,0-7.858-6.1,20.433,20.433,0,0,0-6.009-1.444,8.85,8.85,0,0,0-7.135,2.34l-.087.087a5.562,5.562,0,0,0-.462.52,5.909,5.909,0,0,0-.693.9,44.291,44.291,0,0,1-.347-4.969,24.8,24.8,0,0,1,2.658-1.242,17.31,17.31,0,0,1,11.844-.636,23.1,23.1,0,0,1,6.327,3.351,30.52,30.52,0,0,1,4.16,3.756Q1330.644,564.149,1333.214,566.691Zm-10.458-11.151a1.493,1.493,0,0,1-.664.2,2.934,2.934,0,0,1-3.033-1.444l-.809-1.791a1.962,1.962,0,0,1,.087-1.011v-.029a.309.309,0,0,1,.26,0,.712.712,0,0,1,.462.26c0,.019.02.029.058.029a29.157,29.157,0,0,0,1.906,2.282A6.582,6.582,0,0,0,1322.757,555.54Zm-10.2-7.511c.039-.039.115-.039.231,0q.289.4,1.56,2.253a8.385,8.385,0,0,0,1.993,2.2,1.675,1.675,0,0,1-.838.433,2.562,2.562,0,0,1-2.484-1.242q-.838-1.56-.838-1.618A2.646,2.646,0,0,1,1312.559,548.029Zm-3,4.073v.173a2.135,2.135,0,0,1-.087,1.011q-.26.722-.78.809a.766.766,0,0,1-.924-.462q-.115-.607-.116-.635a1.8,1.8,0,0,1,.173-1.416q.665-.2,1.676,1.011A2.613,2.613,0,0,1,1309.554,552.1Zm15.455,38.509a11.682,11.682,0,0,0,1.618-3.322,9.48,9.48,0,0,1,1.7-3.207q3.727-3.582,2.456-6.587a2.129,2.129,0,0,0-2.687.809q-1.1,1.358-2.109.549a26.867,26.867,0,0,1-.636-6.24,3.174,3.174,0,0,0,.029-.376,12.119,12.119,0,0,1,.52-2.253,35.5,35.5,0,0,1,3.524,3.207q2.34,2.485,4.911,5.6a15.338,15.338,0,0,1-1.618,4.882A13.333,13.333,0,0,1,1325.01,590.611Z" transform="translate(-112.649 -26.663)" fill="#452312" fill-rule="evenodd"/>
    <path id="Trazado_2820" data-name="Trazado 2820" d="M1318.337,551.515a1.962,1.962,0,0,0-.087,1.011l.809,1.791a2.934,2.934,0,0,0,3.033,1.444,1.493,1.493,0,0,0,.664-.2,3.491,3.491,0,0,0,.52.289,16.8,16.8,0,0,1,7.944,6.962,24.05,24.05,0,0,1,1.993,3.9q-2.571-2.542-2.976-3.033a30.52,30.52,0,0,0-4.16-3.756,23.1,23.1,0,0,0-6.327-3.351,17.31,17.31,0,0,0-11.844.636,24.813,24.813,0,0,0-2.658,1.242,12.819,12.819,0,0,1,.26-2.224,13.168,13.168,0,0,1,1.531-3.929,1.434,1.434,0,0,1,.78-.693,1.8,1.8,0,0,0-.173,1.416c0,.02.039.231.116.636a.766.766,0,0,0,.924.462q.52-.087.78-.809a2.135,2.135,0,0,0,.087-1.011v-.173a14.137,14.137,0,0,1,.838-2.311q.867-1.82,2.167-1.762a2.646,2.646,0,0,0-.375,2.022q0,.058.838,1.618a2.562,2.562,0,0,0,2.484,1.242,1.676,1.676,0,0,0,.838-.433q.115.087.289.2A2.935,2.935,0,0,1,1318.337,551.515Zm16,27.3q-2.57-3.12-4.911-5.6a35.5,35.5,0,0,0-3.524-3.207,4.005,4.005,0,0,1,.375-.809,6.009,6.009,0,0,1,1.358-1.907q1.416,1.415,2.8,3.091,1.733,2.08,4.247,5.316A16.783,16.783,0,0,1,1334.341,578.815Z" transform="translate(-112.649 -26.683)" fill="#7a3a1e" fill-rule="evenodd"/>
    <path id="Trazado_2821" data-name="Trazado 2821" d="M1291.323,645.172l3.929-3.438.665,1.242,13.9-12.827a.484.484,0,0,1,.115.029q-.549.722-1.127,1.56a50.984,50.984,0,0,0-5.951,11.613q-.231.607-.433,1.213-2.572,7.858-1.647,13.953a58.254,58.254,0,0,0,2.456,8.551,58.25,58.25,0,0,1,2.513,8.927q.376,2.541-1.5,12.393-1.907,9.851-2.167,13.347a51.383,51.383,0,0,0,.607,9.707q.057.414.116.838a41.638,41.638,0,0,1-13.939,2.326h-.015a35.1,35.1,0,0,0-7.93-.9h-.014q-1.687-.36-3.365-.867-.788-.237-1.574-.505a210.583,210.583,0,0,1-6.182-41.4v-.549q-.173-3.235-.289-6.327a57.52,57.52,0,0,1,.145-6.038c.009-.1.019-.2.029-.3q.153-1.551.375-3.091.108-.748.231-1.488a33.2,33.2,0,0,1,2.947-8.811q.433-.867.9-1.7.216-.372.448-.737a23.9,23.9,0,0,1,6.774-7.006q.4-.289.838-.549c.192.058.375.106.549.144a2.376,2.376,0,0,0,1.906-.361,1.558,1.558,0,0,0,.173-.13,6.448,6.448,0,0,0,.953-1.531q-.47,1.1-.809,2.138a20.005,20.005,0,0,0-.693,2.513,15.458,15.458,0,0,0-.2,5.344l.9-1.156.722,4.536.578,3.784Z" transform="translate(-97.537 -61.349)" fill="#ffdb59" fill-rule="evenodd"/>
    <path id="Trazado_2822" data-name="Trazado 2822" d="M1211.312,649.428v3.64l-5.085,4.449-.578-3.784,2.138-4.882Zm-70.4,60.84,1.7-3.062,1.878.722-.2,5.171-2.08,1.416ZM1080.272,805.4a4.416,4.416,0,0,1-.087-3.033,11.914,11.914,0,0,1,3.553-2.889q.577-.318,1.271-.693,1.82.838,5.662,2.744,8.233,4.016,11.9,7.165-.318.2-.693.462a3.565,3.565,0,0,1-1.618.376,39.8,39.8,0,0,1-6.355-.78q-4.709-.838-7.656-1.416-.664-.115-5.142-1.675A3.428,3.428,0,0,0,1080.272,805.4Zm77.365-8.436q.838,1.675,2.976,7.078.482,1.307.982,2.441a27.848,27.848,0,0,0,1.271,2.586,15.3,15.3,0,0,0-2.571-.578q-5.157-.755-6.7-3.423a4.993,4.993,0,0,1-.636-2.037q-.145-1.993,2.687-4.333,1.3-1.011,1.993-1.676Z" transform="translate(-17.526 -69.245)" fill="#ed428b" fill-rule="evenodd"/>
    <path id="Trazado_2823" data-name="Trazado 2823" d="M1339.447,683.824a52.692,52.692,0,0,0-7.4,11.758A35.687,35.687,0,0,0,1328.7,707.8q-.088,1.175-.159,2.181-.6.308-1.228.622-.876.439-1.82.895-.059-.424-.115-.838a51.382,51.382,0,0,1-.607-9.707q.26-3.5,2.167-13.347,1.877-9.851,1.5-12.393a58.258,58.258,0,0,0-2.513-8.927,58.225,58.225,0,0,1-2.456-8.551q-.925-6.1,1.647-13.953.2-.607.433-1.213a50.993,50.993,0,0,1,5.951-11.613q.578-.837,1.127-1.56l.058-.029a3.607,3.607,0,0,0,3.236-1.069q-6.124,7.8-6.847,16.12-.636,6.645,6.5,10.718a12.558,12.558,0,0,0,1.184.462q7.742,1.733,12.22-2.6-.174,7.02-4.8,18.4-2.889,6.847-3.611,8.869Q1339.938,682.114,1339.447,683.824Z" transform="translate(-120.239 -60.568)" fill="#fd9c3c" fill-rule="evenodd"/>
    <path id="Trazado_2824" data-name="Trazado 2824" d="M1280.7,771.249q.786.27,1.574.506,1.679.507,3.365.867a31.84,31.84,0,0,0-3.958.275l-.433.043Zm20.28,4.622q-.235-.1-.491-.173a44.482,44.482,0,0,0-6.89-2.181,41.637,41.637,0,0,0,13.939-2.326q.944-.456,1.82-.895.632-.315,1.228-.622-.143,2.249-.173,3.683A49.471,49.471,0,0,1,1300.98,775.872Z" transform="translate(-102.283 -120.259)" fill="#fff" fill-rule="evenodd"/>
    <path id="Trazado_2825" data-name="Trazado 2825" d="M1249.54,676.908q1.184.4,5.98,2.427t10.718,9.013q5.922,6.991,8.609,8.378a25.816,25.816,0,0,0,3.438,1.56c-.032.075-.065.147-.1.217a4.327,4.327,0,0,1-.274.506l-1.444,1.213a.081.081,0,0,0-.058.029h-.087a.535.535,0,0,1-.173.029,41.176,41.176,0,0,0-4.247-1.849q-4.016-1.675-8.927-7.713l-.087.289c-.135.424-.221.684-.26.78h-.029a21.705,21.705,0,0,1-1.069,2.6,24.564,24.564,0,0,1-3.236,4.824,28.733,28.733,0,0,1-4.117,3.958,31.364,31.364,0,0,1-3.366,2.311q-2.167-.607-3.38-.867l-.376-.376q-.9-.953-1.589-1.849a27.474,27.474,0,0,0,4.449-1.675,26.121,26.121,0,0,0,2.354-1.286,14.427,14.427,0,0,0,4.983-4.752,21.725,21.725,0,0,0,2.2-3.062q.954-1.5,1.589-2.456-4.1-3.294-6.991-5.258a16.624,16.624,0,0,0-5.85-2.5,22.247,22.247,0,0,0-2.817-.448,13.32,13.32,0,0,1,.9-1.531.442.442,0,0,0,.087-.116,22.822,22.822,0,0,1,2.066-1.661Q1248.977,677.257,1249.54,676.908ZM1116.247,795.656c-.009.035-.018.069-.029.1a27.729,27.729,0,0,1-4.507,8.522,25.4,25.4,0,0,1-3.235,3.25q-8.487-2.421-16.958-4.608l-1.517-.4q-19.817-5.373-24.8-9.967a8.208,8.208,0,0,1,3.871-5.922q.9-.577,3.091-1.878a22.4,22.4,0,0,1,4.593-2.065,2.532,2.532,0,0,0,1.791,1.429l.072.015.072.158,1.242,1.387.924.491,8.8,1.56a.388.388,0,0,1-.043.26q.3-.088.621-.159l14.069,2.5q2.138.938,5.041,2.282A59.952,59.952,0,0,0,1116.247,795.656ZM1125.2,683.35a25.083,25.083,0,0,1-3.12-1.848,4.242,4.242,0,0,1-1.849-2.832,2.376,2.376,0,0,1,.52.058,31.829,31.829,0,0,0,9.216.52c.181-.017.359-.036.534-.057q8.68-.939,13.3-5.114a24.3,24.3,0,0,0,2.037-2.152q.281-.34.534-.679a25.714,25.714,0,0,0,1.531-2.4,10.111,10.111,0,0,1,.607-1.387,4.7,4.7,0,0,1,.462-1.011,19.9,19.9,0,0,1,2.716,1.993q-1.127,2.4-2.253,4.593a46.018,46.018,0,0,1-2.34,4.016,24.951,24.951,0,0,1-1.4,2.211q-.5.691-1.026,1.314a8.152,8.152,0,0,0-1.473-.26,7,7,0,0,0-3.236.318,16.679,16.679,0,0,0-3.64,1.184q-.6.25-1.271.549a25.774,25.774,0,0,1-5.084,1.531A7.579,7.579,0,0,1,1125.2,683.35Zm24.613,6.241a17.008,17.008,0,0,1-1.791-1.185,34.993,34.993,0,0,0,3.958-7.482,23.124,23.124,0,0,0,1.473-6.558,20.658,20.658,0,0,0,0-3.929h.087a24.378,24.378,0,0,1,1.7,2.86,17.424,17.424,0,0,1,1.791,7.684,11.444,11.444,0,0,1-2.167,7.222l-.347.26a22.49,22.49,0,0,0-.2-2.716,3,3,0,0,0-1.184-2.4,6.027,6.027,0,0,0-.722,1.127,9.63,9.63,0,0,0-.664,2.34A5.933,5.933,0,0,1,1149.816,689.591Zm73.782,48.3q-2.681-.187-3.654-3.438a13.806,13.806,0,0,1-.505-3,6.533,6.533,0,0,0,1.1,2.658q.411.369.78-.317c0-.033,0-.066,0-.1q.047-2.445.274-4.824.2-2.068.535-4.088a54.647,54.647,0,0,1,7.193-19.543,60.411,60.411,0,0,1,7.4-9.808,87.149,87.149,0,0,0-7.554,12,55.8,55.8,0,0,0-5.633,16.582q-.331,2.085-.462,4.146a42.236,42.236,0,0,0-.029,4.839A41.081,41.081,0,0,0,1223.6,737.892Zm10.328-15.99q.077-1.427.245-2.874.119-1.03.289-2.065a64.676,64.676,0,0,1,8.176-21.971,2.948,2.948,0,0,0,.433.116v-.347h.029a32.494,32.494,0,0,0,3.784-1.054q1.381-.464,2.86-1.069l.029-.014a51.516,51.516,0,0,1,7.02-2.918l.173.549q-.606.693-2.051,2.687a15.591,15.591,0,0,1-3.351,3.236q-.252.18-.52.347a20.415,20.415,0,0,1-7.4,2.831q-.115-.26-.2-.491l-.361-1.372q-1.89,3.513-2.268,4.319a50.169,50.169,0,0,0-4.853,18.114q-.018.051,0,1.126A9.018,9.018,0,0,0,1233.926,721.9Zm-3.236,3.467a12.149,12.149,0,0,0-.823,2.037,17.961,17.961,0,0,0-.173,9.5q.885,4.913,1.5,10.487a3.624,3.624,0,0,1-.318.462,4.078,4.078,0,0,1-3.611,1.213q-1.068-.087-1.964-2.022,3.9,1.53,3.64-1.791-.185-1.159-.332-2.311-.095-.73-.173-1.459a67.867,67.867,0,0,1-.347-10.2q.1-2.612.419-5.171.1-.78.217-1.56.347-2.319.867-4.593a61.052,61.052,0,0,1,2.224-7.511,65.863,65.863,0,0,1,5.041-10.587,121.567,121.567,0,0,0-4.073,12.537q-.268,1.017-.505,2.008-.756,3.166-1.213,6.1Q1230.843,723.972,1230.69,725.369ZM1122.6,793.6l.26.043a7.571,7.571,0,0,0,2.311-.144l19.6-3.553c.01.168.014.341.014.52a36.724,36.724,0,0,0-11.9,16.813,9.98,9.98,0,0,1-2.037,2.3,15.194,15.194,0,0,1-1.314,1,9,9,0,0,1-1.156.781q-1.1.693-2.889,1.617-.318.174-6.616,2.311a33.674,33.674,0,0,0-6.847,2.889,8.74,8.74,0,0,1-6.24.722.794.794,0,0,1-.072-.043,8.823,8.823,0,0,1-2.932-2.354q-.4-.52-.722-.953l.231-.087q8.224-3.214,15.745-14.531l.058-.087Q1120.969,796.038,1122.6,793.6Zm16.524-9.49a6.221,6.221,0,0,1,2.947.521l-2.99-.506Z" transform="translate(-11.294 -76.676)" fill="#003151" fill-rule="evenodd"/>
    <path id="Trazado_2826" data-name="Trazado 2826" d="M1122.14,878.95l13.3,2.369a15.063,15.063,0,0,0-1.358,2.961,59.92,59.92,0,0,1-6.9-3.048Q1124.278,879.887,1122.14,878.95Zm-14.647-2.6.578.1c-.217.047-.424.1-.621.159A.387.387,0,0,0,1107.493,876.35Z" transform="translate(-29.133 -165.3)" fill="#132146" fill-rule="evenodd"/>
    <path id="Trazado_2827" data-name="Trazado 2827" d="M1116.179,794.584a15.052,15.052,0,0,1,1.358-2.961l4.593.809c.129.036.265.069.4.1q-1.634,2.434-4.507,7.237l-.058.087q-7.521,11.318-15.744,14.531l-.231.087a4.751,4.751,0,0,1-.318-2.774l1.892-1.762q-6.947-2.261-11.4-3.322-1.156-.317-3.293-.982-2.109-.577-4.247-1.1a25.667,25.667,0,0,0-3.149-.751q-1.618.751-2.773,1.357-.693.376-1.271.693a11.913,11.913,0,0,0-3.553,2.889,4.853,4.853,0,0,1,2.08-3.351,16.445,16.445,0,0,1,3.525-2.109l-.289-.1q-2.062-.691-6.067-1.632a16,16,0,0,1-5.749-3.033,7.793,7.793,0,0,1-2.311-6.587,1.81,1.81,0,0,0,.058-.433q4.984,4.594,24.8,9.967l1.517.4q8.47,2.187,16.958,4.608a25.413,25.413,0,0,0,3.236-3.25,27.728,27.728,0,0,0,4.507-8.522C1116.161,794.653,1116.171,794.619,1116.179,794.584Zm3.987-116.986v-.144q.972-1.348,2.008-2.571a33.687,33.687,0,0,1,7.786-6.789,26.862,26.862,0,0,1,12.711-4.16,11.053,11.053,0,0,1,3.712.39,11.289,11.289,0,0,1,2.528,1.054,4.7,4.7,0,0,0-.462,1.011,10.13,10.13,0,0,0-.607,1.387,25.716,25.716,0,0,1-1.531,2.4q-.254.339-.534.679a24.293,24.293,0,0,1-2.037,2.152q-4.623,4.176-13.3,5.114-.263.031-.534.057a31.829,31.829,0,0,1-9.216-.52A2.38,2.38,0,0,0,1120.166,677.6Zm27.791,9.736a11.547,11.547,0,0,1-1.878-1.748,7.054,7.054,0,0,1-1.56-2.961,6.845,6.845,0,0,1,.087-3.12q.529-.622,1.026-1.314a24.979,24.979,0,0,0,1.4-2.211,46.017,46.017,0,0,0,2.34-4.016q1.127-2.2,2.254-4.593a13.876,13.876,0,0,1,1.849,1.993h-.087a20.636,20.636,0,0,1,0,3.929,23.121,23.121,0,0,1-1.473,6.558A34.995,34.995,0,0,1,1147.957,687.334Zm-19.645,122.952q.838.2,1.791.375,2.022.521,3.293.781a2.97,2.97,0,0,0,.578,2.137,17.02,17.02,0,0,0-4.362-1.04,18.8,18.8,0,0,1-3.727-.519l-.462-.116Q1127.215,810.979,1128.313,810.286Zm17.926-29.611q-3.916,1.229-7.179,2.368l-.043.015-2.094-.347q.29-.136.491-.245.549.2,4.131-.838,2.369-.779,3-.924h.087l.347-.058Q1145.607,780.674,1146.238,780.675Zm12.754,33.279a2.683,2.683,0,0,1,.722,2.254q-.375,1.039-1.993,1.039-.578-.837-1.155-1.82a27.811,27.811,0,0,1-1.271-2.586q-.5-1.134-.982-2.441-2.138-5.4-2.976-7.078,2.83-.9,4.593,3.611.491,1.156,1.416,3.929a16.238,16.238,0,0,0,1.257,2.556A5.517,5.517,0,0,0,1158.993,813.954Z" transform="translate(-11.227 -75.604)" fill="#00558c" fill-rule="evenodd"/>
    <path id="Trazado_2828" data-name="Trazado 2828" d="M1200.7,925.96a.225.225,0,0,0-.2.087,2,2,0,0,0,.058-.347A.66.66,0,0,1,1200.7,925.96Z" transform="translate(-68.421 -186.137)" fill="#713d22" fill-rule="evenodd"/>
    <path id="Trazado_2829" data-name="Trazado 2829" d="M1176.726,741.3l1.3,4.247,2.08-1.416,4.044-2.773.838-.578q6.76-6.5,9.071-8.7,2.253-2.311,4.824-4.507a11.409,11.409,0,0,0,3.308-4.983c.023-.081.047-.162.072-.246q.664.462,1.473,1.04a5.84,5.84,0,0,1,.722.4q1.5,1.069,3.582,2.658a63.545,63.545,0,0,0,5.6,4.1,19.511,19.511,0,0,1,5.431,3.264,13.466,13.466,0,0,0-9.086.289,14.735,14.735,0,0,0-6.861,6.731,26.133,26.133,0,0,0-1.574,3.221,24.62,24.62,0,0,0-1.661,6.486,27.326,27.326,0,0,0,.2,7.4q.313,1.749.477,3.106a13.41,13.41,0,0,1,.1,3.8,62.16,62.16,0,0,1-.4,8.32q-.267,2.266-.708,4.536-.255,1.362-.578,2.731-.361,1.508-.794,3.018a7.408,7.408,0,0,1-4.9,5.3,20.732,20.732,0,0,1-6.457,1.257q-1.059.049-2.037.087-8.184.264-11.252-.664a37.262,37.262,0,0,1-3.582-1.069,53.974,53.974,0,0,0,.4-6.7,58.841,58.841,0,0,0-1.17-12.076q-.57-2.861-1.43-5.69a48.7,48.7,0,0,1-2.773-9.736q-1.531-19.615,8.147-25.1,1.126-.491,2.253-1.011.462-.2.867-.4l.318.664v.087a12.668,12.668,0,0,0-.4,2.976q-.029.694-.058,1.647-.058,1.56-.145,3.784a7.5,7.5,0,0,0,.087,1.936v.116l.2.751Z" transform="translate(-53.343 -100.278)" fill="#4eeef1" fill-rule="evenodd"/>
    <path id="Trazado_2830" data-name="Trazado 2830" d="M1185.2,732.65l.057.144-.057-.058Z" transform="translate(-61.961 -104.627)" fill="#ffb087" fill-rule="evenodd"/>
    <path id="Trazado_2831" data-name="Trazado 2831" d="M1178.022,867.188l-.722-.13a16.393,16.393,0,0,1,1.82-.708Q1178.463,866.845,1178.022,867.188Z" transform="translate(-58.626 -161.078)" fill="#a7c4e4" fill-rule="evenodd"/>
    <path id="Trazado_2832" data-name="Trazado 2832" d="M1184.343,891.227l-1.993-.924a36.722,36.722,0,0,1,11.9-16.813c0-.179,0-.352-.014-.52l6.023-1.1a1.6,1.6,0,0,0,1.5-1.213l-.144-1.011v-.115l-.087-.058-.635-.26-9.36-1.559a6.219,6.219,0,0,0-2.947-.521q3.263-1.138,7.179-2.368a34.138,34.138,0,0,0,8.277-1.1q.98-.291,1.935-.592a9.744,9.744,0,0,1,2.542,1.083,18.682,18.682,0,0,1,3.553,2.976q1.935,1.993,3.611,3.871a23.163,23.163,0,0,1,2.831,3.669,5.206,5.206,0,0,1,.693,2.947,19.459,19.459,0,0,1-.65,3.365c-.012.061-.027.124-.043.188a33.981,33.981,0,0,1-2.975,9.736,15.439,15.439,0,0,1-6.341,6.789c-.223.123-.449.239-.679.346a5.5,5.5,0,0,1-.39-.534,16.213,16.213,0,0,1-1.257-2.556q-.925-2.774-1.416-3.929-1.762-4.506-4.593-3.611a66.966,66.966,0,0,0-8.349,4.564,10.575,10.575,0,0,1-4.131,0A28.507,28.507,0,0,1,1184.343,891.227Z" transform="translate(-60.758 -159.695)" fill="#010613" fill-rule="evenodd"/>
    <path id="Trazado_2833" data-name="Trazado 2833" d="M1181.05,911.124l.058,1.011q-.277.555-.491,1-.838,1.673-.838,1.719a4.132,4.132,0,0,0-.144.578q-1.271-.261-3.293-.781-.953-.173-1.791-.375a9,9,0,0,0,1.156-.781,15.219,15.219,0,0,0,1.314-1,9.977,9.977,0,0,0,2.037-2.3Z" transform="translate(-57.464 -179.592)" fill="#0c1838" fill-rule="evenodd"/>
    <path id="Trazado_2834" data-name="Trazado 2834" d="M1115.536,853.447l-13.3-2.369-14.069-2.5-.578-.1-8.8-1.56-.925-.491-1.242-1.387-.072-.158,41.441,8.074q1.213.231.578-1.011l-15.716-31.113a2.567,2.567,0,0,0-1.849-1.474l-40.459-7.887-.043-.087a1.526,1.526,0,0,1-.072-.173q-.447-1.052.65-.838l41.513,8.089a2.491,2.491,0,0,1,1.82,1.473l.419.824a2.307,2.307,0,0,1,.3.418l1.6,3.293q.814,1.641,1.632,3.279.127.256.26.506l.26.521.809,1.6,5.763,11.368.607,1.2.188.361.043.1.737,1.459.462.924.115.217,2.615.419a.652.652,0,0,0,.144.231l-1.517.289-.838-.144.2.391.4-.1,2.08.318-2.181.389.043.072.751.144.173.144-.693.159.043.087,1.228-.274,1.936.433.144.057-1.791.232-1.358-.116.173.347.318-.116h.2l1.935.347-1.791.433-.26-.028-.116-.058.087.173.751.058.231.144-.838.087.087.174,1.387-.2h.115l3.091.693-2.051.318-2.369-.477.087.159a.626.626,0,0,0,.043.072l1.863.274-.78.2h-.376l-.563-.1a.5.5,0,0,1-.058.491l.534,1.083v.462l-.058.318-.52.664Zm6.933-6.673.953.2.029.014.751.159-2.571.261-2.369-.433,1.228-.232a1.443,1.443,0,0,0,.563.2.707.707,0,0,1,.26-.058A4.031,4.031,0,0,0,1122.469,846.773Zm2.975.664a1.74,1.74,0,0,0,.751.029l.607.116-2.08.318-2.2-.26,2.109-.462.665.1A.387.387,0,0,0,1125.445,847.438Zm-6.009.462,1.849-.289.231-.057,1.762.346-2.109.4Zm6.789.376,1.358.173v-.058l1.791-.2.347-.173,2.225.433v.144l.52-.087,1.964.375.058.405-.867.144-2.253-.289-.058-.2-.607.058.087.057h-.087l-.116.087,1.213.144-1.849.433-.289-.029-5.084-.867,1.416-.318v-.144h-.058l-1.791.318-2.138-.259,1.791-.492,1.444.2.925-.087Zm0-.463.578-.173.578-.029,1.935.347-.058.087-.9.116h-.2ZM1124.78,849v.057l-1.878.289h-.26l-1.762-.318,1.762-.347.318-.029Zm.491.115h.029l.289.029,3.727.693-2.109.26-3.784-.578v-.058Zm1.589,1.069-1.791.433-2.167-.317-.058-.058,1.993-.4,1.907.289v.058Zm-4.42-.75,1.82.4-2.167.26-1.791-.26Z" transform="translate(-9.226 -137.428)" fill="#838ad2" fill-rule="evenodd"/>
    <path id="Trazado_2835" data-name="Trazado 2835" d="M1188.7,870.05l.462.087.058.058h-.058v-.058h-.058Zm1.56,4.1.115.029-.173.029Z" transform="translate(-63.439 -162.64)" fill="red" fill-rule="evenodd"/>
    <path id="Trazado_2836" data-name="Trazado 2836" d="M1151.26,847.144a11.936,11.936,0,0,1,3.033,3.987q.231.461.433.954l-.636.982q-.392.66-.823,1.5-.33.26-.621.491a6.867,6.867,0,0,0-1.083,1.329l-5.763-11.368a7.085,7.085,0,0,1,4.016,1.112A10.359,10.359,0,0,1,1151.26,847.144Z" transform="translate(-45.326 -152.07)" fill="#ce7c56" fill-rule="evenodd"/>
    <path id="Trazado_2837" data-name="Trazado 2837" d="M1158.149,854.447a4.754,4.754,0,0,0,.26-.636c.031-.063.06-.126.087-.188a9.8,9.8,0,0,0,.65-1.747,6.174,6.174,0,0,0,.188-1.243,7.292,7.292,0,0,0-.635-3.293q-1.618-3.293-5.027-2.2a1.993,1.993,0,0,1-.289.145,35.446,35.446,0,0,1,4.911-2.744,14.67,14.67,0,0,1,5.316-1.531,8.114,8.114,0,0,1,3.929,3.727q.26.549.491,1.127a10.725,10.725,0,0,1-.058,6.587q-.131.458-.289.924a34.14,34.14,0,0,1-8.277,1.1Q1158.775,854.474,1158.149,854.447Zm-61.36-13.9a3.842,3.842,0,0,1,3.236-1.819,6.54,6.54,0,0,1,3.394.62,8.053,8.053,0,0,1,1,.535,6.909,6.909,0,0,1,2.976,3.437,3.927,3.927,0,0,1-3.467,5.576,6.7,6.7,0,0,1-2.889-.418,8.559,8.559,0,0,1-1.5-.766,6.939,6.939,0,0,1-2.947-3.438A4,4,0,0,1,1096.789,840.551Z" transform="translate(-24.395 -149.406)" fill="#e8effd" fill-rule="evenodd"/>
    <path id="Trazado_2838" data-name="Trazado 2838" d="M1391,703.508a25.823,25.823,0,0,1-3.438-1.56q-2.687-1.386-8.609-8.378t-10.718-9.013q-4.8-2.024-5.98-2.427a21.843,21.843,0,0,1,9.273-3.149,18.462,18.462,0,0,1,10.92,1.762,17.864,17.864,0,0,1,2.225,1.387,23.223,23.223,0,0,1,5.056,6.789,21.738,21.738,0,0,1,2.051,6.3,20.335,20.335,0,0,1-.26,6.818A10.143,10.143,0,0,1,1391,703.508Zm-32.818,4.1a12.947,12.947,0,0,1-2.022-3.525q.087.231.2.491a20.414,20.414,0,0,0,7.4-2.83q.268-.167.52-.347a15.59,15.59,0,0,0,3.351-3.236q1.445-1.992,2.051-2.687l-.173-.549a51.514,51.514,0,0,0-7.02,2.918l-.029.014q-1.478.607-2.86,1.069a32.487,32.487,0,0,1-3.784,1.054q.082-2.625.144-4.146c0-.042,0-.086,0-.13q.074-1.491.246-2.845a20.83,20.83,0,0,1,1.892-6.688,22.247,22.247,0,0,1,2.817.448,16.625,16.625,0,0,1,5.85,2.5q2.889,1.964,6.991,5.258-.635.953-1.589,2.456a21.751,21.751,0,0,1-2.2,3.062,14.426,14.426,0,0,1-4.983,4.752,26.108,26.108,0,0,1-2.354,1.286A27.476,27.476,0,0,1,1358.179,707.61Zm-4.94-9.216a1.566,1.566,0,0,0,.144.231,4.383,4.383,0,0,0,.549.665,3.683,3.683,0,0,0,1.416.924,64.679,64.679,0,0,0-8.176,21.971q-.17,1.035-.289,2.065-.168,1.447-.246,2.875a8.077,8.077,0,0,0-2.2,1.892q.145-1.14.332-2.282.469-2.907,1.184-5.88a102.437,102.437,0,0,1,6.818-19.226l-3.207,5.461a65.861,65.861,0,0,0-5.041,10.587,61.049,61.049,0,0,0-2.224,7.511q-.52,2.275-.867,4.593-.117.78-.217,1.56-.317,2.558-.419,5.171a67.881,67.881,0,0,0,.347,10.2q.079.729.173,1.459.147,1.152.332,2.311.26,3.322-3.64,1.791-.426-2.867-.664-5.662-.088-1.05-.144-2.094-.2-3.454-.1-6.8.07-2.649.332-5.229.22-2.154.563-4.261a65.374,65.374,0,0,1,4.16-14.5,67.678,67.678,0,0,1,7.266-13.072,60.406,60.406,0,0,0-7.4,9.808A54.651,54.651,0,0,0,1334.837,730q-.339,2.02-.534,4.088-.228,2.38-.274,4.824c0,.035,0,.069,0,.1q-.368.685-.78.317a6.536,6.536,0,0,1-1.1-2.658q.054-.871.13-1.733.172-1.95.462-3.842a53.246,53.246,0,0,1,10.01-24.194,61.074,61.074,0,0,1,10.053-10.487v.217A3.67,3.67,0,0,0,1353.239,698.395Z" transform="translate(-124.006 -81.898)" fill="#0d69a5" fill-rule="evenodd"/>
    <path id="Trazado_2839" data-name="Trazado 2839" d="M1332.132,748.846q-.04-.61-.014-1.676.029-1.434.173-3.683.07-1.005.159-2.181a35.69,35.69,0,0,1,3.351-12.219,52.7,52.7,0,0,1,7.4-11.758c.06-.068.117-.136.173-.2a58.4,58.4,0,0,1,7.944-8.262,16.037,16.037,0,0,1,1.647-1.214,3.647,3.647,0,0,0-.173.939,61.079,61.079,0,0,0-10.053,10.487,53.246,53.246,0,0,0-10.01,24.195q-.29,1.892-.462,3.842Q1332.186,747.975,1332.132,748.846Zm4.666,9.721q-.164-1.02-.347-2.268-.081-.488-.159-1.011a41.033,41.033,0,0,1-.563-4.9,42.236,42.236,0,0,1,.029-4.839q.131-2.061.462-4.146a55.793,55.793,0,0,1,5.633-16.582,87.138,87.138,0,0,1,7.554-12,67.672,67.672,0,0,0-7.266,13.072,65.374,65.374,0,0,0-4.16,14.5q-.344,2.108-.563,4.261-.262,2.581-.332,5.229-.1,3.348.1,6.8.057,1.044.144,2.094.238,2.8.665,5.662a13.15,13.15,0,0,1-.433-1.618Q1337.321,761.879,1336.8,758.567Zm7.627-17.377a9.308,9.308,0,0,0-1.04,1.574q.153-1.4.376-2.86.458-2.93,1.213-6.1.238-.991.505-2.008a121.6,121.6,0,0,1,4.073-12.537l3.207-5.461a102.428,102.428,0,0,0-6.818,19.226q-.715,2.973-1.185,5.88Q1344.569,740.05,1344.425,741.19Z" transform="translate(-123.989 -94.071)" fill="#2591d8" fill-rule="evenodd"/>
    <path id="Trazado_2840" data-name="Trazado 2840" d="M1394.953,747.34l.2-5.056.087-1.907a38.52,38.52,0,0,0-1.56-4.391q-.52-1.243-1.849-4.247.723.2,1.5.492a31.625,31.625,0,0,1,4.189,7.308,78.977,78.977,0,0,1,2.773,7.945,31.255,31.255,0,0,0,4.42,6.847,10.428,10.428,0,0,1,1.618,3.784,7.278,7.278,0,0,1,.116,1.04,7.711,7.711,0,0,1-2.455.376,7.54,7.54,0,0,1-2.456-.506q-.521-.192-1.1-.448a11.567,11.567,0,0,0-4.882-.982,9.3,9.3,0,0,0-6.789,2.773,12.112,12.112,0,0,1-2.282,1.878,7.359,7.359,0,0,1-3.727.867q-4.911,0-6.933-3.784a8.759,8.759,0,0,1-1.127-4.275q0-.348.289-2.6t.289-2.629a13.505,13.505,0,0,0-3-8.464,18.292,18.292,0,0,0-6.615-5.228,13.744,13.744,0,0,0-1.56-.694q3.293-1.964,5.085-3.091a18.479,18.479,0,0,1,8.7,4.507q.953.808,3.669,3.351,2.283,2.138,3.727,3.264l1.618,1.329,4.767,3.9,3.149,2.6ZM1369.444,706.1a30.827,30.827,0,0,0-2.715,2.557,3.671,3.671,0,0,1-.433-1.762v-.217a3.651,3.651,0,0,1,.173-.939,3.741,3.741,0,0,1,.953-1.531,3.6,3.6,0,0,1,2.268-1.083q-.172,1.353-.246,2.845C1369.443,706.015,1369.443,706.059,1369.444,706.1Zm30.738,64.9q-.636,3.957-.925,5.633a13.121,13.121,0,0,0-.116,6.471q.1.466.231.924a14.317,14.317,0,0,0,.505,1.431,2.546,2.546,0,0,0-.274.1q-.347.115-.751.289a5.583,5.583,0,0,0-.665.231,4.382,4.382,0,0,0-.664.347,7.045,7.045,0,0,1-.664.261q-.289.2-.549.375a3.635,3.635,0,0,0-.52.376q-.462.317-.809.607-.491.4-.925.838a2.349,2.349,0,0,0-.4.462q-.173.2-.376.462a1.293,1.293,0,0,0-.245.289,21.135,21.135,0,0,1-6.24-1.025,19.746,19.746,0,0,1-4.03-1.864q-4.68-2.831-4.68-6.3a3.468,3.468,0,0,1,.072-.636,14.06,14.06,0,0,1,.621-2.138,20.186,20.186,0,0,1,2.427-4.767,14.068,14.068,0,0,1,12.133-6.471q.926,0,1.777.057a17.318,17.318,0,0,1,5.706,1.185A10.329,10.329,0,0,0,1400.182,771Zm1.271,17.362q-1.4.537-2.7.91.153-.211.361-.477a.325.325,0,0,1,.116-.116.855.855,0,0,1,.115-.087.456.456,0,0,0,.116-.087,1.519,1.519,0,0,1,.462-.289l.4-.231c.173-.1.337-.193.491-.289.048-.02.1-.044.159-.072C1401.128,787.876,1401.287,788.122,1401.453,788.362Z" transform="translate(-137.496 -92.161)" fill="#ff65a7" fill-rule="evenodd"/>
    <path id="Trazado_2841" data-name="Trazado 2841" d="M1439.33,933.525v.014a.083.083,0,0,1-.029.058.119.119,0,0,1-.029.087.506.506,0,0,1-.043.072c.025-.053.049-.105.072-.159C1439.312,933.572,1439.322,933.547,1439.33,933.525Zm-.679,1.112a4.2,4.2,0,0,0,.563-.852.39.39,0,0,1-.029.072,3.951,3.951,0,0,1-.52.78Zm-.1.116-.058.087-.058.058h-.029A1.716,1.716,0,0,0,1438.55,934.753Zm-.491.477c.069-.061.136-.124.2-.188a.363.363,0,0,0-.058.087c-.02,0-.048.02-.087.058A.271.271,0,0,1,1438.059,935.229Zm-.809.593q.238-.149.448-.3l-.043.043c-.019,0-.048.02-.087.058a.362.362,0,0,1-.087.058.453.453,0,0,0-.116.086Z" transform="translate(-168.382 -189.441)" fill="gray" fill-rule="evenodd"/>
    <path id="Trazado_2842" data-name="Trazado 2842" d="M1463.715,837.265a2.007,2.007,0,0,1,.693-.665,4.582,4.582,0,0,0-.52.549Zm-35.216,6.557a1.828,1.828,0,0,1,.867-.491l-.693.4A.754.754,0,0,0,1428.5,843.822Z" transform="translate(-164.688 -148.517)" fill="#f99269" fill-rule="evenodd"/>
  </g>
</svg>
