<svg xmlns="http://www.w3.org/2000/svg" width="121" height="121" viewBox="0 0 121 121">
  <g id="Grupo_10321" data-name="Grupo 10321" transform="translate(-145 -3320)">
    <g id="Grupo_1010" data-name="Grupo 1010" transform="translate(2406 7227)">
      <circle id="Elipse_497" data-name="Elipse 497" cx="60.5" cy="60.5" r="60.5" transform="translate(-2261 -3907)" fill="#7cb342"/>
      <path id="Trazado_1178" data-name="Trazado 1178" d="M53.993,0A53.993,53.993,0,1,1,0,53.993,53.993,53.993,0,0,1,53.993,0Z" transform="translate(-2254 -3900)" fill="#fff"/>
    </g>
    <g id="Grupo_10212" data-name="Grupo 10212" transform="translate(169 3348)">
      <g id="Grupo_10211" data-name="Grupo 10211" transform="translate(0 0)">
        <g id="Grupo_10209" data-name="Grupo 10209" transform="translate(24.428 31.488)">
          <path id="Trazado_3961" data-name="Trazado 3961" d="M7060.158,1432.547a.94.94,0,0,1-.551-1.7,1.355,1.355,0,0,0,.429-.906,1.079,1.079,0,0,0-.861-1.315l-5.754-.986a.94.94,0,0,1-.642-1.418l2.732-4.445a.94.94,0,1,1,1.6.984l-2,3.261,4.353.746a2.88,2.88,0,0,1,2.443,3.381,3.178,3.178,0,0,1-1.2,2.221A.936.936,0,0,1,7060.158,1432.547Z" transform="translate(-7044.947 -1398.302)" fill="#002b45"/>
          <path id="Trazado_3962" data-name="Trazado 3962" d="M7191.012,1388.346" transform="translate(-7166.512 -1369.326)" fill="#002b45"/>
          <path id="Trazado_3963" data-name="Trazado 3963" d="M7248.157,1477.665" transform="translate(-7216.716 -1447.796)" fill="#002b45"/>
          <path id="Trazado_3964" data-name="Trazado 3964" d="M7035.778,1376.828h0l-43.092-.088a3.18,3.18,0,0,1-2.782-1.65,4.071,4.071,0,0,1-.108-4.081l5.881-9.907c2-3.1,4.079-3.258,7.3-3.258h5.957c2.863,0,6.9,2.4,6.9,7.746a.94.94,0,0,1-1.879,0c0-4.433-3.38-5.867-5.016-5.867h-5.957c-3.091,0-4.3.194-5.7,2.368l-5.858,9.869a2.209,2.209,0,0,0,.1,2.162,1.37,1.37,0,0,0,1.137.74l43.129.088a.94.94,0,0,1,0,1.879Z" transform="translate(-6989.298 -1342.528)" fill="#002b45"/>
          <path id="Trazado_3965" data-name="Trazado 3965" d="M7079.2,1245.538c-3.559,0-6.045-2.836-6.045-6.9s2.486-6.9,6.045-6.9,6.045,2.836,6.045,6.9S7082.763,1245.538,7079.2,1245.538Zm0-11.912c-3.075,0-4.166,2.7-4.166,5.016s1.091,5.016,4.166,5.016,4.166-2.7,4.166-5.016S7082.278,1233.626,7079.2,1233.626Z" transform="translate(-7062.973 -1231.747)" fill="#002b45"/>
          <path id="Trazado_3966" data-name="Trazado 3966" d="M7147.221,1382.967a.94.94,0,0,1,0-1.879l20.087-.068v-2.467a.967.967,0,0,1,.045-.291l3.694-11.532H7152.58l-3.709,12.094a.939.939,0,0,1-.9.664l-3.98,0h0a.94.94,0,0,1,0-1.879l3.287,0,3.709-12.095a.94.94,0,0,1,.9-.664h20.447a.94.94,0,0,1,.895,1.226l-4.043,12.618v3.262a.94.94,0,0,1-.936.94l-21.023.071Z" transform="translate(-7124.377 -1348.683)" fill="#002b45"/>
        </g>
        <g id="Grupo_10210" data-name="Grupo 10210">
          <path id="Trazado_3967" data-name="Trazado 3967" d="M6839.242,1263.576h-28.513a.94.94,0,0,1,0-1.879h28.513a.94.94,0,0,1,0,1.879Z" transform="translate(-6807.165 -1226.572)" fill="#002b45"/>
          <path id="Trazado_3968" data-name="Trazado 3968" d="M7190.144,1263.576h-4.13a.94.94,0,0,1,0-1.879h4.13a.94.94,0,1,1,0,1.879Z" transform="translate(-7136.868 -1226.572)" fill="#002b45"/>
          <path id="Trazado_3969" data-name="Trazado 3969" d="M7052.492,987.551c-3.844,0-6.428-3.024-6.428-7.526s2.583-7.525,6.428-7.525,6.428,3.024,6.428,7.525S7056.336,987.551,7052.492,987.551Zm0-13.172c-3.354,0-4.548,2.917-4.548,5.646s1.195,5.647,4.548,5.647,4.549-2.917,4.549-5.647S7055.846,974.379,7052.492,974.379Z" transform="translate(-7014.742 -972.5)" fill="#002b45"/>
          <path id="Trazado_3970" data-name="Trazado 3970" d="M6801.872,1116.269h-6.678a.938.938,0,0,1-.863-.569l-6-13.989a1.928,1.928,0,0,1,1.772-2.688h20.449a2.55,2.55,0,0,1,2.382,1.619l2.572,6.858a.939.939,0,1,1-1.759.66l-2.567-6.842a.675.675,0,0,0-.629-.415h-20.449l5.708,13.488h6.055a.94.94,0,0,1,0,1.879Z" transform="translate(-6788.179 -1083.656)" fill="#002b45"/>
          <path id="Trazado_3971" data-name="Trazado 3971" d="M6933.975,1136.542h0l-13.494,0a.94.94,0,0,1-.939-.939v-1.776a3.559,3.559,0,0,1,3.555-3.555l4.442,0c.319-1.43.995-4.455,1.013-4.539a10.891,10.891,0,0,1,10.626-8.63h5.328a10.867,10.867,0,0,1,10.855,10.855v7.648a.94.94,0,0,1-1.879,0v-7.648a8.985,8.985,0,0,0-8.976-8.976h-5.328a9.007,9.007,0,0,0-8.788,7.141c-.008.038-1.181,5.292-1.181,5.292a.94.94,0,0,1-.916.735l-5.2,0a1.678,1.678,0,0,0-1.677,1.675v.836l11.8,0,1.165-5.258a.94.94,0,1,1,1.835.406l-1.328,5.995A.94.94,0,0,1,6933.975,1136.542Z" transform="translate(-6903.587 -1099.535)" fill="#002b45"/>
        </g>
      </g>
      <path id="Trazado_3972" data-name="Trazado 3972" d="M7248.214,1148.593a.939.939,0,0,1-.94-.94V1139.2a1.881,1.881,0,0,0-1.879-1.879h-8.456a.94.94,0,0,1,0-1.879h8.456a3.763,3.763,0,0,1,3.759,3.758v8.456A.94.94,0,0,1,7248.214,1148.593Z" transform="translate(-7181.607 -1115.649)" fill="#7cb342"/>
      <path id="Trazado_3973" data-name="Trazado 3973" d="M7329.768,1262.027a.939.939,0,0,1-.939-.94v-.94a.939.939,0,1,1,1.879,0v.94A.94.94,0,0,1,7329.768,1262.027Z" transform="translate(-7263.162 -1224.385)" fill="#7cb342"/>
      <path id="Trazado_3974" data-name="Trazado 3974" d="M7329.768,1300.712a.939.939,0,0,1-.939-.94v-.939a.939.939,0,1,1,1.879,0v.939A.94.94,0,0,1,7329.768,1300.712Z" transform="translate(-7263.162 -1258.372)" fill="#7cb342"/>
      <path id="Trazado_3975" data-name="Trazado 3975" d="M6900.1,1382.765h-8.457a3.763,3.763,0,0,1-3.759-3.758v-2.819a.94.94,0,0,1,1.879,0v2.819a1.881,1.881,0,0,0,1.879,1.879h8.457a.94.94,0,0,1,0,1.879Z" transform="translate(-6875.777 -1326.331)" fill="#7cb342"/>
      <path id="Trazado_3976" data-name="Trazado 3976" d="M6888.828,1339.387a.94.94,0,0,1-.94-.939v-.939a.94.94,0,0,1,1.879,0v.939A.939.939,0,0,1,6888.828,1339.387Z" transform="translate(-6875.777 -1292.35)" fill="#7cb342"/>
      <path id="Trazado_3977" data-name="Trazado 3977" d="M6888.828,1300.709a.94.94,0,0,1-.94-.939v-.94a.94.94,0,0,1,1.879,0v.94A.939.939,0,0,1,6888.828,1300.709Z" transform="translate(-6875.777 -1258.369)" fill="#7cb342"/>
    </g>
  </g>
</svg>
