<svg xmlns="http://www.w3.org/2000/svg" width="121" height="121" viewBox="0 0 121 121">
  <g id="Grupo_10323" data-name="Grupo 10323" transform="translate(-145 -3680)">
    <g id="Grupo_10092" data-name="Grupo 10092" transform="translate(2406 7587)">
      <circle id="Elipse_497" data-name="Elipse 497" cx="60.5" cy="60.5" r="60.5" transform="translate(-2261 -3907)" fill="#7cb342"/>
      <path id="Trazado_1178" data-name="Trazado 1178" d="M53.993,0A53.993,53.993,0,1,1,0,53.993,53.993,53.993,0,0,1,53.993,0Z" transform="translate(-2254 -3900)" fill="#fff"/>
    </g>
    <g id="Grupo_10216" data-name="Grupo 10216" transform="translate(171 3714)">
      <g id="Grupo_10213" data-name="Grupo 10213" transform="translate(31.617 0.557)">
        <path id="Trazado_3978" data-name="Trazado 3978" d="M7081.016,4043.873h-15.478a.939.939,0,0,1-.939-.939c0-4.2,2.553-6.911,6.5-6.911h4.346c3.952,0,6.506,2.713,6.506,6.911A.939.939,0,0,1,7081.016,4043.873Zm-14.483-1.879h13.488a4.289,4.289,0,0,0-4.571-4.092H7071.1A4.289,4.289,0,0,0,7066.533,4041.994Z" transform="translate(-7064.599 -4024.982)" fill="#7cb342"/>
        <path id="Trazado_3979" data-name="Trazado 3979" d="M7106.59,3954.576c-2.447,0-4.091-1.9-4.091-4.728s1.644-4.728,4.091-4.728,4.092,1.9,4.092,4.728S7109.037,3954.576,7106.59,3954.576Zm0-7.576c-2.052,0-2.212,2.18-2.212,2.848s.16,2.848,2.212,2.848,2.213-2.18,2.213-2.848S7108.643,3947,7106.59,3947Z" transform="translate(-7097.896 -3945.12)" fill="#7cb342"/>
      </g>
      <g id="Grupo_10214" data-name="Grupo 10214" transform="translate(52.053 0.557)">
        <path id="Trazado_3980" data-name="Trazado 3980" d="M7249.269,4043.873h-15.478a.939.939,0,0,1-.939-.939c0-4.2,2.553-6.911,6.505-6.911h4.345c3.952,0,6.506,2.713,6.506,6.911A.939.939,0,0,1,7249.269,4043.873Zm-14.483-1.879h13.488a4.289,4.289,0,0,0-4.571-4.092h-4.345A4.29,4.29,0,0,0,7234.785,4041.994Z" transform="translate(-7232.852 -4024.982)" fill="#7cb342"/>
        <path id="Trazado_3981" data-name="Trazado 3981" d="M7274.844,3954.576c-2.447,0-4.091-1.9-4.091-4.728s1.644-4.728,4.091-4.728,4.091,1.9,4.091,4.728S7277.291,3954.576,7274.844,3954.576Zm0-7.576c-2.053,0-2.212,2.18-2.212,2.848s.16,2.848,2.212,2.848,2.212-2.18,2.212-2.848S7276.9,3947,7274.844,3947Z" transform="translate(-7266.149 -3945.12)" fill="#7cb342"/>
      </g>
      <path id="Trazado_3982" data-name="Trazado 3982" d="M6874.57,3972.783a.941.941,0,0,1-.668-.279l-5.245-5.3a.939.939,0,1,1,1.336-1.321l4.465,4.516,10.548-14.585a.94.94,0,0,1,1.523,1.1l-11.2,15.484a.938.938,0,0,1-.689.386Z" transform="translate(-6860.601 -3953.611)" fill="#7cb342"/>
      <path id="Trazado_3983" data-name="Trazado 3983" d="M6818.373,3968.719a14.092,14.092,0,1,1,6.313-26.692.94.94,0,1,1-.843,1.68,12.215,12.215,0,1,0,5.529,5.606.94.94,0,0,1,1.692-.818,14.089,14.089,0,0,1-12.691,20.225Z" transform="translate(-6804.286 -3940.531)" fill="#002b45"/>
      <path id="Trazado_3984" data-name="Trazado 3984" d="M6981.219,4123.965a.938.938,0,0,1-.66-.271l-4.438-4.375a.94.94,0,1,1,1.32-1.338l3.773,3.72,2.926-2.925-3.765-3.711a.939.939,0,1,1,1.319-1.338l4.438,4.376a.938.938,0,0,1,0,1.333l-4.255,4.254A.936.936,0,0,1,6981.219,4123.965Z" transform="translate(-6955.004 -4092.453)" fill="#002b45"/>
      <g id="Grupo_10215" data-name="Grupo 10215" transform="translate(15.932 21.599)">
        <path id="Trazado_3985" data-name="Trazado 3985" d="M7032.714,4219.52a.94.94,0,0,1-.664-1.6l4.914-4.914a.942.942,0,0,1,.4-.237,5.3,5.3,0,0,0,2.233-1.33l10.269-10.269a.94.94,0,0,0,0-1.328l-.531-.531a.933.933,0,0,0-.663-.274h0a.935.935,0,0,0-.665.276l-1.33,1.329a.939.939,0,0,1-1.329-1.329l1.33-1.329a2.8,2.8,0,0,1,1.993-.827h0a2.8,2.8,0,0,1,1.991.825l.531.531a2.821,2.821,0,0,1,0,3.985l-10.27,10.269a7.182,7.182,0,0,1-2.792,1.729l-4.752,4.752A.936.936,0,0,1,7032.714,4219.52Z" transform="translate(-7020.076 -4187.583)" fill="#002b45"/>
        <path id="Trazado_3986" data-name="Trazado 3986" d="M6936.394,4182.6a.939.939,0,0,1-.664-1.6l2.871-2.872a5.789,5.789,0,0,1,1.484-6.8l2.6-2.6a.939.939,0,0,1,1.329,1.329l-2.6,2.6a3.966,3.966,0,0,0-.849,5.215.939.939,0,0,1-.162,1.112l-3.344,3.345A.938.938,0,0,1,6936.394,4182.6Z" transform="translate(-6935.454 -4162.36)" fill="#002b45"/>
        <path id="Trazado_3987" data-name="Trazado 3987" d="M7119.113,4177.843a.94.94,0,0,1-.664-1.6l1.33-1.33a.94.94,0,0,0,0-1.328l-.53-.531a.94.94,0,0,0-1.328,0l-1.33,1.33a.939.939,0,0,1-1.328-1.329l1.329-1.33a2.823,2.823,0,0,1,3.986,0l.53.531a2.819,2.819,0,0,1,0,3.986l-1.33,1.33A.936.936,0,0,1,7119.113,4177.843Z" transform="translate(-7093.182 -4164.518)" fill="#002b45"/>
        <path id="Trazado_3988" data-name="Trazado 3988" d="M7092.847,4151.574a.94.94,0,0,1-.664-1.6l1.328-1.329a.939.939,0,0,0,0-1.329l-.531-.531a.94.94,0,0,0-1.328,0l-1.33,1.33a.939.939,0,0,1-1.329-1.329l1.33-1.33a2.82,2.82,0,0,1,3.985,0l.531.531a2.818,2.818,0,0,1,0,3.986l-1.329,1.329A.936.936,0,0,1,7092.847,4151.574Z" transform="translate(-7070.105 -4141.438)" fill="#002b45"/>
        <path id="Trazado_3989" data-name="Trazado 3989" d="M7000.267,4129.772a.939.939,0,0,1-.663-1.6l9-8.98a2.821,2.821,0,0,1,3.984,0l.531.531a2.822,2.822,0,0,1,0,3.986l-1.33,1.329a.939.939,0,0,1-1.329-1.329l1.33-1.33a.94.94,0,0,0,0-1.328l-.531-.531a.942.942,0,0,0-1.329,0l-9,8.98A.935.935,0,0,1,7000.267,4129.772Z" transform="translate(-6991.569 -4118.363)" fill="#002b45"/>
      </g>
    </g>
  </g>
</svg>
