<svg xmlns="http://www.w3.org/2000/svg" width="121" height="121" viewBox="0 0 121 121">
  <g id="Grupo_10324" data-name="Grupo 10324" transform="translate(-145 -3860)">
    <g id="Grupo_10094" data-name="Grupo 10094" transform="translate(2406 7767)">
      <circle id="Elipse_497" data-name="Elipse 497" cx="60.5" cy="60.5" r="60.5" transform="translate(-2261 -3907)" fill="#7cb342"/>
      <path id="Trazado_1178" data-name="Trazado 1178" d="M53.993,0A53.993,53.993,0,1,1,0,53.993,53.993,53.993,0,0,1,53.993,0Z" transform="translate(-2254 -3900)" fill="#fff"/>
    </g>
    <g id="Grupo_10229" data-name="Grupo 10229" transform="translate(177 3893)">
      <g id="Grupo_10219" data-name="Grupo 10219" transform="translate(25.655 14.25)">
        <g id="Grupo_10218" data-name="Grupo 10218">
          <g id="Grupo_10217" data-name="Grupo 10217">
            <path id="Trazado_3990" data-name="Trazado 3990" d="M7069.561,5593.868a2.953,2.953,0,0,1-2.118-.883,2.936,2.936,0,0,1,1.915-4.993c.224-.015.457-.024.7-.034,1.826-.073,3.714-.148,5.135-2.584.284-.485.587-1.086.91-1.722,1.628-3.213,4.088-8.068,9.175-8.071h3.167c5.416,0,9.5,4.425,9.5,10.292v1.583h-1.583v-1.583c0-5.046-3.33-8.708-7.917-8.708h-3.167c-4.114,0-6.137,4-7.762,7.2-.334.657-.648,1.278-.955,1.8-1.858,3.185-4.506,3.291-6.439,3.368-.227.009-.446.018-.658.031a1.353,1.353,0,0,0-.891,2.3,1.381,1.381,0,0,0,.991.412h0a21.091,21.091,0,0,0,6.405-.9,10.356,10.356,0,0,0,3.2-2.1l1.126,1.113a11.924,11.924,0,0,1-3.8,2.484,22.387,22.387,0,0,1-6.924.991Z" transform="translate(-7066.596 -5561.33)" fill="#002b45"/>
            <path id="Trazado_3991" data-name="Trazado 3991" d="M7186.812,5470.922c-3.315,0-5.542-2.545-5.542-6.333s2.227-6.333,5.542-6.333,5.542,2.545,5.542,6.333S7190.126,5470.922,7186.812,5470.922Zm0-11.083c-2.922,0-3.958,2.559-3.958,4.75s1.037,4.75,3.958,4.75,3.958-2.559,3.958-4.75S7189.733,5459.839,7186.812,5459.839Z" transform="translate(-7167.342 -5458.256)" fill="#002b45"/>
          </g>
        </g>
        <path id="Trazado_3992" data-name="Trazado 3992" d="M7151.478,5654.032h-15.041a.792.792,0,0,1-.354-1.5,6.65,6.65,0,0,0,3.521-5.625v-5.536a7.138,7.138,0,0,1,7.13-7.13h7.378a4.5,4.5,0,0,1,4.492,4.492v8.175A7.133,7.133,0,0,1,7151.478,5654.032Zm-12.674-1.583h12.674a5.548,5.548,0,0,0,5.542-5.542v-8.175a2.912,2.912,0,0,0-2.908-2.909h-7.378a5.554,5.554,0,0,0-5.547,5.547v5.536A7.659,7.659,0,0,1,7138.8,5652.449Z" transform="translate(-7127.258 -5612.866)" fill="#002b45"/>
        <path id="Trazado_3993" data-name="Trazado 3993" d="M7097.751,5751.38h-13.458a.791.791,0,0,1-.792-.792,5.548,5.548,0,0,1,5.542-5.542h4.75v1.583h-4.75a3.964,3.964,0,0,0-3.878,3.167h12.587Z" transform="translate(-7081.448 -5710.214)" fill="#002b45"/>
      </g>
      <path id="Trazado_3994" data-name="Trazado 3994" d="M6889.414,5374.975h-30.083a3.963,3.963,0,0,1-3.958-3.958v-26.125a3.963,3.963,0,0,1,3.958-3.958h42.75a3.963,3.963,0,0,1,3.958,3.958v15.833a.792.792,0,1,1-1.583,0v-15.833a2.377,2.377,0,0,0-2.375-2.375h-42.75a2.377,2.377,0,0,0-2.375,2.375v26.125a2.378,2.378,0,0,0,2.375,2.375h30.083a.792.792,0,1,1,0,1.583Z" transform="translate(-6855.373 -5340.933)" fill="#002b45"/>
      <g id="Grupo_10224" data-name="Grupo 10224" transform="translate(28.079 4.751)">
        <g id="Grupo_10221" data-name="Grupo 10221">
          <g id="Grupo_10220" data-name="Grupo 10220" transform="translate(7.323 1.352)">
            <path id="Trazado_3995" data-name="Trazado 3995" d="M7155.556,5392.757h-7.917a.792.792,0,0,1,0-1.583h7.917a.792.792,0,1,1,0,1.583Z" transform="translate(-7146.848 -5391.174)" fill="#7cb342"/>
          </g>
          <path id="Trazado_3996" data-name="Trazado 3996" d="M7088.682,5384.564a.789.789,0,0,1-.57-.242l-1.336-1.385a.792.792,0,0,1,1.141-1.1l.684.709,1.605-2.179a.791.791,0,1,1,1.274.938l-2.161,2.936a.793.793,0,0,1-.585.321Z" transform="translate(-7086.555 -5380.046)" fill="#7cb342"/>
        </g>
        <g id="Grupo_10223" data-name="Grupo 10223" transform="translate(0 7.897)">
          <g id="Grupo_10222" data-name="Grupo 10222" transform="translate(7.323 1.352)">
            <path id="Trazado_3997" data-name="Trazado 3997" d="M7150.237,5457.777h-2.6a.792.792,0,0,1,0-1.583h2.6a.792.792,0,1,1,0,1.583Z" transform="translate(-7146.848 -5456.194)" fill="#7cb342"/>
          </g>
          <path id="Trazado_3998" data-name="Trazado 3998" d="M7088.682,5449.582a.788.788,0,0,1-.57-.242l-1.336-1.385a.792.792,0,0,1,1.141-1.1l.684.71,1.605-2.18a.791.791,0,1,1,1.274.938l-2.161,2.936a.792.792,0,0,1-.585.321Z" transform="translate(-7086.555 -5445.064)" fill="#7cb342"/>
        </g>
      </g>
      <g id="Grupo_10228" data-name="Grupo 10228" transform="translate(3.95 5.412)">
        <g id="Grupo_10227" data-name="Grupo 10227">
          <path id="Trazado_3999" data-name="Trazado 3999" d="M6902.422,5527.125h-6.5a1.7,1.7,0,0,1-1.682-1.482l-.3-2.354a.792.792,0,1,1,1.571-.2l.3,2.354a.114.114,0,0,0,.111.1h6.5a.11.11,0,0,0,.084-.038.113.113,0,0,0,.027-.09l-1.176-9.593a.113.113,0,0,0-.111-.1h-6.5a.111.111,0,0,0-.084.038.109.109,0,0,0-.027.09l.437,3.642a.791.791,0,1,1-1.571.189l-.437-3.636a1.7,1.7,0,0,1,1.683-1.906h6.5a1.7,1.7,0,0,1,1.683,1.481l1.176,9.593a1.7,1.7,0,0,1-1.683,1.908Z" transform="translate(-6892.421 -5498.517)" fill="#002b45"/>
          <path id="Trazado_4000" data-name="Trazado 4000" d="M6891.531,5558.549a1.379,1.379,0,0,1-.194-.014l-2.047-.284a1.385,1.385,0,0,1-1.191-1.229l-.2-1.909a1.388,1.388,0,0,1,1.571-1.52l2.048.284a1.387,1.387,0,0,1,1.19,1.231l.2,1.907a1.389,1.389,0,0,1-1.377,1.533Zm-1.873-1.845,1.65.229-.158-1.509-1.649-.228Zm1.644-1.259h0Z" transform="translate(-6887.893 -5533.163)" fill="#002b45"/>
          <path id="Trazado_4001" data-name="Trazado 4001" d="M6982.317,5397.067c-2.964,0-4.956-2.327-4.956-5.788s1.992-5.789,4.956-5.789,4.956,2.326,4.956,5.789S6985.281,5397.067,6982.317,5397.067Zm0-9.994c-2.487,0-3.373,2.173-3.373,4.206s.886,4.2,3.373,4.2,3.372-2.172,3.372-4.2S6984.8,5387.073,6982.317,5387.073Z" transform="translate(-6966.495 -5385.49)" fill="#002b45"/>
          <g id="Grupo_10226" data-name="Grupo 10226" transform="translate(6.428 13.103)">
            <g id="Grupo_10225" data-name="Grupo 10225">
              <path id="Trazado_4002" data-name="Trazado 4002" d="M7008.418,5494.956h-1.393a.792.792,0,0,1,0-1.583h1.393a.792.792,0,1,1,0,1.583Z" transform="translate(-6998.288 -5493.373)" fill="#002b45"/>
              <path id="Trazado_4003" data-name="Trazado 4003" d="M7012.757,5500.525a.791.791,0,0,1-.792-.792v-5.569a.792.792,0,0,1,1.583,0v5.569A.791.791,0,0,1,7012.757,5500.525Z" transform="translate(-7003.324 -5493.373)" fill="#002b45"/>
              <path id="Trazado_4004" data-name="Trazado 4004" d="M6959.994,5508.878h-9.049a1.49,1.49,0,0,1-1.488-1.488v-2.076a2,2,0,0,1,1.963-1.995c1.072-.015,2.926-.033,4.669-.008l-.7-1.642a.792.792,0,0,1,1.457-.62l1.178,2.768a.793.793,0,0,1-.074.756.817.817,0,0,1-.677.346c-2-.058-4.514-.035-5.832-.016a.406.406,0,0,0-.4.411v1.98h8.954a1.047,1.047,0,0,0,.912-.372,2.209,2.209,0,0,0,.073-1.862l-2.151-6.662c-.833-2.342-2.076-3.443-3.906-3.443h-.053l-3.332,5.444a1.466,1.466,0,0,1-1.288.745h0a1.486,1.486,0,0,1-1.311-.783l-3.31-5.406h-.054a3.557,3.557,0,0,0-3.281,2.056.791.791,0,1,1-1.374-.786,5.127,5.127,0,0,1,4.655-2.854h.5a.791.791,0,0,1,.675.378l3.5,5.722,3.5-5.722a.792.792,0,0,1,.675-.378h.5c2.522,0,4.34,1.52,5.4,4.518l2.161,6.689a3.666,3.666,0,0,1-.3,3.279A2.567,2.567,0,0,1,6959.994,5508.878Zm-9.827-9.272,0,.006Z" transform="translate(-6940.815 -5493.373)" fill="#002b45"/>
            </g>
          </g>
        </g>
      </g>
      <path id="Trazado_4005" data-name="Trazado 4005" d="M6907.569,5714.04h-25.333a.792.792,0,1,1,0-1.583h25.333a.792.792,0,0,1,0,1.583Z" transform="translate(-6878.278 -5667.333)" fill="#002b45"/>
    </g>
  </g>
</svg>
