<svg xmlns="http://www.w3.org/2000/svg" width="121" height="121" viewBox="0 0 121 121">
  <g id="Grupo_10325" data-name="Grupo 10325" transform="translate(-145 -4349)">
    <g id="Grupo_1010" data-name="Grupo 1010" transform="translate(2406 8256)">
      <circle id="Elipse_497" data-name="Elipse 497" cx="60.5" cy="60.5" r="60.5" transform="translate(-2261 -3907)" fill="#7cb342"/>
      <path id="Trazado_1178" data-name="Trazado 1178" d="M53.993,0A53.993,53.993,0,1,1,0,53.993,53.993,53.993,0,0,1,53.993,0Z" transform="translate(-2254 -3900)" fill="#fff"/>
    </g>
    <g id="Grupo_10266" data-name="Grupo 10266" transform="translate(177 4382)">
      <g id="Grupo_10251" data-name="Grupo 10251">
        <path id="Trazado_4047" data-name="Trazado 4047" d="M-3362.523,1093.864a4.839,4.839,0,0,1-4.833-4.834v-38.463a.741.741,0,0,1,.741-.741h31.993a.741.741,0,0,1,.741.741v31.4a.741.741,0,0,1-.741.741.741.741,0,0,1-.742-.741v-30.663h-30.51v37.721a3.354,3.354,0,0,0,3.35,3.35,3.355,3.355,0,0,0,3.351-3.35c0-1.008-.247-3.35-2.532-3.35a.741.741,0,0,1-.741-.741.741.741,0,0,1,.741-.742h16.035a.742.742,0,0,1,.742.742.741.741,0,0,1-.742.741h-12.954a5.62,5.62,0,0,1,.935,3.35A4.84,4.84,0,0,1-3362.523,1093.864Z" transform="translate(3372.266 -1044.915)" fill="#002b45"/>
        <path id="Trazado_4048" data-name="Trazado 4048" d="M-3344.249,1117.149h-16.034a.742.742,0,0,1-.741-.742.741.741,0,0,1,.741-.741h16.034a.742.742,0,0,1,.742.741A.742.742,0,0,1-3344.249,1117.149Z" transform="translate(3370.027 -1068.201)" fill="#002b45"/>
        <path id="Trazado_4049" data-name="Trazado 4049" d="M-3372.578,1085.446a.735.735,0,0,1-.445-.149,4.8,4.8,0,0,1-1.93-3.864V1042.97a.741.741,0,0,1,.741-.742h32.735a.741.741,0,0,1,.741.742v1.637a.741.741,0,0,1-.741.741.742.742,0,0,1-.742-.741v-.9h-31.25v37.722a3.326,3.326,0,0,0,1.338,2.679.74.74,0,0,1,.147,1.038A.739.739,0,0,1-3372.578,1085.446Z" transform="translate(3374.953 -1042.228)" fill="#002b45"/>
      </g>
      <path id="Trazado_4050" data-name="Trazado 4050" d="M-3356.992,1068.746a.741.741,0,0,1-.435-.142.743.743,0,0,1-.3-.725l.419-2.446-1.777-1.733a.739.739,0,0,1-.187-.759.741.741,0,0,1,.6-.5l2.456-.357,1.1-2.225a.742.742,0,0,1,.665-.414h0a.741.741,0,0,1,.665.414l1.1,2.225,2.456.357a.741.741,0,0,1,.6.5.74.74,0,0,1-.187.759l-1.777,1.733.419,2.446a.741.741,0,0,1-.295.725.74.74,0,0,1-.781.056l-2.2-1.154-2.2,1.154A.746.746,0,0,1-3356.992,1068.746Zm.023-5.058.98.955a.743.743,0,0,1,.213.656l-.231,1.35,1.212-.637a.738.738,0,0,1,.69,0l1.211.637-.231-1.35a.742.742,0,0,1,.213-.656l.981-.955-1.355-.2a.74.74,0,0,1-.558-.405l-.606-1.228-.606,1.228a.74.74,0,0,1-.559.405Z" transform="translate(3369.418 -1048.315)" fill="#7cb342"/>
      <path id="Trazado_4051" data-name="Trazado 4051" d="M-3329.82,1063.218H-3340.2a.742.742,0,0,1-.741-.742.741.741,0,0,1,.741-.741h10.383a.741.741,0,0,1,.741.741A.741.741,0,0,1-3329.82,1063.218Z" transform="translate(3362.925 -1049.127)" fill="#002b45"/>
      <path id="Trazado_4052" data-name="Trazado 4052" d="M-3329.82,1070.1H-3340.2a.742.742,0,0,1-.741-.742.741.741,0,0,1,.741-.741h10.383a.741.741,0,0,1,.741.741A.742.742,0,0,1-3329.82,1070.1Z" transform="translate(3362.925 -1051.562)" fill="#002b45"/>
      <path id="Trazado_4053" data-name="Trazado 4053" d="M-3356.992,1089.4a.738.738,0,0,1-.435-.142.743.743,0,0,1-.3-.725l.419-2.446-1.777-1.732a.741.741,0,0,1-.187-.76.741.741,0,0,1,.6-.5l2.456-.357,1.1-2.226a.742.742,0,0,1,.665-.414h0a.741.741,0,0,1,.665.414l1.1,2.226,2.456.357a.741.741,0,0,1,.6.5.741.741,0,0,1-.187.76l-1.777,1.732.419,2.446a.741.741,0,0,1-.295.725.739.739,0,0,1-.781.056l-2.2-1.154-2.2,1.154A.737.737,0,0,1-3356.992,1089.4Zm.023-5.058.98.955a.744.744,0,0,1,.213.657l-.231,1.349,1.212-.637a.737.737,0,0,1,.69,0l1.211.637-.231-1.349a.743.743,0,0,1,.213-.657l.981-.955-1.355-.2a.74.74,0,0,1-.558-.406l-.606-1.227-.606,1.227a.74.74,0,0,1-.559.406Z" transform="translate(3369.418 -1055.62)" fill="#7cb342"/>
      <path id="Trazado_4054" data-name="Trazado 4054" d="M-3329.82,1083.872H-3340.2a.741.741,0,0,1-.741-.741.741.741,0,0,1,.741-.742h10.383a.741.741,0,0,1,.741.742A.741.741,0,0,1-3329.82,1083.872Z" transform="translate(3362.925 -1056.432)" fill="#002b45"/>
      <path id="Trazado_4055" data-name="Trazado 4055" d="M-3329.82,1090.757H-3340.2a.741.741,0,0,1-.741-.742.741.741,0,0,1,.741-.741h10.383a.741.741,0,0,1,.741.741A.741.741,0,0,1-3329.82,1090.757Z" transform="translate(3362.925 -1058.867)" fill="#002b45"/>
      <g id="Grupo_10265" data-name="Grupo 10265" transform="translate(27.811 30.204)">
        <g id="Grupo_10264" data-name="Grupo 10264">
          <g id="Grupo_10255" data-name="Grupo 10255" transform="translate(0 8.968)">
            <g id="Grupo_10254" data-name="Grupo 10254">
              <g id="Grupo_10252" data-name="Grupo 10252" transform="translate(0 6.118)">
                <path id="Trazado_4056" data-name="Trazado 4056" d="M-3323.054,1119.986c-4.407,0-8.869-1.2-8.869-3.5v-3.447a.741.741,0,0,1,.742-.742.742.742,0,0,1,.742.742v3.447c0,.71,2.8,2.015,7.385,2.015a19.046,19.046,0,0,0,3.947-.332.744.744,0,0,1,.877.576.742.742,0,0,1-.575.877A20.544,20.544,0,0,1-3323.054,1119.986Z" transform="translate(3331.923 -1112.299)" fill="#7cb342"/>
              </g>
              <g id="Grupo_10253" data-name="Grupo 10253">
                <path id="Trazado_4057" data-name="Trazado 4057" d="M-3323.054,1109.832c-4.407,0-8.869-1.2-8.869-3.5s4.462-3.5,8.869-3.5a22.3,22.3,0,0,1,4.16.374.741.741,0,0,1,.588.869.743.743,0,0,1-.869.588,20.831,20.831,0,0,0-3.879-.346c-4.582,0-7.385,1.3-7.385,2.015s2.8,2.016,7.385,2.016a20.776,20.776,0,0,0,3.959-.362.738.738,0,0,1,.872.583.741.741,0,0,1-.583.871A22.262,22.262,0,0,1-3323.054,1109.832Z" transform="translate(3331.923 -1102.834)" fill="#7cb342"/>
                <path id="Trazado_4058" data-name="Trazado 4058" d="M-3323.054,1114.787c-4.407,0-8.869-1.2-8.869-3.5v-3.447a.741.741,0,0,1,.742-.741.742.742,0,0,1,.742.741v3.447c0,.711,2.8,2.016,7.385,2.016a20.819,20.819,0,0,0,3.875-.346.744.744,0,0,1,.868.588.742.742,0,0,1-.588.869A22.432,22.432,0,0,1-3323.054,1114.787Z" transform="translate(3331.923 -1104.343)" fill="#7cb342"/>
              </g>
            </g>
          </g>
          <g id="Grupo_10263" data-name="Grupo 10263" transform="translate(12.216)">
            <g id="Grupo_10256" data-name="Grupo 10256" transform="translate(0 16.787)">
              <path id="Trazado_4059" data-name="Trazado 4059" d="M-3304.154,1122.822c-4.407,0-8.869-1.233-8.869-3.59v-3.56a.741.741,0,0,1,.741-.741.741.741,0,0,1,.742.741v3.56c0,.715,2.607,2.106,7.386,2.106s7.386-1.392,7.386-2.106v-3.56a.741.741,0,0,1,.741-.741.741.741,0,0,1,.742.741v3.56C-3295.285,1121.589-3299.747,1122.822-3304.154,1122.822Z" transform="translate(3313.023 -1114.931)" fill="#7cb342"/>
            </g>
            <g id="Grupo_10259" data-name="Grupo 10259" transform="translate(0 8.865)">
              <g id="Grupo_10257" data-name="Grupo 10257">
                <path id="Trazado_4060" data-name="Trazado 4060" d="M-3304.154,1113.891c-4.407,0-8.869-1.233-8.869-3.59a.741.741,0,0,1,.741-.741.742.742,0,0,1,.742.741c0,.715,2.607,2.106,7.386,2.106s7.386-1.391,7.386-2.106a.741.741,0,0,1,.741-.741.742.742,0,0,1,.742.741C-3295.285,1112.658-3299.747,1113.891-3304.154,1113.891Z" transform="translate(3313.023 -1105.11)" fill="#7cb342"/>
                <path id="Trazado_4061" data-name="Trazado 4061" d="M-3304.154,1115.016c-4.407,0-8.869-1.233-8.869-3.589v-8.011a.741.741,0,0,1,.741-.741.741.741,0,0,1,.742.741v8.011c0,.715,2.607,2.106,7.386,2.106s7.386-1.391,7.386-2.106v-8.011a.741.741,0,0,1,.741-.741.741.741,0,0,1,.742.741v8.011C-3295.285,1113.783-3299.747,1115.016-3304.154,1115.016Z" transform="translate(3313.023 -1102.675)" fill="#7cb342"/>
              </g>
              <g id="Grupo_10258" data-name="Grupo 10258" transform="translate(0 0.978)">
                <path id="Trazado_4062" data-name="Trazado 4062" d="M-3304.154,1108.521c-4.407,0-8.869-1.233-8.869-3.59a.741.741,0,0,1,.741-.741.742.742,0,0,1,.742.741c0,.715,2.607,2.107,7.386,2.107s7.386-1.392,7.386-2.107a.741.741,0,0,1,.741-.741.742.742,0,0,1,.742.741C-3295.285,1107.288-3299.747,1108.521-3304.154,1108.521Z" transform="translate(3313.023 -1104.189)" fill="#7cb342"/>
              </g>
            </g>
            <g id="Grupo_10262" data-name="Grupo 10262">
              <g id="Grupo_10260" data-name="Grupo 10260" transform="translate(0 2.612)">
                <path id="Trazado_4063" data-name="Trazado 4063" d="M-3304.154,1103.068c-4.407,0-8.869-1.233-8.869-3.589a.741.741,0,0,1,.741-.742.742.742,0,0,1,.742.742c0,.715,2.607,2.106,7.386,2.106s7.386-1.391,7.386-2.106a.741.741,0,0,1,.741-.742.742.742,0,0,1,.742.742C-3295.285,1101.836-3299.747,1103.068-3304.154,1103.068Z" transform="translate(3313.023 -1095.029)" fill="#7cb342"/>
                <path id="Trazado_4064" data-name="Trazado 4064" d="M-3304.154,1104.6c-4.407,0-8.869-1.233-8.869-3.59v-7.268a.741.741,0,0,1,.741-.741.742.742,0,0,1,.742.741v7.268c0,.715,2.607,2.107,7.386,2.107s7.386-1.392,7.386-2.107v-7.268a.741.741,0,0,1,.741-.741.742.742,0,0,1,.742.741v7.268C-3295.285,1103.366-3299.747,1104.6-3304.154,1104.6Z" transform="translate(3313.023 -1093)" fill="#7cb342"/>
              </g>
              <g id="Grupo_10261" data-name="Grupo 10261">
                <path id="Trazado_4065" data-name="Trazado 4065" d="M-3304.154,1096.138c-4.407,0-8.869-1.232-8.869-3.589s4.461-3.59,8.869-3.59,8.869,1.233,8.869,3.59S-3299.747,1096.138-3304.154,1096.138Zm0-5.7c-4.779,0-7.386,1.392-7.386,2.107s2.607,2.106,7.386,2.106,7.386-1.391,7.386-2.106S-3299.375,1090.442-3304.154,1090.442Z" transform="translate(3313.023 -1088.959)" fill="#7cb342"/>
              </g>
            </g>
          </g>
        </g>
      </g>
    </g>
  </g>
</svg>
