<svg xmlns="http://www.w3.org/2000/svg" width="121" height="121" viewBox="0 0 121 121">
  <g id="Grupo_10327" data-name="Grupo 10327" transform="translate(-145 -4709)">
    <g id="Grupo_10092" data-name="Grupo 10092" transform="translate(2406 8616)">
      <circle id="Elipse_497" data-name="Elipse 497" cx="60.5" cy="60.5" r="60.5" transform="translate(-2261 -3907)" fill="#7cb342"/>
      <path id="Trazado_1178" data-name="Trazado 1178" d="M53.993,0A53.993,53.993,0,1,1,0,53.993,53.993,53.993,0,0,1,53.993,0Z" transform="translate(-2254 -3900)" fill="#fff"/>
    </g>
    <g id="Grupo_10250" data-name="Grupo 10250" transform="translate(174 4736)">
      <g id="Grupo_10246" data-name="Grupo 10246" transform="translate(0 0)">
        <g id="Grupo_10245" data-name="Grupo 10245">
          <g id="Grupo_10244" data-name="Grupo 10244">
            <path id="Trazado_4033" data-name="Trazado 4033" d="M-3354.017,1592.379c-4.295,0-7.182-3.3-7.182-8.208s2.887-8.208,7.182-8.208,7.182,3.3,7.182,8.208S-3349.721,1592.379-3354.017,1592.379Zm0-14.364c-3.786,0-5.13,3.316-5.13,6.156s1.344,6.156,5.13,6.156,5.131-3.316,5.131-6.156S-3350.23,1578.015-3354.017,1578.015Z" transform="translate(3372.484 -1575.963)" fill="#002b45"/>
            <path id="Trazado_4034" data-name="Trazado 4034" d="M-3336.361,1665.249a1.025,1.025,0,0,1-1.026-1.026v-26.249a1.026,1.026,0,0,1,1.026-1.026,1.026,1.026,0,0,1,1.026,1.026v26.249A1.026,1.026,0,0,1-3336.361,1665.249Z" transform="translate(3364.062 -1597.531)" fill="#002b45"/>
            <path id="Trazado_4035" data-name="Trazado 4035" d="M-3364.936,1665.249a1.025,1.025,0,0,1-1.025-1.026v-26.249a1.025,1.025,0,0,1,1.025-1.026,1.026,1.026,0,0,1,1.027,1.026v26.249A1.026,1.026,0,0,1-3364.936,1665.249Z" transform="translate(3374.168 -1597.531)" fill="#002b45"/>
            <path id="Trazado_4036" data-name="Trazado 4036" d="M-3350.183,1606.589h-2.052a1.025,1.025,0,0,1-1.026-1.026,1.025,1.025,0,0,1,1.026-1.026h2.052a1.025,1.025,0,0,1,1.026,1.026A1.025,1.025,0,0,1-3350.183,1606.589Z" transform="translate(3369.677 -1586.069)" fill="#7cb342"/>
            <path id="Trazado_4037" data-name="Trazado 4037" d="M-3350.648,1617.875a1.025,1.025,0,0,1-1.026-1.026v-11.286a1.025,1.025,0,0,1,1.026-1.026,1.026,1.026,0,0,1,1.027,1.026v11.286A1.025,1.025,0,0,1-3350.648,1617.875Z" transform="translate(3369.115 -1586.069)" fill="#7cb342"/>
            <path id="Trazado_4038" data-name="Trazado 4038" d="M-3348.021,1627.193h-7.625a10.842,10.842,0,0,1-2.76-.506,1.087,1.087,0,0,1-.133.02l-5.9.483-9.987,0a4.634,4.634,0,0,1-3.447-1.476,3.156,3.156,0,0,1-.75-2.554l2.131-11.9c.745-3.658,4.813-6.728,8.888-6.728h1.257a1.028,1.028,0,0,1,.936.6l5.252,11.661,5.188-11.661a1.028,1.028,0,0,1,.936-.6h.734a8.2,8.2,0,0,1,7.872,6.7l1.61,11.933a2.924,2.924,0,0,1-.67,2.422A4.709,4.709,0,0,1-3348.021,1627.193Zm-10.677-2.79a10.169,10.169,0,0,0,3.052.737h7.625a2.662,2.662,0,0,0,1.945-.845.887.887,0,0,0,.233-.784l-1.609-11.927a6.13,6.13,0,0,0-5.849-4.995h-.07l-4.98,11.057a2.078,2.078,0,0,1-1.84,1.144,2.052,2.052,0,0,1-1.807-1.079l-5.013-11.122h-.594c-3.112,0-6.324,2.365-6.873,5.062l-2.121,11.842a1.074,1.074,0,0,0,.279.882,2.613,2.613,0,0,0,1.894.765h9.9l2.906-.24c-2.289-1.448-6.368-3.658-9.555-3.336a1.021,1.021,0,0,1-.868-.339,1.025,1.025,0,0,1-.235-.9l1.131-5.166a1.024,1.024,0,0,1,1.222-.782,1.026,1.026,0,0,1,.783,1.221l-.855,3.9C-3365.059,1619.8-3359.488,1623.816-3358.7,1624.4Z" transform="translate(3378.659 -1586.069)" fill="#002b45"/>
            <path id="Trazado_4039" data-name="Trazado 4039" d="M-3367.5,1626.493a1.026,1.026,0,0,1-.6-.194,1.028,1.028,0,0,1-.232-1.433l1.241-1.721a2.438,2.438,0,0,1,2.783-1.041l4.034.757c1.1-.126,7.158-.73,11.394.6l-.3-3.045a1.026,1.026,0,0,1,.92-1.122,1.014,1.014,0,0,1,1.123.92l.468,4.74a1.026,1.026,0,0,1-.452.955,1.033,1.033,0,0,1-1.056.051c-3.788-2.041-11.922-1.056-12-1.046a1.036,1.036,0,0,1-.316-.01l-4.286-.8a1,1,0,0,1-.219-.067c-.082-.038-.289.126-.422.31l-1.242,1.722A1.025,1.025,0,0,1-3367.5,1626.493Z" transform="translate(3375.073 -1591.287)" fill="#002b45"/>
          </g>
        </g>
        <path id="Trazado_4040" data-name="Trazado 4040" d="M-3350.55,1674a1.025,1.025,0,0,1-1.026-1.026v-9.765a1.025,1.025,0,0,1,1.026-1.026,1.026,1.026,0,0,1,1.027,1.026v9.765A1.026,1.026,0,0,1-3350.55,1674Z" transform="translate(3369.081 -1606.455)" fill="#002b45"/>
      </g>
      <g id="Grupo_10247" data-name="Grupo 10247" transform="translate(48.191 5.008)">
        <path id="Trazado_4041" data-name="Trazado 4041" d="M-3290.76,1598.077h-12.313a1.025,1.025,0,0,1-1.026-1.026v-12.312a1.025,1.025,0,0,1,1.026-1.026h7.183a1.025,1.025,0,0,1,1.026,1.026,1.025,1.025,0,0,1-1.026,1.026h-6.156v10.261h10.26v-5.13a1.025,1.025,0,0,1,1.026-1.026,1.025,1.025,0,0,1,1.026,1.026v6.156A1.025,1.025,0,0,1-3290.76,1598.077Z" transform="translate(3304.098 -1583.712)" fill="#002b45"/>
        <path id="Trazado_4042" data-name="Trazado 4042" d="M-3294.946,1594.4a1.028,1.028,0,0,1-.717-.292l-2.735-2.669a1.026,1.026,0,0,1-.018-1.45,1.027,1.027,0,0,1,1.451-.018l1.886,1.839,4.562-6.286a1.024,1.024,0,0,1,1.433-.228,1.025,1.025,0,0,1,.228,1.433l-5.259,7.246a1.026,1.026,0,0,1-.743.42C-3294.888,1594.4-3294.917,1594.4-3294.946,1594.4Z" transform="translate(3302.192 -1584.203)" fill="#7cb342"/>
      </g>
      <g id="Grupo_10248" data-name="Grupo 10248" transform="translate(48.191 48.102)">
        <path id="Trazado_4043" data-name="Trazado 4043" d="M-3290.76,1664.75h-12.313a1.025,1.025,0,0,1-1.026-1.026v-12.312a1.025,1.025,0,0,1,1.026-1.026h7.183a1.025,1.025,0,0,1,1.026,1.026,1.026,1.026,0,0,1-1.026,1.026h-6.156v10.26h10.26v-5.13a1.025,1.025,0,0,1,1.026-1.026,1.025,1.025,0,0,1,1.026,1.026v6.156A1.025,1.025,0,0,1-3290.76,1664.75Z" transform="translate(3304.098 -1650.386)" fill="#002b45"/>
        <path id="Trazado_4044" data-name="Trazado 4044" d="M-3294.946,1661.073a1.029,1.029,0,0,1-.717-.292l-2.735-2.668a1.026,1.026,0,0,1-.018-1.451,1.027,1.027,0,0,1,1.451-.018l1.886,1.839,4.562-6.285a1.026,1.026,0,0,1,1.433-.229,1.026,1.026,0,0,1,.228,1.433l-5.259,7.247a1.027,1.027,0,0,1-.743.42A.767.767,0,0,1-3294.946,1661.073Z" transform="translate(3302.192 -1650.877)" fill="#7cb342"/>
      </g>
      <g id="Grupo_10249" data-name="Grupo 10249" transform="translate(48.191 26.555)">
        <path id="Trazado_4045" data-name="Trazado 4045" d="M-3290.76,1631.414h-12.313a1.025,1.025,0,0,1-1.026-1.026v-12.312a1.025,1.025,0,0,1,1.026-1.026h7.183a1.025,1.025,0,0,1,1.026,1.026,1.025,1.025,0,0,1-1.026,1.026h-6.156v10.26h10.26v-5.13a1.025,1.025,0,0,1,1.026-1.026,1.025,1.025,0,0,1,1.026,1.026v6.156A1.025,1.025,0,0,1-3290.76,1631.414Z" transform="translate(3304.098 -1617.049)" fill="#002b45"/>
        <path id="Trazado_4046" data-name="Trazado 4046" d="M-3294.946,1627.736a1.029,1.029,0,0,1-.717-.292l-2.735-2.668a1.026,1.026,0,0,1-.018-1.451,1.027,1.027,0,0,1,1.451-.018l1.886,1.84,4.562-6.286a1.024,1.024,0,0,1,1.433-.228,1.025,1.025,0,0,1,.228,1.432l-5.259,7.247a1.025,1.025,0,0,1-.743.42A.8.8,0,0,1-3294.946,1627.736Z" transform="translate(3302.192 -1617.54)" fill="#7cb342"/>
      </g>
    </g>
  </g>
</svg>
