<svg xmlns="http://www.w3.org/2000/svg" width="121" height="121" viewBox="0 0 121 121">
  <g id="Grupo_10105" data-name="Grupo 10105" transform="translate(-145 -3659)">
    <g id="Grupo_10090" data-name="Grupo 10090" transform="translate(2406 7566)">
      <circle id="Elipse_497" data-name="Elipse 497" cx="60.5" cy="60.5" r="60.5" transform="translate(-2261 -3907)" fill="#7cb342"/>
      <path id="Trazado_1178" data-name="Trazado 1178" d="M53.993,0A53.993,53.993,0,1,1,0,53.993,53.993,53.993,0,0,1,53.993,0Z" transform="translate(-2254 -3900)" fill="#fff"/>
    </g>
    <g id="Grupo_10097" data-name="Grupo 10097" transform="translate(176 3688)">
      <path id="Trazado_2706" data-name="Trazado 2706" d="M-597.642,810.091h-2.565V781.937a1.285,1.285,0,0,1,.64-1.111l10.242-5.926a3.138,3.138,0,0,0,1.469-1.911,3.112,3.112,0,0,0,.093-1.121l-11.561,6.689a1.282,1.282,0,0,1-.642.174h-11.944a1.286,1.286,0,0,1-.642-.174l-11.561-6.689a3.118,3.118,0,0,0,.093,1.121,3.187,3.187,0,0,0,1.469,1.911l10.242,5.926a1.285,1.285,0,0,1,.64,1.111v28.154h-2.565V782.677l-9.6-5.557a5.688,5.688,0,0,1-2.661-3.462,5.721,5.721,0,0,1,.56-4.325,1.271,1.271,0,0,1,.778-.6,1.265,1.265,0,0,1,.974.128l12.619,7.3h11.255l12.619-7.3a1.263,1.263,0,0,1,.974-.128,1.278,1.278,0,0,1,.78.6,5.729,5.729,0,0,1,.559,4.326,5.693,5.693,0,0,1-2.66,3.461l-9.6,5.557Z" transform="translate(635.734 -760.582)" fill="#7cb342"/>
      <rect id="Rectángulo_2810" data-name="Rectángulo 2810" width="2.565" height="13.411" transform="translate(28.513 36.098)" fill="#002b45"/>
      <path id="Trazado_2707" data-name="Trazado 2707" d="M-608.549,776.757a7.169,7.169,0,0,1-5.128-2.144,7.282,7.282,0,0,1-2.118-5.159,7.289,7.289,0,0,1,2.118-5.16,7.168,7.168,0,0,1,5.128-2.145,7.285,7.285,0,0,1,7.246,7.3A7.284,7.284,0,0,1-608.549,776.757Zm0-12.041a4.621,4.621,0,0,0-3.306,1.383,4.736,4.736,0,0,0-1.376,3.354,4.8,4.8,0,0,0,1.376,3.353,4.622,4.622,0,0,0,3.306,1.383,4.715,4.715,0,0,0,4.682-4.736A4.716,4.716,0,0,0-608.549,764.716Z" transform="translate(638.345 -762.149)" fill="#7cb342"/>
      <path id="Trazado_2708" data-name="Trazado 2708" d="M-597.079,815.505h-2.565v-9.379h-16.444v9.379h-2.565V804.844a1.283,1.283,0,0,1,1.283-1.283h19.007a1.282,1.282,0,0,1,1.283,1.283Z" transform="translate(637.661 -752.228)" fill="#002b45"/>
      <path id="Trazado_2709" data-name="Trazado 2709" d="M-631.421,814.905h-2.566v-7.556a1.284,1.284,0,0,1,1.283-1.284H-613.7v2.567h-17.726Z" transform="translate(633.987 -751.628)" fill="#002b45"/>
      <path id="Trazado_2710" data-name="Trazado 2710" d="M-581.991,814.305h-2.565v-3.167h-17.727v-2.567h19.009a1.283,1.283,0,0,1,1.283,1.283Z" transform="translate(641.582 -751.028)" fill="#002b45"/>
    </g>
  </g>
</svg>
