<svg xmlns="http://www.w3.org/2000/svg" xmlns:xlink="http://www.w3.org/1999/xlink" width="1916" height="369" viewBox="0 0 1916 369">
  <defs>
    <clipPath id="clip-path">
      <rect id="Rect치ngulo_1887" data-name="Rect치ngulo 1887" width="573" height="368" transform="translate(0)" fill="none"/>
    </clipPath>
    <clipPath id="clip-path-2">
      <rect id="Rect치ngulo_1887-2" data-name="Rect치ngulo 1887" width="573" height="368" fill="none"/>
    </clipPath>
  </defs>
  <g id="Grupo_11553" data-name="Grupo 11553" transform="translate(-1 1)">
    <g id="Grupo_8800" data-name="Grupo 8800" transform="translate(210.979 -145.331)" opacity="0.245">
      <g id="Grupo_8799" data-name="Grupo 8799" transform="translate(-209.979 145.331)" clip-path="url(#clip-path)">
        <g id="Grupo_8771" data-name="Grupo 8771" transform="translate(29.703 67.779)">
          <path id="Trazado_12556" data-name="Trazado 12556" d="M762.606,1423.316v50.552h1.224V1424.01l45.305-27.184,45.306,27.184v49.858h1.225v-50.552L809.135,1395.4Z" transform="translate(-395.259 -952.848)" fill="#fff"/>
          <path id="Trazado_12557" data-name="Trazado 12557" d="M650.125,1490.8v23h1.224V1491.5l45.306-27.183,45.306,27.183V1513.8h1.225v-23l-46.531-27.917Z" transform="translate(-328.698 -992.786)" fill="#eee"/>
          <path id="Trazado_12558" data-name="Trazado 12558" d="M1136.773,1305.786l-35.51-21.308V1230.07l35.51-21.307v-1.427l-36.735,22.04v55.8l36.735,22.042Z" transform="translate(-594.937 -841.561)" fill="#fff"/>
          <path id="Trazado_12559" data-name="Trazado 12559" d="M987.56,1153.368v55.8l46.53,27.919,36.123-21.674v-1.429l-36.123,21.675-45.305-27.185v-54.408l45.305-27.184,36.123,21.674v-1.429l-36.123-21.672Z" transform="translate(-528.378 -793.105)" fill="#d9d9d9"/>
          <g id="Grupo_8745" data-name="Grupo 8745" transform="translate(91.837 111.94)">
            <path id="Trazado_12560" data-name="Trazado 12560" d="M134.267,697.19l-46.53-27.917v-55.8l46.53-27.917L180.8,613.477v55.8ZM88.961,668.578l45.306,27.184,45.305-27.184V614.17l-45.305-27.183L88.961,614.17Z" transform="translate(-87.737 -585.56)" fill="#fff"/>
          </g>
          <g id="Grupo_8746" data-name="Grupo 8746" transform="translate(45.918 84.388)">
            <path id="Trazado_12561" data-name="Trazado 12561" d="M21.788,629.7l-46.531-27.919V545.99l46.531-27.919L68.319,545.99v55.794Zm-45.305-28.612,45.305,27.185,45.306-27.185V546.683L21.788,519.5l-45.305,27.184Z" transform="translate(24.743 -518.071)" fill="#d9d9d9"/>
          </g>
          <g id="Grupo_8747" data-name="Grupo 8747" transform="translate(45.918 139.49)">
            <path id="Trazado_12562" data-name="Trazado 12562" d="M21.788,764.677l-46.531-27.919v-55.8l46.531-27.919,46.531,27.919v55.8Zm-45.305-28.613,45.305,27.184,45.306-27.184V681.656L21.788,654.473l-45.305,27.183Z" transform="translate(24.743 -653.044)" fill="#eee"/>
          </g>
          <g id="Grupo_8752" data-name="Grupo 8752" transform="translate(91.837 387.449)">
            <path id="Trazado_12567" data-name="Trazado 12567" d="M134.267,1372.057l-46.53-27.918v-55.8l46.53-27.917,46.531,27.917v55.8Zm-45.306-28.613,45.306,27.184,45.305-27.184v-54.409l-45.305-27.183-45.306,27.183Z" transform="translate(-87.737 -1260.426)" fill="#f9f9f9"/>
          </g>
          <g id="Grupo_8753" data-name="Grupo 8753" transform="translate(137.755 359.899)">
            <path id="Trazado_12568" data-name="Trazado 12568" d="M246.743,1304.573l-46.53-27.92v-55.795l46.53-27.917,46.531,27.917v55.795Zm-45.305-28.613,45.305,27.185,45.306-27.185v-54.408l-45.306-27.183-45.305,27.183Z" transform="translate(-200.213 -1192.942)" fill="#d9d9d9"/>
          </g>
          <g id="Grupo_8754" data-name="Grupo 8754" transform="translate(275.51 332.346)">
            <path id="Trazado_12569" data-name="Trazado 12569" d="M584.18,1237.083l-46.53-27.919v-55.8l46.53-27.917,46.531,27.917v55.8Zm-45.3-28.612,45.3,27.185,45.307-27.185v-54.408l-45.307-27.183-45.3,27.183Z" transform="translate(-537.65 -1125.451)" fill="#d9d9d9"/>
          </g>
          <g id="Grupo_8755" data-name="Grupo 8755" transform="translate(321.428 249.694)">
            <path id="Trazado_12570" data-name="Trazado 12570" d="M696.657,1034.625l-46.531-27.92v-55.8l46.531-27.916,46.531,27.916v55.8Zm-45.306-28.613,45.306,27.186,45.306-27.186V951.6l-45.306-27.182L651.35,951.6Z" transform="translate(-650.126 -922.993)" fill="#eee"/>
          </g>
          <g id="Grupo_8756" data-name="Grupo 8756" transform="translate(367.347 222.142)">
            <path id="Trazado_12571" data-name="Trazado 12571" d="M809.136,967.135l-46.53-27.919V883.421l46.53-27.918,46.531,27.918v55.795ZM763.83,938.523l45.305,27.184,45.306-27.184V884.114l-45.306-27.184L763.83,884.114Z" transform="translate(-762.606 -855.503)" fill="#d9d9d9"/>
          </g>
          <g id="Grupo_8757" data-name="Grupo 8757" transform="translate(413.264 249.694)">
            <path id="Trazado_12572" data-name="Trazado 12572" d="M921.613,1034.625l-46.531-27.92v-55.8l46.531-27.916,46.531,27.916v55.8Zm-45.305-28.613,45.305,27.186,45.306-27.186V951.6l-45.306-27.182L876.307,951.6Z" transform="translate(-875.082 -922.993)" fill="#f9f9f9"/>
          </g>
          <g id="Grupo_8758" data-name="Grupo 8758" transform="translate(413.264 359.899)">
            <path id="Trazado_12573" data-name="Trazado 12573" d="M921.613,1304.573l-46.531-27.92v-55.795l46.531-27.917,46.531,27.917v55.795Zm-45.305-28.613,45.305,27.185,45.306-27.185v-54.408l-45.306-27.183-45.305,27.183Z" transform="translate(-875.082 -1192.942)" fill="#eee"/>
          </g>
          <g id="Grupo_8761" data-name="Grupo 8761" transform="translate(183.673 277.245)">
            <path id="Trazado_12576" data-name="Trazado 12576" d="M359.222,1102.109l-46.531-27.918v-55.8l46.531-27.917,46.53,27.917v55.8ZM313.917,1073.5l45.305,27.185,45.306-27.185v-54.408l-45.306-27.183-45.305,27.183Z" transform="translate(-312.691 -990.478)" fill="#f9f9f9"/>
          </g>
          <g id="Grupo_8762" data-name="Grupo 8762" transform="translate(275.51 277.245)">
            <path id="Trazado_12577" data-name="Trazado 12577" d="M584.18,1102.109l-46.53-27.918v-55.8l46.53-27.917,46.531,27.917v55.8ZM538.874,1073.5l45.306,27.185,45.307-27.185v-54.408L584.18,991.905l-45.306,27.183Z" transform="translate(-537.65 -990.478)" fill="#e3e3e3"/>
          </g>
          <g id="Grupo_8763" data-name="Grupo 8763" transform="translate(137.755 304.797)">
            <path id="Trazado_12578" data-name="Trazado 12578" d="M246.743,1169.6l-46.53-27.919v-55.8l46.53-27.916,46.531,27.916v55.8Zm-45.305-28.613,45.305,27.184,45.306-27.184v-54.409L246.743,1059.4l-45.305,27.182Z" transform="translate(-200.213 -1057.968)" fill="#eee"/>
          </g>
          <g id="Grupo_8764" data-name="Grupo 8764" transform="translate(91.837 277.245)">
            <path id="Trazado_12579" data-name="Trazado 12579" d="M134.267,1102.109l-46.53-27.918v-55.8l46.53-27.917L180.8,1018.4v55.8ZM88.961,1073.5l45.306,27.185,45.305-27.185v-54.408l-45.305-27.183-45.306,27.183Z" transform="translate(-87.737 -990.478)" fill="#fff"/>
          </g>
          <g id="Grupo_8765" data-name="Grupo 8765" transform="translate(91.837 332.346)">
            <path id="Trazado_12580" data-name="Trazado 12580" d="M134.267,1237.083l-46.53-27.919v-55.8l46.53-27.917,46.531,27.917v55.8ZM88.961,1208.47l45.306,27.185,45.305-27.185v-54.408l-45.305-27.183-45.306,27.183Z" transform="translate(-87.737 -1125.451)" fill="#fff"/>
          </g>
          <g id="Grupo_8766" data-name="Grupo 8766" transform="translate(45.918 304.797)">
            <path id="Trazado_12581" data-name="Trazado 12581" d="M21.788,1169.6l-46.531-27.919v-55.8l46.531-27.916,46.531,27.916v55.8Zm-45.305-28.613,45.305,27.184,45.306-27.184v-54.409L21.788,1059.4l-45.305,27.182Z" transform="translate(24.743 -1057.968)" fill="#eee"/>
          </g>
          <g id="Grupo_8767" data-name="Grupo 8767" transform="translate(0 222.143)">
            <path id="Trazado_12582" data-name="Trazado 12582" d="M-90.69,967.137l-46.531-27.918v-55.8l46.531-27.918,46.531,27.918v55.8ZM-136,938.525l45.305,27.184,45.307-27.184V884.116L-90.69,856.932-136,884.116Z" transform="translate(137.221 -855.505)" fill="#fff"/>
          </g>
          <g id="Grupo_8768" data-name="Grupo 8768" transform="translate(137.755 194.593)">
            <path id="Trazado_12583" data-name="Trazado 12583" d="M246.743,899.652l-46.53-27.919v-55.8l46.53-27.916,46.531,27.916v55.8Zm-45.305-28.613,45.305,27.186,45.306-27.186V816.631l-45.306-27.183-45.305,27.183Z" transform="translate(-200.213 -788.021)" fill="#d9d9d9"/>
          </g>
          <g id="Grupo_8769" data-name="Grupo 8769" transform="translate(183.673 222.142)">
            <path id="Trazado_12584" data-name="Trazado 12584" d="M359.222,967.135l-46.531-27.919V883.421L359.222,855.5l46.53,27.918v55.795Zm-45.305-28.612,45.305,27.184,45.306-27.184V884.114l-45.306-27.184-45.305,27.184Z" transform="translate(-312.691 -855.503)" fill="#e3e3e3"/>
          </g>
          <path id="Trazado_12585" data-name="Trazado 12585" d="M200.475,718.288a2.755,2.755,0,1,0-2.754,2.755A2.755,2.755,0,0,0,200.475,718.288Z" transform="translate(-59.353 -550.532)"/>
          <path id="Trazado_12586" data-name="Trazado 12586" d="M-24.894,851.927a3.674,3.674,0,0,0-3.674-3.673,3.674,3.674,0,0,0-3.674,3.673,3.675,3.675,0,0,0,3.674,3.674A3.675,3.675,0,0,0-24.894,851.927Z" transform="translate(75.099 -629.071)" fill="#eee"/>
          <path id="Trazado_12587" data-name="Trazado 12587" d="M200.613,1123.651a2.449,2.449,0,1,0-2.449,2.449A2.449,2.449,0,0,0,200.613,1123.651Z" transform="translate(-59.797 -790.59)"/>
          <g id="Grupo_8770" data-name="Grupo 8770" transform="translate(229.591 194.593)">
            <path id="Trazado_12588" data-name="Trazado 12588" d="M471.7,899.652l-46.53-27.919v-55.8l46.53-27.916,46.531,27.916v55.8Zm-45.305-28.613L471.7,898.224l45.306-27.186V816.631L471.7,789.448l-45.305,27.183Z" transform="translate(-425.169 -788.021)" fill="#d9d9d9"/>
          </g>
          <path id="Trazado_12589" data-name="Trazado 12589" d="M425.569,853.7a2.449,2.449,0,1,0-2.449,2.45A2.449,2.449,0,0,0,425.569,853.7Z" transform="translate(-192.916 -630.846)"/>
          <path id="Trazado_12590" data-name="Trazado 12590" d="M762.176,918.529a4.286,4.286,0,1,0-4.286,4.285A4.286,4.286,0,0,0,762.176,918.529Z" transform="translate(-389.932 -668.12)"/>
          <path id="Trazado_12591" data-name="Trazado 12591" d="M1100.577,854.145a2.142,2.142,0,1,0-2.143,2.143A2.143,2.143,0,0,0,1100.577,854.145Z" transform="translate(-592.72 -631.289)"/>
          <path id="Trazado_12593" data-name="Trazado 12593" d="M987.823,1055.723a2.755,2.755,0,1,0-2.755,2.755A2.755,2.755,0,0,0,987.823,1055.723Z" transform="translate(-525.273 -750.212)"/>
          <path id="Trazado_12595" data-name="Trazado 12595" d="M988.371,382.628a1.531,1.531,0,1,0-1.53,1.53A1.529,1.529,0,0,0,988.371,382.628Z" transform="translate(-527.046 -352.628)" fill="#e3e3e3"/>
          <path id="Trazado_12596" data-name="Trazado 12596" d="M875.481,313.808a2.449,2.449,0,1,0-2.449,2.449A2.449,2.449,0,0,0,875.481,313.808Z" transform="translate(-459.155 -311.359)" fill="#eee"/>
          <path id="Trazado_12597" data-name="Trazado 12597" d="M762.867,1190.7a2.755,2.755,0,1,0-2.755,2.755A2.756,2.756,0,0,0,762.867,1190.7Z" transform="translate(-392.153 -830.084)"/>
          <path id="Trazado_12598" data-name="Trazado 12598" d="M426.12,1530.348a1.224,1.224,0,1,0-1.224,1.223A1.224,1.224,0,0,0,426.12,1530.348Z" transform="translate(-194.692 -1031.981)"/>
          <path id="Trazado_12599" data-name="Trazado 12599" d="M537.633,1459.756a3.367,3.367,0,1,0-3.367,3.367A3.367,3.367,0,0,0,537.633,1459.756Z" transform="translate(-258.145 -988.939)" fill="#eee"/>
          <path id="Trazado_12600" data-name="Trazado 12600" d="M986.446,1186.257a5.816,5.816,0,1,0-5.816,5.815A5.816,5.816,0,0,0,986.446,1186.257Z" transform="translate(-520.835 -825.645)" fill="#fff"/>
          <path id="Trazado_12601" data-name="Trazado 12601" d="M87.447,1323.894a3.979,3.979,0,1,0-3.979,3.979A3.979,3.979,0,0,0,87.447,1323.894Z" transform="translate(8.981 -908.179)" fill="#fff"/>
          <path id="Trazado_12602" data-name="Trazado 12602" d="M-24.207,1529.016a2.143,2.143,0,0,0-2.143-2.143,2.143,2.143,0,0,0-2.143,2.143,2.143,2.143,0,0,0,2.143,2.142A2.143,2.143,0,0,0-24.207,1529.016Z" transform="translate(72.88 -1030.649)" fill="#eee"/>
          <path id="Trazado_12603" data-name="Trazado 12603" d="M874.1,1389.16a5.511,5.511,0,1,0-5.51,5.511A5.51,5.51,0,0,0,874.1,1389.16Z" transform="translate(-454.718 -945.896)"/>
          <path id="Trazado_12604" data-name="Trazado 12604" d="M313.089,1326.113a2.449,2.449,0,1,0-2.449,2.448A2.449,2.449,0,0,0,313.089,1326.113Z" transform="translate(-126.355 -910.399)" fill="#eee"/>
          <path id="Trazado_12605" data-name="Trazado 12605" d="M536.946,1052.617a4.9,4.9,0,1,0-4.9,4.9A4.9,4.9,0,0,0,536.946,1052.617Z" transform="translate(-255.927 -747.107)" fill="#e3e3e3"/>
          <path id="Trazado_12606" data-name="Trazado 12606" d="M425.569,718.732a2.449,2.449,0,1,0-2.449,2.449A2.449,2.449,0,0,0,425.569,718.732Z" transform="translate(-192.916 -550.976)" fill="#e3e3e3"/>
          <path id="Trazado_12607" data-name="Trazado 12607" d="M313.78,518.49a.918.918,0,1,0-.919.917A.919.919,0,0,0,313.78,518.49Z" transform="translate(-128.576 -433.387)"/>
          <path id="Trazado_12611" data-name="Trazado 12611" d="M650.125,1355.83v55.8l37.176,22.306h2.38l-38.332-23v-54.409l45.306-27.182,45.306,27.182v54.409l-38.331,23h2.38l37.176-22.306v-55.8l-46.531-27.918Z" transform="translate(-328.698 -912.913)" fill="#d9d9d9"/>
        </g>
        <g id="Grupo_8798" data-name="Grupo 8798" transform="translate(-6.878 -91.854)">
          <path id="Trazado_12612" data-name="Trazado 12612" d="M-52.355,583.544V613.7h-.731V583.958l-27.022-16.213-27.022,16.213V613.7h-.731V583.544l27.753-16.651Z" transform="translate(156.428 -302.94)" fill="#e6e6e6"/>
          <path id="Trazado_12613" data-name="Trazado 12613" d="M14.731,623.8v13.718H14v-13.3L-13.022,608l-27.022,16.213v13.3h-.731V623.8l27.752-16.651Z" transform="translate(116.729 -326.759)" fill="#969696"/>
          <path id="Trazado_12614" data-name="Trazado 12614" d="M-226.827,513.444l21.18-12.708V468.285l-21.18-12.708v-.852l21.911,13.146V501.15L-226.827,514.3Z" transform="translate(226.827 -236.563)" fill="#e6e6e6"/>
          <path id="Trazado_12615" data-name="Trazado 12615" d="M-177.529,422.537v33.278l-27.752,16.652-21.545-12.927v-.852l21.545,12.928L-178.26,455.4V422.951l-27.022-16.213-21.545,12.927v-.852l21.545-12.927Z" transform="translate(226.827 -207.662)" fill="#323232"/>
          <g id="Grupo_8772" data-name="Grupo 8772" transform="translate(212.891 66.765)">
            <path id="Trazado_12616" data-name="Trazado 12616" d="M294.656,133.8V100.524l27.753-16.651,27.752,16.651V133.8l-27.752,16.652Zm54.775-32.864L322.409,84.725l-27.022,16.214v32.45L322.409,149.6l27.022-16.215Z" transform="translate(-294.656 -83.873)" fill="#e6e6e6"/>
          </g>
          <g id="Grupo_8773" data-name="Grupo 8773" transform="translate(240.279 50.333)">
            <path id="Trazado_12617" data-name="Trazado 12617" d="M361.743,93.553V60.274L389.5,43.623l27.753,16.651V93.553L389.5,110.2Zm54.775-32.865L389.5,44.475,362.473,60.688V93.139L389.5,109.352l27.023-16.213Z" transform="translate(-361.743 -43.623)" fill="#323232"/>
          </g>
          <g id="Grupo_8774" data-name="Grupo 8774" transform="translate(240.279 83.197)">
            <path id="Trazado_12618" data-name="Trazado 12618" d="M361.743,174.055V140.776L389.5,124.125l27.753,16.651v33.279L389.5,190.707Zm54.775-32.865L389.5,124.977,362.473,141.19v32.451L389.5,189.855l27.023-16.213Z" transform="translate(-361.743 -124.125)" fill="#969696"/>
          </g>
          <g id="Grupo_8775" data-name="Grupo 8775" transform="translate(75.954 83.197)">
            <path id="Trazado_12619" data-name="Trazado 12619" d="M-40.774,174.055V140.776l27.752-16.651,27.753,16.651v33.278l-27.753,16.653ZM14,141.19l-27.023-16.214L-40.043,141.19v32.451l27.022,16.214L14,173.641Z" transform="translate(40.774 -124.125)" fill="#969696"/>
          </g>
          <g id="Grupo_8776" data-name="Grupo 8776" transform="translate(75.954 50.333)">
            <path id="Trazado_12620" data-name="Trazado 12620" d="M-40.774,93.553V60.274l27.752-16.651L14.731,60.274V93.553L-13.022,110.2ZM14,60.688-13.022,44.473-40.043,60.688V93.139l27.022,16.213L14,93.139Z" transform="translate(40.774 -43.623)" fill="#e6e6e6"/>
          </g>
          <g id="Grupo_8777" data-name="Grupo 8777" transform="translate(103.341 33.899)">
            <path id="Trazado_12621" data-name="Trazado 12621" d="M26.311,53.3V20.02L54.064,3.368,81.816,20.02V53.3L54.064,69.95ZM81.086,20.433,54.064,4.22,27.042,20.433V52.884L54.064,69.1,81.086,52.884Z" transform="translate(-26.311 -3.368)" fill="#969696"/>
          </g>
          <g id="Grupo_8778" data-name="Grupo 8778" transform="translate(48.567 33.899)">
            <path id="Trazado_12622" data-name="Trazado 12622" d="M-107.861,53.3V20.02L-80.108,3.368-52.356,20.02V53.3L-80.108,69.95Zm54.775-32.865L-80.108,4.22-107.13,20.433V52.884L-80.108,69.1l27.022-16.214Z" transform="translate(107.861 -3.368)" fill="#323232"/>
          </g>
          <g id="Grupo_8779" data-name="Grupo 8779" transform="translate(212.891 231.088)">
            <path id="Trazado_12623" data-name="Trazado 12623" d="M294.656,536.319V503.04l27.753-16.651,27.752,16.651v33.279l-27.752,16.652Zm54.775-32.865-27.022-16.213-27.022,16.213v32.451l27.022,16.215,27.022-16.215Z" transform="translate(-294.656 -486.389)" fill="#c8c8c8"/>
          </g>
          <g id="Grupo_8780" data-name="Grupo 8780" transform="translate(185.504 214.657)">
            <path id="Trazado_12624" data-name="Trazado 12624" d="M227.57,496.069V462.79l27.754-16.651,27.752,16.651v33.279l-27.752,16.652ZM282.345,463.2l-27.021-16.213L228.3,463.2v32.451l27.024,16.214,27.021-16.214Z" transform="translate(-227.57 -446.139)" fill="#323232"/>
          </g>
          <g id="Grupo_8781" data-name="Grupo 8781" transform="translate(103.341 198.224)">
            <path id="Trazado_12625" data-name="Trazado 12625" d="M26.311,455.816V422.538l27.753-16.652,27.752,16.652v33.278L54.064,472.467Zm54.774-32.865L54.064,406.738,27.042,422.951V455.4l27.022,16.214L81.085,455.4Z" transform="translate(-26.311 -405.886)" fill="#323232"/>
          </g>
          <g id="Grupo_8782" data-name="Grupo 8782" transform="translate(75.954 148.927)">
            <path id="Trazado_12626" data-name="Trazado 12626" d="M-40.774,335.062V301.783l27.752-16.651,27.753,16.651v33.279l-27.753,16.652ZM14,302.2l-27.023-16.213L-40.043,302.2v32.451l27.022,16.214L14,334.648Z" transform="translate(40.774 -285.132)" fill="#969696"/>
          </g>
          <g id="Grupo_8783" data-name="Grupo 8783" transform="translate(48.567 132.495)">
            <path id="Trazado_12627" data-name="Trazado 12627" d="M-107.861,294.81V261.531l27.753-16.65,27.752,16.65V294.81l-27.752,16.652Zm54.775-32.866-27.022-16.213-27.022,16.213V294.4l27.022,16.214L-53.086,294.4Z" transform="translate(107.861 -244.881)" fill="#323232"/>
          </g>
          <g id="Grupo_8784" data-name="Grupo 8784" transform="translate(21.18 148.927)">
            <path id="Trazado_12628" data-name="Trazado 12628" d="M-174.946,335.062V301.783l27.752-16.651,27.753,16.651v33.279l-27.753,16.652Zm54.775-32.865-27.022-16.213L-174.215,302.2v32.451l27.022,16.214,27.022-16.214Z" transform="translate(174.946 -285.132)" fill="#c8c8c8"/>
          </g>
          <g id="Grupo_8785" data-name="Grupo 8785" transform="translate(21.18 214.657)">
            <path id="Trazado_12629" data-name="Trazado 12629" d="M-174.946,496.069V462.79l27.752-16.651,27.753,16.651v33.279l-27.753,16.652Zm54.775-32.866-27.022-16.213L-174.215,463.2v32.451l27.022,16.214,27.022-16.214Z" transform="translate(174.946 -446.139)" fill="#969696"/>
          </g>
          <g id="Grupo_8786" data-name="Grupo 8786" transform="translate(21.18 116.062)">
            <path id="Trazado_12630" data-name="Trazado 12630" d="M-174.946,254.558V221.279l27.752-16.651,27.753,16.651v33.278l-27.753,16.652Zm54.775-32.865-27.022-16.212-27.022,16.212v32.451l27.022,16.215,27.022-16.215Z" transform="translate(174.946 -204.628)" fill="#969696"/>
          </g>
          <g id="Grupo_8787" data-name="Grupo 8787" transform="translate(48.567 99.629)">
            <path id="Trazado_12631" data-name="Trazado 12631" d="M-107.861,214.305V181.027l27.753-16.651,27.752,16.651v33.278l-27.752,16.653Zm54.775-32.864-27.022-16.213-27.022,16.213v32.451l27.022,16.215,27.022-16.215Z" transform="translate(107.861 -164.376)" fill="#969696"/>
          </g>
          <g id="Grupo_8788" data-name="Grupo 8788" transform="translate(158.116 165.36)">
            <path id="Trazado_12632" data-name="Trazado 12632" d="M160.484,375.314V342.035l27.753-16.65,27.753,16.65v33.279l-27.753,16.652Zm54.775-32.865-27.022-16.213-27.022,16.213V374.9l27.022,16.213L215.259,374.9Z" transform="translate(-160.484 -325.385)" fill="#c8c8c8"/>
          </g>
          <g id="Grupo_8789" data-name="Grupo 8789" transform="translate(103.341 165.36)">
            <path id="Trazado_12633" data-name="Trazado 12633" d="M26.311,375.314V342.035l27.753-16.65,27.752,16.65v33.279L54.064,391.966Zm54.775-32.865L54.064,326.236,27.042,342.449V374.9l27.022,16.213L81.086,374.9Z" transform="translate(-26.311 -325.385)" fill="#646464"/>
          </g>
          <g id="Grupo_8790" data-name="Grupo 8790" transform="translate(185.504 181.792)">
            <path id="Trazado_12634" data-name="Trazado 12634" d="M227.57,415.566V382.287l27.754-16.65,27.752,16.65v33.279l-27.752,16.652ZM282.345,382.7l-27.021-16.213L228.3,382.7v32.452l27.024,16.213,27.021-16.213Z" transform="translate(-227.57 -365.637)" fill="#969696"/>
          </g>
          <g id="Grupo_8791" data-name="Grupo 8791" transform="translate(212.891 165.36)">
            <path id="Trazado_12635" data-name="Trazado 12635" d="M294.656,375.314V342.035l27.753-16.65,27.752,16.65v33.279l-27.752,16.652Zm54.775-32.865-27.022-16.213-27.022,16.213V374.9l27.022,16.213L349.431,374.9Z" transform="translate(-294.656 -325.385)" fill="#e6e6e6"/>
          </g>
          <g id="Grupo_8792" data-name="Grupo 8792" transform="translate(212.891 198.224)">
            <path id="Trazado_12636" data-name="Trazado 12636" d="M294.656,455.816V422.538l27.753-16.652,27.752,16.652v33.278l-27.752,16.651Zm54.775-32.865-27.022-16.213-27.022,16.213V455.4l27.022,16.214L349.431,455.4Z" transform="translate(-294.656 -405.886)" fill="#e6e6e6"/>
          </g>
          <g id="Grupo_8793" data-name="Grupo 8793" transform="translate(240.279 181.792)">
            <path id="Trazado_12637" data-name="Trazado 12637" d="M361.743,415.566V382.287l27.753-16.65,27.753,16.65v33.279L389.5,432.218ZM416.518,382.7,389.5,366.488,362.473,382.7v32.452L389.5,431.366l27.023-16.213Z" transform="translate(-361.743 -365.637)" fill="#969696"/>
          </g>
          <g id="Grupo_8794" data-name="Grupo 8794" transform="translate(267.666 132.495)">
            <path id="Trazado_12638" data-name="Trazado 12638" d="M428.829,294.81V261.532l27.753-16.651,27.753,16.651V294.81l-27.753,16.652ZM483.6,261.945l-27.022-16.213-27.023,16.213V294.4l27.023,16.215L483.6,294.4Z" transform="translate(-428.829 -244.881)" fill="#e6e6e6"/>
          </g>
          <g id="Grupo_8795" data-name="Grupo 8795" transform="translate(185.504 116.062)">
            <path id="Trazado_12639" data-name="Trazado 12639" d="M227.57,254.558V221.279l27.754-16.651,27.752,16.651v33.278L255.324,271.21Zm54.775-32.865L255.324,205.48,228.3,221.693v32.451l27.024,16.215,27.021-16.215Z" transform="translate(-227.57 -204.628)" fill="#323232"/>
          </g>
          <g id="Grupo_8796" data-name="Grupo 8796" transform="translate(158.116 132.495)">
            <path id="Trazado_12640" data-name="Trazado 12640" d="M160.484,294.81V261.531l27.753-16.65,27.753,16.65V294.81l-27.753,16.652Zm54.775-32.866-27.022-16.213-27.022,16.213V294.4l27.022,16.214L215.259,294.4Z" transform="translate(-160.484 -244.881)" fill="#646464"/>
          </g>
          <path id="Trazado_12641" data-name="Trazado 12641" d="M358.614,163.038a1.643,1.643,0,1,1,1.643,1.644A1.642,1.642,0,0,1,358.614,163.038Z" transform="translate(-119.613 -62.983)"/>
          <path id="Trazado_12642" data-name="Trazado 12642" d="M491.444,242.746a2.191,2.191,0,1,1,2.191,2.191A2.191,2.191,0,0,1,491.444,242.746Z" transform="translate(-198.216 -109.826)" fill="#969696"/>
          <path id="Trazado_12643" data-name="Trazado 12643" d="M359.06,404.813a1.461,1.461,0,1,1,1.461,1.461A1.46,1.46,0,0,1,359.06,404.813Z" transform="translate(-119.877 -206.163)"/>
          <g id="Grupo_8797" data-name="Grupo 8797" transform="translate(130.729 116.062)">
            <path id="Trazado_12644" data-name="Trazado 12644" d="M93.4,254.558V221.279l27.752-16.651L148.9,221.279v33.278L121.151,271.21Zm54.774-32.865L121.151,205.48,94.129,221.693v32.451l27.022,16.215,27.022-16.215Z" transform="translate(-93.399 -204.628)" fill="#323232"/>
          </g>
          <path id="Trazado_12645" data-name="Trazado 12645" d="M224.888,243.805a1.461,1.461,0,1,1,1.46,1.461A1.46,1.46,0,0,1,224.888,243.805Z" transform="translate(-40.479 -110.885)"/>
          <path id="Trazado_12646" data-name="Trazado 12646" d="M20.945,282.47a2.556,2.556,0,1,1,2.556,2.556A2.557,2.557,0,0,1,20.945,282.47Z" transform="translate(80.206 -133.117)"/>
          <path id="Trazado_12647" data-name="Trazado 12647" d="M-177.183,244.07a1.278,1.278,0,0,1,1.279-1.278,1.278,1.278,0,0,1,1.277,1.278,1.278,1.278,0,0,1-1.277,1.278A1.278,1.278,0,0,1-177.183,244.07Z" transform="translate(197.45 -111.15)"/>
          <path id="Trazado_12648" data-name="Trazado 12648" d="M-110.991,122.786a1.643,1.643,0,0,1,1.643-1.644,1.643,1.643,0,0,1,1.643,1.644,1.644,1.644,0,0,1-1.643,1.643A1.643,1.643,0,0,1-110.991,122.786Z" transform="translate(158.28 -39.163)"/>
          <path id="Trazado_12649" data-name="Trazado 12649" d="M-110.991,364.3a1.643,1.643,0,0,1,1.643-1.644A1.644,1.644,0,0,1-107.7,364.3a1.643,1.643,0,0,1-1.643,1.643A1.643,1.643,0,0,1-110.991,364.3Z" transform="translate(158.28 -182.079)"/>
          <path id="Trazado_12650" data-name="Trazado 12650" d="M21.84,41.49a2.191,2.191,0,1,1,2.191,2.191A2.191,2.191,0,0,1,21.84,41.49Z" transform="translate(79.676 9.269)"/>
          <path id="Trazado_12651" data-name="Trazado 12651" d="M-109.2-37.162a.913.913,0,0,1,.913-.913.913.913,0,0,1,.913.913.912.912,0,0,1-.913.912A.913.913,0,0,1-109.2-37.162Z" transform="translate(157.222 55.055)" fill="#646464"/>
          <path id="Trazado_12652" data-name="Trazado 12652" d="M-43.456-78.209A1.461,1.461,0,0,1-42-79.669a1.461,1.461,0,0,1,1.461,1.46A1.461,1.461,0,0,1-42-76.748,1.461,1.461,0,0,1-43.456-78.209Z" transform="translate(118.316 79.669)" fill="#969696"/>
          <path id="Trazado_12653" data-name="Trazado 12653" d="M23.181,444.8a1.643,1.643,0,1,1,1.643,1.643A1.643,1.643,0,0,1,23.181,444.8Z" transform="translate(78.883 -229.718)"/>
          <path id="Trazado_12654" data-name="Trazado 12654" d="M226.676,647.382a.73.73,0,1,1,.73.73A.73.73,0,0,1,226.676,647.382Z" transform="translate(-41.537 -350.137)"/>
          <path id="Trazado_12655" data-name="Trazado 12655" d="M156.461,605.278a2.008,2.008,0,1,1,2.008,2.009A2.008,2.008,0,0,1,156.461,605.278Z" transform="translate(0.013 -324.465)" fill="#969696"/>
          <path id="Trazado_12656" data-name="Trazado 12656" d="M-115.465,442.153a3.47,3.47,0,0,1,3.47-3.47,3.47,3.47,0,0,1,3.47,3.47,3.47,3.47,0,0,1-3.47,3.468A3.47,3.47,0,0,1-115.465,442.153Z" transform="translate(160.927 -227.07)" fill="#e6e6e6"/>
          <path id="Trazado_12657" data-name="Trazado 12657" d="M423.91,524.245a2.374,2.374,0,1,1,2.373,2.373A2.374,2.374,0,0,1,423.91,524.245Z" transform="translate(-158.252 -276.297)" fill="#e6e6e6"/>
          <path id="Trazado_12658" data-name="Trazado 12658" d="M493.68,646.588a1.278,1.278,0,1,1,1.278,1.279A1.278,1.278,0,0,1,493.68,646.588Z" transform="translate(-199.539 -349.343)" fill="#969696"/>
          <path id="Trazado_12659" data-name="Trazado 12659" d="M-47.929,563.173a3.286,3.286,0,0,1,3.286-3.287,3.286,3.286,0,0,1,3.286,3.287,3.287,3.287,0,0,1-3.286,3.287A3.287,3.287,0,0,1-47.929,563.173Z" transform="translate(120.962 -298.793)"/>
          <path id="Trazado_12660" data-name="Trazado 12660" d="M291.974,525.569a1.461,1.461,0,1,1,1.461,1.46A1.461,1.461,0,0,1,291.974,525.569Z" transform="translate(-80.178 -277.621)" fill="#969696"/>
          <path id="Trazado_12661" data-name="Trazado 12661" d="M154.224,362.445a2.921,2.921,0,1,1,2.921,2.921A2.921,2.921,0,0,1,154.224,362.445Z" transform="translate(1.337 -180.227)" fill="#646464"/>
          <path id="Trazado_12662" data-name="Trazado 12662" d="M224.888,163.3a1.461,1.461,0,1,1,1.46,1.461A1.461,1.461,0,0,1,224.888,163.3Z" transform="translate(-40.479 -63.247)" fill="#646464"/>
          <path id="Trazado_12663" data-name="Trazado 12663" d="M294.211,43.871a.548.548,0,1,1,.548.548A.548.548,0,0,1,294.211,43.871Z" transform="translate(-81.502 6.887)"/>
          <path id="Trazado_12664" data-name="Trazado 12664" d="M-226.827,30.423l21.18-12.708V-14.737l-21.18-12.708V-28.3l21.911,13.146V18.129l-21.911,13.145Z" transform="translate(226.827 49.269)" fill="#323232"/>
          <path id="Trazado_12665" data-name="Trazado 12665" d="M-226.827,191.43l21.18-12.708V146.271l-21.18-12.709v-.852l21.911,13.146v33.278l-21.911,13.146Z" transform="translate(226.827 -46.009)" fill="#323232"/>
          <path id="Trazado_12666" data-name="Trazado 12666" d="M-177.529,100.524V133.8l-27.752,16.652-21.545-12.927v-.852l21.545,12.928,27.022-16.214V100.938l-27.022-16.214-21.545,12.927V96.8l21.545-12.926Z" transform="translate(226.827 -17.109)" fill="#969696"/>
          <path id="Trazado_12667" data-name="Trazado 12667" d="M14.731,543.294v33.279l-22.173,13.3h-1.42L14,576.158V543.707l-27.023-16.214-27.022,16.214v32.451l22.862,13.718H-18.6l-22.173-13.3V543.294l27.752-16.652Z" transform="translate(116.729 -279.12)" fill="#323232"/>
        </g>
      </g>
    </g>
    <g id="Grupo_8801" data-name="Grupo 8801" transform="translate(1344 -1)" opacity="0.202">
      <g id="Grupo_8799-2" data-name="Grupo 8799" clip-path="url(#clip-path-2)">
        <g id="Grupo_8771-2" data-name="Grupo 8771" transform="translate(1.461 67.779)">
          <path id="Trazado_12556-2" data-name="Trazado 12556" d="M855.667,1423.316v50.552h-1.224V1424.01l-45.305-27.184-45.306,27.184v49.858h-1.225v-50.552l46.531-27.917Z" transform="translate(-681.178 -952.848)" fill="#fff"/>
          <path id="Trazado_12557-2" data-name="Trazado 12557" d="M743.187,1490.8v23h-1.224V1491.5l-45.306-27.183L651.351,1491.5V1513.8h-1.225v-23l46.531-27.917Z" transform="translate(-522.779 -992.786)" fill="#eee"/>
          <path id="Trazado_12558-2" data-name="Trazado 12558" d="M1100.038,1305.786l35.51-21.308V1230.07l-35.51-21.307v-1.427l36.735,22.04v55.8l-36.735,22.042Z" transform="translate(-1100.038 -841.561)" fill="#fff"/>
          <path id="Trazado_12559-2" data-name="Trazado 12559" d="M1070.213,1153.368v55.8l-46.53,27.919-36.123-21.674v-1.429l36.123,21.675,45.305-27.185v-54.408l-45.305-27.184-36.123,21.674v-1.429l36.123-21.672Z" transform="translate(-987.56 -793.105)" fill="#d9d9d9"/>
          <g id="Grupo_8745-2" data-name="Grupo 8745" transform="translate(356.937 111.94)">
            <path id="Trazado_12560-2" data-name="Trazado 12560" d="M134.268,697.19l46.53-27.917v-55.8l-46.53-27.917L87.737,613.477v55.8Zm45.306-28.612-45.306,27.184L88.963,668.578V614.17l45.305-27.183,45.306,27.183Z" transform="translate(-87.737 -585.56)" fill="#fff"/>
          </g>
          <g id="Grupo_8746-2" data-name="Grupo 8746" transform="translate(402.856 84.388)">
            <path id="Trazado_12561-2" data-name="Trazado 12561" d="M21.788,629.7l46.531-27.919V545.99L21.788,518.071-24.743,545.99v55.794Zm45.305-28.612L21.788,628.276l-45.306-27.185V546.683L21.788,519.5l45.305,27.184Z" transform="translate(24.743 -518.071)" fill="#d9d9d9"/>
          </g>
          <g id="Grupo_8747-2" data-name="Grupo 8747" transform="translate(402.856 139.49)">
            <path id="Trazado_12562-2" data-name="Trazado 12562" d="M21.788,764.677l46.531-27.919v-55.8L21.788,653.044l-46.531,27.919v55.8Zm45.305-28.613L21.788,763.248l-45.306-27.184V681.656l45.306-27.183,45.305,27.183Z" transform="translate(24.743 -653.044)" fill="#eee"/>
          </g>
          <g id="Grupo_8748" data-name="Grupo 8748" transform="translate(127.346 139.49)">
            <path id="Trazado_12563" data-name="Trazado 12563" d="M696.657,764.677l46.531-27.92v-55.8l-46.531-27.918-46.531,27.918v55.8Zm45.306-28.614-45.306,27.185-45.306-27.185V681.655l45.306-27.182,45.306,27.182Z" transform="translate(-650.126 -653.044)" fill="#eee"/>
          </g>
          <g id="Grupo_8749" data-name="Grupo 8749" transform="translate(127.346 84.388)">
            <path id="Trazado_12564" data-name="Trazado 12564" d="M696.657,629.7l46.531-27.919V545.99l-46.531-27.919L650.126,545.99v55.794Zm45.306-28.612-45.306,27.185-45.306-27.185V546.683L696.657,519.5l45.306,27.184Z" transform="translate(-650.126 -518.071)" fill="#fff"/>
          </g>
          <g id="Grupo_8750" data-name="Grupo 8750" transform="translate(173.264 56.837)">
            <path id="Trazado_12565" data-name="Trazado 12565" d="M584.181,562.215l46.53-27.919V478.5l-46.53-27.918L537.65,478.5v55.8ZM629.487,533.6l-45.306,27.184L538.874,533.6v-54.41l45.307-27.182,45.306,27.182Z" transform="translate(-537.65 -450.582)" fill="#eee"/>
          </g>
          <g id="Grupo_8751" data-name="Grupo 8751" transform="translate(81.428 56.837)">
            <path id="Trazado_12566" data-name="Trazado 12566" d="M809.137,562.215l46.53-27.919V478.5l-46.53-27.918L762.606,478.5v55.8ZM854.442,533.6l-45.305,27.184L763.831,533.6v-54.41l45.306-27.182,45.305,27.182Z" transform="translate(-762.606 -450.582)" fill="#d9d9d9"/>
          </g>
          <g id="Grupo_8752-2" data-name="Grupo 8752" transform="translate(356.937 387.449)">
            <path id="Trazado_12567-2" data-name="Trazado 12567" d="M134.268,1372.057l46.53-27.918v-55.8l-46.53-27.917-46.531,27.917v55.8Zm45.306-28.613-45.306,27.184-45.305-27.184v-54.409l45.305-27.183,45.306,27.183Z" transform="translate(-87.737 -1260.426)" fill="#f9f9f9"/>
          </g>
          <g id="Grupo_8753-2" data-name="Grupo 8753" transform="translate(311.019 359.899)">
            <path id="Trazado_12568-2" data-name="Trazado 12568" d="M246.744,1304.573l46.53-27.92v-55.795l-46.53-27.917-46.531,27.917v55.795Zm45.305-28.613-45.305,27.185-45.306-27.185v-54.408l45.306-27.183,45.305,27.183Z" transform="translate(-200.213 -1192.942)" fill="#d9d9d9"/>
          </g>
          <g id="Grupo_8754-2" data-name="Grupo 8754" transform="translate(173.264 332.346)">
            <path id="Trazado_12569-2" data-name="Trazado 12569" d="M584.181,1237.083l46.53-27.919v-55.8l-46.53-27.917-46.531,27.917v55.8Zm45.3-28.612-45.3,27.185-45.307-27.185v-54.408l45.307-27.183,45.3,27.183Z" transform="translate(-537.65 -1125.451)" fill="#d9d9d9"/>
          </g>
          <g id="Grupo_8755-2" data-name="Grupo 8755" transform="translate(127.346 249.694)">
            <path id="Trazado_12570-2" data-name="Trazado 12570" d="M696.657,1034.625l46.531-27.92v-55.8l-46.531-27.916-46.531,27.916v55.8Zm45.306-28.613L696.657,1033.2l-45.306-27.186V951.6l45.306-27.182L741.963,951.6Z" transform="translate(-650.126 -922.993)" fill="#eee"/>
          </g>
          <g id="Grupo_8756-2" data-name="Grupo 8756" transform="translate(81.428 222.142)">
            <path id="Trazado_12571-2" data-name="Trazado 12571" d="M809.137,967.135l46.53-27.919V883.421L809.137,855.5l-46.531,27.918v55.795Zm45.305-28.612-45.305,27.184-45.306-27.184V884.114l45.306-27.184,45.305,27.184Z" transform="translate(-762.606 -855.503)" fill="#d9d9d9"/>
          </g>
          <g id="Grupo_8757-2" data-name="Grupo 8757" transform="translate(35.51 249.694)">
            <path id="Trazado_12572-2" data-name="Trazado 12572" d="M921.613,1034.625l46.531-27.92v-55.8l-46.531-27.916-46.531,27.916v55.8Zm45.305-28.613L921.613,1033.2l-45.306-27.186V951.6l45.306-27.182L966.918,951.6Z" transform="translate(-875.082 -922.993)" fill="#f9f9f9"/>
          </g>
          <g id="Grupo_8758-2" data-name="Grupo 8758" transform="translate(35.51 359.899)">
            <path id="Trazado_12573-2" data-name="Trazado 12573" d="M921.613,1304.573l46.531-27.92v-55.795l-46.531-27.917-46.531,27.917v55.795Zm45.305-28.613-45.305,27.185-45.306-27.185v-54.408l45.306-27.183,45.305,27.183Z" transform="translate(-875.082 -1192.942)" fill="#eee"/>
          </g>
          <g id="Grupo_8759" data-name="Grupo 8759" transform="translate(35.51 194.593)">
            <path id="Trazado_12574" data-name="Trazado 12574" d="M921.613,899.652l46.531-27.919v-55.8l-46.531-27.916-46.531,27.916v55.8Zm45.305-28.613-45.305,27.186-45.306-27.186V816.631l45.306-27.183,45.305,27.183Z" transform="translate(-875.082 -788.021)" fill="#eee"/>
          </g>
          <g id="Grupo_8760" data-name="Grupo 8760" transform="translate(81.428 167.041)">
            <path id="Trazado_12575" data-name="Trazado 12575" d="M809.137,832.163l46.53-27.919V748.449l-46.53-27.918-46.531,27.918v55.795Zm45.305-28.612-45.305,27.185L763.831,803.55V749.143l45.306-27.184,45.305,27.184Z" transform="translate(-762.606 -720.531)" fill="#eee"/>
          </g>
          <g id="Grupo_8761-2" data-name="Grupo 8761" transform="translate(265.101 277.245)">
            <path id="Trazado_12576-2" data-name="Trazado 12576" d="M359.221,1102.109l46.531-27.918v-55.8l-46.531-27.917-46.53,27.917v55.8Zm45.305-28.612-45.305,27.185L313.915,1073.5v-54.408l45.306-27.183,45.305,27.183Z" transform="translate(-312.691 -990.478)" fill="#f9f9f9"/>
          </g>
          <g id="Grupo_8762-2" data-name="Grupo 8762" transform="translate(173.264 277.245)">
            <path id="Trazado_12577-2" data-name="Trazado 12577" d="M584.181,1102.109l46.53-27.918v-55.8l-46.53-27.917L537.65,1018.4v55.8Zm45.306-28.612-45.306,27.185L538.874,1073.5v-54.408l45.307-27.183,45.306,27.183Z" transform="translate(-537.65 -990.478)" fill="#e3e3e3"/>
          </g>
          <g id="Grupo_8763-2" data-name="Grupo 8763" transform="translate(311.019 304.797)">
            <path id="Trazado_12578-2" data-name="Trazado 12578" d="M246.744,1169.6l46.53-27.919v-55.8l-46.53-27.916-46.531,27.916v55.8Zm45.305-28.613-45.305,27.184-45.306-27.184v-54.409l45.306-27.182,45.305,27.182Z" transform="translate(-200.213 -1057.968)" fill="#eee"/>
          </g>
          <g id="Grupo_8764-2" data-name="Grupo 8764" transform="translate(356.937 277.245)">
            <path id="Trazado_12579-2" data-name="Trazado 12579" d="M134.268,1102.109l46.53-27.918v-55.8l-46.53-27.917L87.737,1018.4v55.8Zm45.306-28.612-45.306,27.185L88.963,1073.5v-54.408l45.305-27.183,45.306,27.183Z" transform="translate(-87.737 -990.478)" fill="#fff"/>
          </g>
          <g id="Grupo_8765-2" data-name="Grupo 8765" transform="translate(356.937 332.346)">
            <path id="Trazado_12580-2" data-name="Trazado 12580" d="M134.268,1237.083l46.53-27.919v-55.8l-46.53-27.917-46.531,27.917v55.8Zm45.306-28.612-45.306,27.185L88.963,1208.47v-54.408l45.305-27.183,45.306,27.183Z" transform="translate(-87.737 -1125.451)" fill="#fff"/>
          </g>
          <g id="Grupo_8766-2" data-name="Grupo 8766" transform="translate(402.856 304.797)">
            <path id="Trazado_12581-2" data-name="Trazado 12581" d="M21.788,1169.6l46.531-27.919v-55.8l-46.531-27.916-46.531,27.916v55.8Zm45.305-28.613L21.788,1168.17l-45.306-27.184v-54.409L21.788,1059.4l45.305,27.182Z" transform="translate(24.743 -1057.968)" fill="#eee"/>
          </g>
          <g id="Grupo_8767-2" data-name="Grupo 8767" transform="translate(448.774 222.143)">
            <path id="Trazado_12582-2" data-name="Trazado 12582" d="M-90.69,967.137l46.531-27.918v-55.8L-90.69,855.505l-46.531,27.918v55.8Zm45.305-28.611L-90.69,965.709-136,938.525V884.116l45.307-27.184,45.305,27.184Z" transform="translate(137.221 -855.505)" fill="#fff"/>
          </g>
          <g id="Grupo_8768-2" data-name="Grupo 8768" transform="translate(311.019 194.593)">
            <path id="Trazado_12583-2" data-name="Trazado 12583" d="M246.744,899.652l46.53-27.919v-55.8l-46.53-27.916-46.531,27.916v55.8Zm45.305-28.613-45.305,27.186-45.306-27.186V816.631l45.306-27.183,45.305,27.183Z" transform="translate(-200.213 -788.021)" fill="#d9d9d9"/>
          </g>
          <g id="Grupo_8769-2" data-name="Grupo 8769" transform="translate(265.101 222.142)">
            <path id="Trazado_12584-2" data-name="Trazado 12584" d="M359.221,967.135l46.531-27.919V883.421L359.221,855.5l-46.53,27.918v55.795Zm45.305-28.612-45.305,27.184-45.306-27.184V884.114l45.306-27.184,45.305,27.184Z" transform="translate(-312.691 -855.503)" fill="#e3e3e3"/>
          </g>
          <path id="Trazado_12585-2" data-name="Trazado 12585" d="M194.965,718.288a2.755,2.755,0,1,1,2.754,2.755A2.755,2.755,0,0,1,194.965,718.288Z" transform="translate(205.749 -550.532)"/>
          <path id="Trazado_12586-2" data-name="Trazado 12586" d="M-32.242,851.927a3.674,3.674,0,0,1,3.674-3.673,3.674,3.674,0,0,1,3.674,3.673,3.675,3.675,0,0,1-3.674,3.674A3.675,3.675,0,0,1-32.242,851.927Z" transform="translate(523.873 -629.071)" fill="#eee"/>
          <path id="Trazado_12587-2" data-name="Trazado 12587" d="M195.715,1123.651a2.449,2.449,0,1,1,2.449,2.449A2.449,2.449,0,0,1,195.715,1123.651Z" transform="translate(205.304 -790.59)"/>
          <g id="Grupo_8770-2" data-name="Grupo 8770" transform="translate(219.183 194.593)">
            <path id="Trazado_12588-2" data-name="Trazado 12588" d="M471.7,899.652l46.53-27.919v-55.8L471.7,788.021l-46.531,27.916v55.8Zm45.305-28.613L471.7,898.224l-45.306-27.186V816.631L471.7,789.448l45.305,27.183Z" transform="translate(-425.169 -788.021)" fill="#d9d9d9"/>
          </g>
          <path id="Trazado_12589-2" data-name="Trazado 12589" d="M420.671,853.7a2.449,2.449,0,1,1,2.449,2.45A2.449,2.449,0,0,1,420.671,853.7Z" transform="translate(-111.488 -630.846)"/>
          <path id="Trazado_12590-2" data-name="Trazado 12590" d="M753.6,918.529a4.286,4.286,0,1,1,4.286,4.285A4.286,4.286,0,0,1,753.6,918.529Z" transform="translate(-584.013 -668.12)"/>
          <path id="Trazado_12591-2" data-name="Trazado 12591" d="M1096.292,854.145a2.142,2.142,0,1,1,2.143,2.143A2.143,2.143,0,0,1,1096.292,854.145Z" transform="translate(-1062.313 -631.289)"/>
          <path id="Trazado_12593-2" data-name="Trazado 12593" d="M982.314,1055.723a2.755,2.755,0,1,1,2.755,2.755A2.755,2.755,0,0,1,982.314,1055.723Z" transform="translate(-903.028 -750.212)"/>
          <path id="Trazado_12595-2" data-name="Trazado 12595" d="M985.31,382.628a1.531,1.531,0,1,1,1.53,1.53A1.529,1.529,0,0,1,985.31,382.628Z" transform="translate(-904.799 -352.628)" fill="#e3e3e3"/>
          <path id="Trazado_12596-2" data-name="Trazado 12596" d="M870.582,313.808a2.449,2.449,0,1,1,2.449,2.449A2.449,2.449,0,0,1,870.582,313.808Z" transform="translate(-745.072 -311.359)" fill="#eee"/>
          <path id="Trazado_12597-2" data-name="Trazado 12597" d="M757.357,1190.7a2.755,2.755,0,1,1,2.755,2.755A2.756,2.756,0,0,1,757.357,1190.7Z" transform="translate(-586.235 -830.084)"/>
          <path id="Trazado_12598-2" data-name="Trazado 12598" d="M423.672,1530.348a1.224,1.224,0,1,1,1.224,1.223A1.224,1.224,0,0,1,423.672,1530.348Z" transform="translate(-113.264 -1031.981)"/>
          <path id="Trazado_12599-2" data-name="Trazado 12599" d="M530.9,1459.756a3.367,3.367,0,1,1,3.367,3.367A3.367,3.367,0,0,1,530.9,1459.756Z" transform="translate(-268.552 -988.939)" fill="#eee"/>
          <path id="Trazado_12600-2" data-name="Trazado 12600" d="M974.814,1186.257a5.816,5.816,0,1,1,5.816,5.815A5.816,5.816,0,0,1,974.814,1186.257Z" transform="translate(-898.589 -825.645)" fill="#fff"/>
          <path id="Trazado_12601-2" data-name="Trazado 12601" d="M79.489,1323.894a3.979,3.979,0,1,1,3.979,3.979A3.979,3.979,0,0,1,79.489,1323.894Z" transform="translate(365.919 -908.179)" fill="#fff"/>
          <path id="Trazado_12602-2" data-name="Trazado 12602" d="M-28.493,1529.016a2.143,2.143,0,0,1,2.143-2.143,2.143,2.143,0,0,1,2.143,2.143,2.143,2.143,0,0,1-2.143,2.142A2.143,2.143,0,0,1-28.493,1529.016Z" transform="translate(521.655 -1030.649)" fill="#eee"/>
          <path id="Trazado_12603-2" data-name="Trazado 12603" d="M863.084,1389.16a5.511,5.511,0,1,1,5.51,5.511A5.51,5.51,0,0,1,863.084,1389.16Z" transform="translate(-740.636 -945.896)"/>
          <path id="Trazado_12604-2" data-name="Trazado 12604" d="M308.191,1326.113a2.449,2.449,0,1,1,2.449,2.448A2.449,2.449,0,0,1,308.191,1326.113Z" transform="translate(46.91 -910.399)" fill="#eee"/>
          <path id="Trazado_12605-2" data-name="Trazado 12605" d="M527.151,1052.617a4.9,4.9,0,1,1,4.9,4.9A4.9,4.9,0,0,1,527.151,1052.617Z" transform="translate(-266.335 -747.107)" fill="#e3e3e3"/>
          <path id="Trazado_12606-2" data-name="Trazado 12606" d="M420.671,718.732a2.449,2.449,0,1,1,2.449,2.449A2.449,2.449,0,0,1,420.671,718.732Z" transform="translate(-111.488 -550.976)" fill="#e3e3e3"/>
          <path id="Trazado_12607-2" data-name="Trazado 12607" d="M311.943,518.49a.918.918,0,1,1,.919.917A.919.919,0,0,1,311.943,518.49Z" transform="translate(44.688 -433.387)"/>
          <path id="Trazado_12611-2" data-name="Trazado 12611" d="M743.187,1355.83v55.8l-37.176,22.306h-2.38l38.332-23v-54.409l-45.306-27.182-45.306,27.182v54.409l38.331,23H687.3l-37.176-22.306v-55.8l46.531-27.918Z" transform="translate(-522.779 -912.913)" fill="#d9d9d9"/>
        </g>
        <g id="Grupo_8798-2" data-name="Grupo 8798" transform="translate(256.706 -91.854)">
          <path id="Trazado_12612-2" data-name="Trazado 12612" d="M-107.861,583.544V613.7h.731V583.958l27.022-16.213,27.022,16.213V613.7h.731V583.544l-27.753-16.651Z" transform="translate(326.961 -302.94)" fill="#e6e6e6"/>
          <path id="Trazado_12613-2" data-name="Trazado 12613" d="M-40.774,623.8v13.718h.73v-13.3L-13.022,608,14,624.211v13.3h.731V623.8l-27.752-16.651Z" transform="translate(232.487 -326.759)" fill="#969696"/>
          <path id="Trazado_12614-2" data-name="Trazado 12614" d="M-204.916,513.444l-21.18-12.708V468.285l21.18-12.708v-.852l-21.911,13.146V501.15l21.911,13.145Z" transform="translate(528.088 -236.563)" fill="#e6e6e6"/>
          <path id="Trazado_12615-2" data-name="Trazado 12615" d="M-226.827,422.537v33.278l27.752,16.652,21.545-12.927v-.852l-21.545,12.928L-226.1,455.4V422.951l27.022-16.213,21.545,12.927v-.852l-21.545-12.927Z" transform="translate(500.701 -207.662)" fill="#323232"/>
          <g id="Grupo_8772-2" data-name="Grupo 8772" transform="translate(54.776 66.765)">
            <path id="Trazado_12616-2" data-name="Trazado 12616" d="M350.161,133.8V100.524L322.408,83.873l-27.752,16.651V133.8l27.752,16.652Zm-54.775-32.864,27.022-16.214,27.022,16.214v32.45L322.408,149.6l-27.022-16.215Z" transform="translate(-294.656 -83.873)" fill="#e6e6e6"/>
          </g>
          <g id="Grupo_8773-2" data-name="Grupo 8773" transform="translate(27.388 50.333)">
            <path id="Trazado_12617-2" data-name="Trazado 12617" d="M417.249,93.553V60.274L389.5,43.623,361.743,60.274V93.553L389.5,110.2ZM362.473,60.687,389.5,44.475l27.022,16.213V93.139L389.5,109.352,362.473,93.139Z" transform="translate(-361.743 -43.623)" fill="#323232"/>
          </g>
          <g id="Grupo_8774-2" data-name="Grupo 8774" transform="translate(27.388 83.197)">
            <path id="Trazado_12618-2" data-name="Trazado 12618" d="M417.249,174.055V140.776L389.5,124.125l-27.753,16.651v33.279L389.5,190.707ZM362.473,141.19,389.5,124.977l27.022,16.214v32.451L389.5,189.855l-27.023-16.213Z" transform="translate(-361.743 -124.125)" fill="#969696"/>
          </g>
          <g id="Grupo_8775-2" data-name="Grupo 8775" transform="translate(191.712 83.197)">
            <path id="Trazado_12619-2" data-name="Trazado 12619" d="M14.731,174.055V140.776l-27.752-16.651-27.753,16.651v33.278l27.753,16.653ZM-40.044,141.19l27.023-16.214L14,141.19v32.451l-27.022,16.214-27.023-16.214Z" transform="translate(40.774 -124.125)" fill="#969696"/>
          </g>
          <g id="Grupo_8776-2" data-name="Grupo 8776" transform="translate(191.712 50.333)">
            <path id="Trazado_12620-2" data-name="Trazado 12620" d="M14.731,93.553V60.274L-13.021,43.623-40.774,60.274V93.553L-13.021,110.2ZM-40.044,60.688l27.023-16.215L14,60.688V93.139l-27.022,16.213L-40.044,93.139Z" transform="translate(40.774 -43.623)" fill="#e6e6e6"/>
          </g>
          <g id="Grupo_8777-2" data-name="Grupo 8777" transform="translate(164.325 33.899)">
            <path id="Trazado_12621-2" data-name="Trazado 12621" d="M81.816,53.3V20.02L54.063,3.368,26.311,20.02V53.3L54.063,69.95ZM27.041,20.433,54.063,4.22,81.086,20.433V52.884L54.063,69.1,27.041,52.884Z" transform="translate(-26.311 -3.368)" fill="#969696"/>
          </g>
          <g id="Grupo_8778-2" data-name="Grupo 8778" transform="translate(219.1 33.899)">
            <path id="Trazado_12622-2" data-name="Trazado 12622" d="M-52.356,53.3V20.02L-80.109,3.368-107.861,20.02V53.3L-80.109,69.95ZM-107.13,20.433-80.109,4.22l27.022,16.213V52.884L-80.109,69.1-107.13,52.884Z" transform="translate(107.861 -3.368)" fill="#323232"/>
          </g>
          <g id="Grupo_8779-2" data-name="Grupo 8779" transform="translate(54.776 231.088)">
            <path id="Trazado_12623-2" data-name="Trazado 12623" d="M350.161,536.319V503.04l-27.753-16.651L294.656,503.04v33.279l27.752,16.652Zm-54.775-32.865,27.022-16.213,27.022,16.213v32.451L322.408,552.12l-27.022-16.215Z" transform="translate(-294.656 -486.389)" fill="#c8c8c8"/>
          </g>
          <g id="Grupo_8780-2" data-name="Grupo 8780" transform="translate(82.163 214.657)">
            <path id="Trazado_12624-2" data-name="Trazado 12624" d="M283.075,496.069V462.79l-27.754-16.651L227.57,462.79v33.279l27.752,16.652ZM228.3,463.2l27.021-16.213L282.345,463.2v32.451l-27.024,16.214L228.3,495.655Z" transform="translate(-227.57 -446.139)" fill="#323232"/>
          </g>
          <g id="Grupo_8781-2" data-name="Grupo 8781" transform="translate(164.325 198.224)">
            <path id="Trazado_12625-2" data-name="Trazado 12625" d="M81.816,455.816V422.538L54.063,405.886,26.311,422.538v33.278l27.752,16.651ZM27.042,422.951l27.021-16.213,27.022,16.213V455.4L54.063,471.616,27.042,455.4Z" transform="translate(-26.311 -405.886)" fill="#323232"/>
          </g>
          <g id="Grupo_8782-2" data-name="Grupo 8782" transform="translate(191.712 148.927)">
            <path id="Trazado_12626-2" data-name="Trazado 12626" d="M14.731,335.062V301.783l-27.752-16.651-27.753,16.651v33.279l27.753,16.652ZM-40.044,302.2l27.023-16.213L14,302.2v32.451l-27.022,16.214-27.023-16.214Z" transform="translate(40.774 -285.132)" fill="#969696"/>
          </g>
          <g id="Grupo_8783-2" data-name="Grupo 8783" transform="translate(219.1 132.495)">
            <path id="Trazado_12627-2" data-name="Trazado 12627" d="M-52.356,294.81V261.531l-27.753-16.65-27.752,16.65V294.81l27.752,16.652Zm-54.775-32.866,27.022-16.213,27.022,16.213V294.4L-80.109,310.61-107.13,294.4Z" transform="translate(107.861 -244.881)" fill="#323232"/>
          </g>
          <g id="Grupo_8784-2" data-name="Grupo 8784" transform="translate(246.487 148.927)">
            <path id="Trazado_12628-2" data-name="Trazado 12628" d="M-119.441,335.062V301.783l-27.752-16.651-27.753,16.651v33.279l27.753,16.652ZM-174.215,302.2l27.022-16.213,27.022,16.213v32.451l-27.022,16.214-27.022-16.214Z" transform="translate(174.946 -285.132)" fill="#c8c8c8"/>
          </g>
          <g id="Grupo_8785-2" data-name="Grupo 8785" transform="translate(246.487 214.657)">
            <path id="Trazado_12629-2" data-name="Trazado 12629" d="M-119.441,496.069V462.79l-27.752-16.651-27.753,16.651v33.279l27.753,16.652ZM-174.215,463.2l27.022-16.213,27.022,16.213v32.451l-27.022,16.214-27.022-16.214Z" transform="translate(174.946 -446.139)" fill="#969696"/>
          </g>
          <g id="Grupo_8786-2" data-name="Grupo 8786" transform="translate(246.487 116.062)">
            <path id="Trazado_12630-2" data-name="Trazado 12630" d="M-119.441,254.558V221.279l-27.752-16.651-27.753,16.651v33.278l27.753,16.652Zm-54.775-32.865,27.022-16.212,27.022,16.212v32.451l-27.022,16.215-27.022-16.215Z" transform="translate(174.946 -204.628)" fill="#969696"/>
          </g>
          <g id="Grupo_8787-2" data-name="Grupo 8787" transform="translate(219.1 99.629)">
            <path id="Trazado_12631-2" data-name="Trazado 12631" d="M-52.356,214.305V181.027l-27.753-16.651-27.752,16.651v33.278l27.752,16.653Zm-54.775-32.864,27.022-16.213,27.022,16.213v32.451l-27.022,16.215-27.022-16.215Z" transform="translate(107.861 -164.376)" fill="#969696"/>
          </g>
          <g id="Grupo_8788-2" data-name="Grupo 8788" transform="translate(109.55 165.36)">
            <path id="Trazado_12632-2" data-name="Trazado 12632" d="M215.989,375.314V342.035l-27.753-16.65-27.753,16.65v33.279l27.753,16.652Zm-54.775-32.865,27.022-16.213,27.022,16.213V374.9l-27.022,16.213L161.215,374.9Z" transform="translate(-160.484 -325.385)" fill="#c8c8c8"/>
          </g>
          <g id="Grupo_8789-2" data-name="Grupo 8789" transform="translate(164.325 165.36)">
            <path id="Trazado_12633-2" data-name="Trazado 12633" d="M81.816,375.314V342.035l-27.753-16.65-27.752,16.65v33.279l27.752,16.652ZM27.041,342.449l27.022-16.213,27.022,16.213V374.9L54.063,391.114,27.041,374.9Z" transform="translate(-26.311 -325.385)" fill="#646464"/>
          </g>
          <g id="Grupo_8790-2" data-name="Grupo 8790" transform="translate(82.163 181.792)">
            <path id="Trazado_12634-2" data-name="Trazado 12634" d="M283.075,415.566V382.287l-27.754-16.65-27.752,16.65v33.279l27.752,16.652ZM228.3,382.7l27.021-16.213L282.345,382.7v32.452l-27.024,16.213L228.3,415.153Z" transform="translate(-227.57 -365.637)" fill="#969696"/>
          </g>
          <g id="Grupo_8791-2" data-name="Grupo 8791" transform="translate(54.776 165.36)">
            <path id="Trazado_12635-2" data-name="Trazado 12635" d="M350.161,375.314V342.035l-27.753-16.65-27.752,16.65v33.279l27.752,16.652Zm-54.775-32.865,27.022-16.213,27.022,16.213V374.9l-27.022,16.213L295.386,374.9Z" transform="translate(-294.656 -325.385)" fill="#e6e6e6"/>
          </g>
          <g id="Grupo_8792-2" data-name="Grupo 8792" transform="translate(54.776 198.224)">
            <path id="Trazado_12636-2" data-name="Trazado 12636" d="M350.161,455.816V422.538l-27.753-16.652-27.752,16.652v33.278l27.752,16.651Zm-54.775-32.865,27.022-16.213,27.022,16.213V455.4l-27.022,16.214L295.386,455.4Z" transform="translate(-294.656 -405.886)" fill="#e6e6e6"/>
          </g>
          <g id="Grupo_8793-2" data-name="Grupo 8793" transform="translate(27.388 181.792)">
            <path id="Trazado_12637-2" data-name="Trazado 12637" d="M417.249,415.566V382.287L389.5,365.637l-27.753,16.65v33.279L389.5,432.218ZM362.473,382.7,389.5,366.488,416.518,382.7v32.452L389.5,431.366l-27.023-16.213Z" transform="translate(-361.743 -365.637)" fill="#969696"/>
          </g>
          <g id="Grupo_8794-2" data-name="Grupo 8794" transform="translate(0 132.495)">
            <path id="Trazado_12638-2" data-name="Trazado 12638" d="M484.335,294.81V261.532l-27.753-16.651-27.753,16.651V294.81l27.753,16.652ZM429.56,261.945l27.022-16.213,27.023,16.213V294.4l-27.023,16.215L429.56,294.4Z" transform="translate(-428.829 -244.881)" fill="#e6e6e6"/>
          </g>
          <g id="Grupo_8795-2" data-name="Grupo 8795" transform="translate(82.163 116.062)">
            <path id="Trazado_12639-2" data-name="Trazado 12639" d="M283.075,254.558V221.279l-27.754-16.651L227.57,221.279v33.278l27.752,16.652ZM228.3,221.693l27.021-16.212,27.024,16.212v32.451l-27.024,16.215L228.3,254.144Z" transform="translate(-227.57 -204.628)" fill="#323232"/>
          </g>
          <g id="Grupo_8796-2" data-name="Grupo 8796" transform="translate(109.55 132.495)">
            <path id="Trazado_12640-2" data-name="Trazado 12640" d="M215.989,294.81V261.531l-27.753-16.65-27.753,16.65V294.81l27.753,16.652Zm-54.775-32.866,27.022-16.213,27.022,16.213V294.4L188.237,310.61,161.215,294.4Z" transform="translate(-160.484 -244.881)" fill="#646464"/>
          </g>
          <path id="Trazado_12641-2" data-name="Trazado 12641" d="M361.9,163.038a1.643,1.643,0,1,0-1.643,1.644A1.642,1.642,0,0,0,361.9,163.038Z" transform="translate(-277.729 -62.983)"/>
          <path id="Trazado_12642-2" data-name="Trazado 12642" d="M495.826,242.746a2.191,2.191,0,1,0-2.191,2.191A2.191,2.191,0,0,0,495.826,242.746Z" transform="translate(-465.881 -109.826)" fill="#969696"/>
          <path id="Trazado_12643-2" data-name="Trazado 12643" d="M361.981,404.813a1.461,1.461,0,1,0-1.461,1.461A1.46,1.46,0,0,0,361.981,404.813Z" transform="translate(-277.992 -206.163)"/>
          <g id="Grupo_8797-2" data-name="Grupo 8797" transform="translate(136.939 116.062)">
            <path id="Trazado_12644-2" data-name="Trazado 12644" d="M148.9,254.558V221.279l-27.752-16.651L93.4,221.279v33.278l27.752,16.652ZM94.129,221.693l27.022-16.212,27.022,16.212v32.451l-27.022,16.215L94.129,254.144Z" transform="translate(-93.399 -204.628)" fill="#323232"/>
          </g>
          <path id="Trazado_12645-2" data-name="Trazado 12645" d="M227.809,243.805a1.461,1.461,0,1,0-1.46,1.461A1.46,1.46,0,0,0,227.809,243.805Z" transform="translate(-89.046 -110.885)"/>
          <path id="Trazado_12646-2" data-name="Trazado 12646" d="M26.057,282.47a2.556,2.556,0,1,0-2.556,2.556A2.557,2.557,0,0,0,26.057,282.47Z" transform="translate(195.964 -133.117)"/>
          <path id="Trazado_12647-2" data-name="Trazado 12647" d="M-174.627,244.07a1.278,1.278,0,0,0-1.279-1.278,1.278,1.278,0,0,0-1.277,1.278,1.278,1.278,0,0,0,1.277,1.278A1.278,1.278,0,0,0-174.627,244.07Z" transform="translate(477.533 -111.15)"/>
          <path id="Trazado_12648-2" data-name="Trazado 12648" d="M-107.7,122.786a1.643,1.643,0,0,0-1.643-1.644,1.643,1.643,0,0,0-1.643,1.644,1.644,1.644,0,0,0,1.643,1.643A1.643,1.643,0,0,0-107.7,122.786Z" transform="translate(383.588 -39.163)"/>
          <path id="Trazado_12649-2" data-name="Trazado 12649" d="M-107.7,364.3a1.643,1.643,0,0,0-1.643-1.644,1.644,1.644,0,0,0-1.643,1.644,1.643,1.643,0,0,0,1.643,1.643A1.643,1.643,0,0,0-107.7,364.3Z" transform="translate(383.588 -182.079)"/>
          <path id="Trazado_12650-2" data-name="Trazado 12650" d="M26.222,41.49a2.191,2.191,0,1,0-2.191,2.191A2.191,2.191,0,0,0,26.222,41.49Z" transform="translate(195.434 9.269)"/>
          <path id="Trazado_12651-2" data-name="Trazado 12651" d="M-107.377-37.162a.913.913,0,0,0-.913-.913.913.913,0,0,0-.913.913.912.912,0,0,0,.913.912A.913.913,0,0,0-107.377-37.162Z" transform="translate(382.53 55.055)" fill="#646464"/>
          <path id="Trazado_12652-2" data-name="Trazado 12652" d="M-40.535-78.209A1.461,1.461,0,0,0-42-79.669a1.461,1.461,0,0,0-1.461,1.46A1.461,1.461,0,0,0-42-76.748,1.461,1.461,0,0,0-40.535-78.209Z" transform="translate(288.848 79.669)" fill="#969696"/>
          <path id="Trazado_12653-2" data-name="Trazado 12653" d="M26.467,444.8a1.643,1.643,0,1,0-1.643,1.643A1.643,1.643,0,0,0,26.467,444.8Z" transform="translate(194.641 -229.718)"/>
          <path id="Trazado_12654-2" data-name="Trazado 12654" d="M228.136,647.382a.73.73,0,1,0-.73.73A.73.73,0,0,0,228.136,647.382Z" transform="translate(-90.103 -350.137)"/>
          <path id="Trazado_12655-2" data-name="Trazado 12655" d="M160.478,605.278a2.008,2.008,0,1,0-2.008,2.009A2.008,2.008,0,0,0,160.478,605.278Z" transform="translate(6.221 -324.465)" fill="#969696"/>
          <path id="Trazado_12656-2" data-name="Trazado 12656" d="M-108.526,442.153a3.47,3.47,0,0,0-3.47-3.47,3.47,3.47,0,0,0-3.47,3.47,3.47,3.47,0,0,0,3.47,3.468A3.47,3.47,0,0,0-108.526,442.153Z" transform="translate(386.235 -227.07)" fill="#e6e6e6"/>
          <path id="Trazado_12657-2" data-name="Trazado 12657" d="M428.658,524.245a2.374,2.374,0,1,0-2.373,2.373A2.374,2.374,0,0,0,428.658,524.245Z" transform="translate(-371.143 -276.297)" fill="#e6e6e6"/>
          <path id="Trazado_12658-2" data-name="Trazado 12658" d="M496.237,646.588a1.278,1.278,0,1,0-1.278,1.279A1.278,1.278,0,0,0,496.237,646.588Z" transform="translate(-467.205 -349.343)" fill="#969696"/>
          <path id="Trazado_12659-2" data-name="Trazado 12659" d="M-41.357,563.173a3.286,3.286,0,0,0-3.286-3.287,3.286,3.286,0,0,0-3.286,3.287,3.287,3.287,0,0,0,3.286,3.287A3.287,3.287,0,0,0-41.357,563.173Z" transform="translate(291.495 -298.793)"/>
          <path id="Trazado_12660-2" data-name="Trazado 12660" d="M294.9,525.569a1.461,1.461,0,1,0-1.461,1.46A1.461,1.461,0,0,0,294.9,525.569Z" transform="translate(-183.519 -277.621)" fill="#969696"/>
          <path id="Trazado_12661-2" data-name="Trazado 12661" d="M160.066,362.445a2.921,2.921,0,1,0-2.921,2.921A2.921,2.921,0,0,0,160.066,362.445Z" transform="translate(7.545 -180.227)" fill="#646464"/>
          <path id="Trazado_12662-2" data-name="Trazado 12662" d="M227.809,163.3a1.461,1.461,0,1,0-1.46,1.461A1.461,1.461,0,0,0,227.809,163.3Z" transform="translate(-89.046 -63.247)" fill="#646464"/>
          <path id="Trazado_12663-2" data-name="Trazado 12663" d="M295.307,43.871a.548.548,0,1,0-.548.548A.548.548,0,0,0,295.307,43.871Z" transform="translate(-184.844 6.887)"/>
          <path id="Trazado_12664-2" data-name="Trazado 12664" d="M-204.916,30.423-226.1,17.714V-14.737l21.18-12.708V-28.3L-226.827-15.15V18.129l21.911,13.145Z" transform="translate(528.088 49.269)" fill="#323232"/>
          <path id="Trazado_12665-2" data-name="Trazado 12665" d="M-204.916,191.43l-21.18-12.708V146.271l21.18-12.709v-.852l-21.911,13.146v33.278l21.911,13.146Z" transform="translate(528.088 -46.009)" fill="#323232"/>
          <path id="Trazado_12666-2" data-name="Trazado 12666" d="M-226.827,100.524V133.8l27.752,16.652,21.545-12.927v-.852L-199.074,149.6-226.1,133.389V100.938l27.022-16.214,21.545,12.927V96.8l-21.545-12.926Z" transform="translate(500.701 -17.109)" fill="#969696"/>
          <path id="Trazado_12667-2" data-name="Trazado 12667" d="M-40.774,543.294v33.279l22.173,13.3h1.42l-22.863-13.718V543.707l27.023-16.214L14,543.707v32.451L-8.862,589.876h1.419l22.173-13.3V543.294l-27.752-16.652Z" transform="translate(232.487 -279.12)" fill="#323232"/>
        </g>
      </g>
    </g>
  </g>
</svg>
